{"glyphs":{"0":{"ha":1002,"x_min":88,"x_max":914,"o":"m 501 -13 q 197 116 306 -13 q 88 514 88 244 q 196 913 88 784 q 501 1041 304 1041 q 806 913 698 1041 q 914 514 914 784 q 805 116 914 244 q 501 -13 697 -13 m 501 117 q 640 154 583 117 q 728 278 697 191 q 759 513 759 365 q 728 749 759 661 q 640 874 697 837 q 501 910 583 910 q 362 874 419 910 q 275 750 306 837 q 244 515 244 663 q 275 279 244 367 q 362 154 306 191 q 501 117 419 117 z "},"1":{"ha":626,"x_min":24,"x_max":493,"o":"m 387 1031 l 493 1031 l 493 0 l 335 0 l 335 840 l 24 619 l 24 772 l 387 1031 z "},"2":{"ha":799,"x_min":35,"x_max":751,"o":"m 751 126 l 751 0 l 48 0 l 48 83 l 381 456 q 498 613 465 549 q 532 738 532 676 q 476 872 532 829 q 299 915 419 915 q 161 903 228 915 q 35 871 93 892 l 35 999 q 162 1030 89 1018 q 309 1041 235 1041 q 593 970 499 1041 q 688 753 688 899 q 670 641 688 694 q 615 529 653 588 q 508 397 576 471 l 262 126 l 751 126 z "},"3":{"ha":807,"x_min":42,"x_max":754,"o":"m 530 534 q 696 450 638 513 q 754 286 754 387 q 650 65 754 143 q 333 -13 547 -13 q 183 -2 258 -13 q 42 28 108 8 l 42 147 q 185 115 111 126 q 326 103 258 103 q 606 294 606 103 q 545 424 606 381 q 354 468 484 468 l 186 468 l 186 585 l 288 585 q 497 629 428 585 q 565 760 565 672 q 506 882 565 839 q 333 924 447 924 q 201 914 268 924 q 72 884 134 904 l 72 1001 q 202 1031 131 1020 q 346 1041 274 1041 q 550 1009 467 1041 q 675 916 633 977 q 717 771 717 856 q 667 623 717 684 q 530 534 617 561 z "},"4":{"ha":938,"x_min":34,"x_max":908,"o":"m 908 356 l 908 232 l 753 232 l 753 0 l 610 0 l 610 232 l 34 232 l 34 317 l 469 1028 l 624 1028 l 214 356 l 610 356 l 626 681 l 753 681 l 753 356 l 908 356 z "},"5":{"ha":817,"x_min":60,"x_max":773,"o":"m 302 604 q 576 559 473 595 q 726 459 680 523 q 773 300 773 396 q 667 67 773 147 q 351 -13 562 -13 q 201 -2 276 -13 q 60 31 126 10 l 60 149 q 202 117 128 128 q 345 106 276 106 q 556 154 487 106 q 624 297 624 202 q 591 397 624 358 q 479 459 558 436 q 259 489 400 481 l 102 497 l 140 1028 l 728 1028 l 728 910 l 280 910 l 258 606 l 302 604 z "},"6":{"ha":922,"x_min":94,"x_max":872,"o":"m 513 600 q 777 523 683 600 q 872 294 872 447 q 827 129 872 199 q 702 23 783 60 q 510 -13 621 -13 q 203 108 312 -13 q 94 478 94 230 q 220 898 94 756 q 592 1041 347 1041 q 819 1006 727 1041 l 819 886 q 715 913 772 904 q 602 922 657 922 q 338 825 426 922 q 247 533 249 727 q 369 582 298 564 q 513 600 441 600 m 510 100 q 669 148 610 100 q 727 291 727 197 q 665 438 727 389 q 484 487 602 487 q 361 470 424 487 q 247 423 297 454 q 320 176 253 251 q 510 100 386 100 z "},"7":{"ha":755,"x_min":10,"x_max":713,"o":"m 10 1028 l 713 1028 l 713 945 l 303 0 l 140 0 l 541 901 l 10 901 l 10 1028 z "},"8":{"ha":1002,"x_min":77,"x_max":924,"o":"m 705 530 q 872 427 821 490 q 924 276 924 365 q 877 125 924 190 q 737 23 831 60 q 506 -13 643 -13 q 184 58 290 -13 q 77 257 77 128 q 130 415 77 349 q 281 519 183 482 q 153 621 193 560 q 113 763 113 681 q 158 910 113 848 q 292 1007 203 973 q 509 1041 381 1041 q 714 1010 629 1041 q 843 921 799 979 q 887 782 887 863 q 842 633 887 697 q 705 530 797 569 m 504 931 q 323 888 383 931 q 263 769 263 845 q 289 680 263 716 q 378 616 315 643 q 557 568 442 590 l 582 563 q 709 649 669 600 q 748 766 748 697 q 685 888 748 846 q 504 931 623 931 m 507 97 q 708 141 640 97 q 775 267 775 184 q 748 353 775 318 q 658 413 721 388 q 486 458 596 438 q 392 479 435 467 q 267 396 309 449 q 226 277 226 343 q 297 143 226 189 q 507 97 367 97 z "},"9":{"ha":922,"x_min":50,"x_max":828,"o":"m 412 1041 q 719 919 610 1041 q 828 549 828 798 q 701 130 828 272 q 329 -13 574 -13 q 103 22 194 -13 l 103 142 q 207 115 149 124 q 319 106 265 106 q 584 203 496 106 q 675 495 672 301 q 552 446 624 464 q 409 428 481 428 q 144 505 239 428 q 50 733 50 581 q 94 899 50 829 q 219 1005 138 968 q 412 1041 301 1041 m 194 737 q 257 590 194 639 q 438 541 319 541 q 561 557 497 541 q 674 605 624 574 q 602 852 668 776 q 412 928 535 928 q 253 880 311 928 q 194 737 194 831 z "},"\u0000":{"ha":0,"x_min":0,"x_max":0,"o":""},"\r":{"ha":390,"x_min":0,"x_max":0,"o":""}," ":{"ha":390,"x_min":0,"x_max":0,"o":""},"A":{"ha":1088,"x_min":25,"x_max":1063,"o":"m 905 0 l 783 315 l 303 315 l 181 0 l 25 0 l 433 1028 l 655 1028 l 1063 0 l 905 0 m 351 437 l 735 437 l 543 930 l 351 437 z "},"Á":{"ha":1088,"x_min":25,"x_max":1063,"o":"m 905 0 l 783 315 l 303 315 l 181 0 l 25 0 l 433 1028 l 655 1028 l 1063 0 l 905 0 m 351 437 l 735 437 l 543 930 l 351 437 m 471 1114 l 620 1315 l 788 1315 l 615 1114 l 471 1114 z "},"Ă":{"ha":1088,"x_min":25,"x_max":1063,"o":"m 905 0 l 783 315 l 303 315 l 181 0 l 25 0 l 433 1028 l 655 1028 l 1063 0 l 905 0 m 351 437 l 735 437 l 543 930 l 351 437 m 544 1119 q 354 1170 421 1119 q 276 1303 288 1221 l 376 1303 q 426 1227 386 1254 q 544 1201 465 1201 q 663 1227 624 1201 q 712 1303 701 1254 l 811 1303 q 734 1170 800 1220 q 544 1119 669 1119 z "},"Ắ":{"ha":1088,"x_min":25,"x_max":1063,"o":"m 905 0 l 783 315 l 303 315 l 181 0 l 25 0 l 433 1028 l 655 1028 l 1063 0 l 905 0 m 351 437 l 735 437 l 543 930 l 351 437 m 493 1276 l 616 1447 l 738 1447 l 594 1276 l 493 1276 m 544 1119 q 365 1166 428 1119 q 291 1291 303 1213 l 378 1291 q 425 1216 388 1242 q 544 1190 463 1190 q 664 1216 626 1190 q 713 1291 701 1242 l 797 1291 q 723 1166 785 1213 q 544 1119 661 1119 z "},"Ặ":{"ha":1088,"x_min":25,"x_max":1063,"o":"m 905 0 l 783 315 l 303 315 l 181 0 l 25 0 l 433 1028 l 655 1028 l 1063 0 l 905 0 m 351 437 l 735 437 l 543 930 l 351 437 m 544 -257 q 470 -237 495 -257 q 445 -182 445 -217 q 470 -127 445 -147 q 544 -106 495 -106 q 617 -127 592 -106 q 642 -182 642 -147 q 617 -237 642 -217 q 544 -257 592 -257 m 544 1119 q 354 1170 421 1119 q 276 1303 288 1221 l 376 1303 q 426 1227 386 1254 q 544 1201 465 1201 q 663 1227 624 1201 q 712 1303 701 1254 l 811 1303 q 734 1170 800 1220 q 544 1119 669 1119 z "},"Ằ":{"ha":1088,"x_min":25,"x_max":1063,"o":"m 905 0 l 783 315 l 303 315 l 181 0 l 25 0 l 433 1028 l 655 1028 l 1063 0 l 905 0 m 351 437 l 735 437 l 543 930 l 351 437 m 493 1276 l 349 1447 l 472 1447 l 594 1276 l 493 1276 m 543 1119 q 365 1166 426 1119 q 291 1291 303 1213 l 375 1291 q 424 1216 387 1242 q 543 1190 461 1190 q 663 1216 625 1190 q 710 1291 700 1242 l 797 1291 q 722 1166 785 1213 q 543 1119 660 1119 z "},"Ẳ":{"ha":1088,"x_min":25,"x_max":1063,"o":"m 905 0 l 783 315 l 303 315 l 181 0 l 25 0 l 433 1028 l 655 1028 l 1063 0 l 905 0 m 351 437 l 735 437 l 543 930 l 351 437 m 500 1276 q 512 1308 501 1295 q 538 1328 523 1321 q 577 1346 553 1336 q 616 1364 603 1356 q 628 1384 628 1372 q 542 1414 628 1414 q 469 1409 502 1414 q 394 1394 436 1405 l 394 1451 q 551 1472 464 1472 q 673 1450 633 1472 q 713 1391 713 1429 q 694 1349 713 1363 q 640 1319 676 1334 q 601 1298 613 1307 q 587 1276 588 1290 l 500 1276 m 543 1119 q 365 1166 426 1119 q 291 1291 303 1213 l 378 1291 q 424 1216 388 1242 q 543 1190 461 1190 q 663 1216 625 1190 q 713 1291 701 1242 l 797 1291 q 722 1166 785 1213 q 543 1119 660 1119 z "},"Ẵ":{"ha":1088,"x_min":25,"x_max":1063,"o":"m 905 0 l 783 315 l 303 315 l 181 0 l 25 0 l 433 1028 l 655 1028 l 1063 0 l 905 0 m 351 437 l 735 437 l 543 930 l 351 437 m 655 1334 q 598 1340 625 1334 q 530 1359 572 1347 q 475 1375 497 1370 q 432 1381 453 1381 q 363 1369 395 1381 q 291 1333 330 1358 l 291 1408 q 359 1441 325 1431 q 433 1451 392 1451 q 490 1444 463 1451 q 558 1425 518 1438 q 613 1409 591 1414 q 656 1403 634 1403 q 725 1414 692 1403 q 797 1451 758 1425 l 797 1376 q 730 1344 763 1353 q 655 1334 696 1334 m 543 1119 q 365 1166 426 1119 q 291 1291 303 1213 l 378 1291 q 424 1216 388 1242 q 543 1190 461 1190 q 663 1216 625 1190 q 710 1291 700 1242 l 797 1291 q 722 1166 785 1213 q 543 1119 660 1119 z "},"Â":{"ha":1088,"x_min":25,"x_max":1063,"o":"m 905 0 l 783 315 l 303 315 l 181 0 l 25 0 l 433 1028 l 655 1028 l 1063 0 l 905 0 m 351 437 l 735 437 l 543 930 l 351 437 m 822 1114 l 685 1114 l 544 1252 l 403 1114 l 265 1114 l 476 1315 l 612 1315 l 822 1114 z "},"Ấ":{"ha":1088,"x_min":25,"x_max":1063,"o":"m 905 0 l 783 315 l 303 315 l 181 0 l 25 0 l 433 1028 l 655 1028 l 1063 0 l 905 0 m 351 437 l 735 437 l 543 930 l 351 437 m 851 1433 l 972 1433 l 828 1254 l 728 1254 l 851 1433 m 476 1303 l 612 1303 l 822 1114 l 685 1114 l 544 1246 l 403 1114 l 265 1114 l 476 1303 z "},"Ậ":{"ha":1088,"x_min":25,"x_max":1063,"o":"m 905 0 l 783 315 l 303 315 l 181 0 l 25 0 l 433 1028 l 655 1028 l 1063 0 l 905 0 m 351 437 l 735 437 l 543 930 l 351 437 m 544 -257 q 470 -237 495 -257 q 445 -182 445 -217 q 470 -127 445 -147 q 544 -106 495 -106 q 617 -127 592 -106 q 642 -182 642 -147 q 617 -237 642 -217 q 544 -257 592 -257 m 822 1114 l 685 1114 l 544 1252 l 403 1114 l 265 1114 l 476 1315 l 612 1315 l 822 1114 z "},"Ầ":{"ha":1088,"x_min":25,"x_max":1063,"o":"m 905 0 l 783 315 l 303 315 l 181 0 l 25 0 l 433 1028 l 655 1028 l 1063 0 l 905 0 m 351 437 l 735 437 l 543 930 l 351 437 m 848 1254 l 747 1254 l 603 1433 l 725 1433 l 848 1254 m 476 1303 l 612 1303 l 822 1114 l 685 1114 l 544 1246 l 403 1114 l 265 1114 l 476 1303 z "},"Ẩ":{"ha":1088,"x_min":25,"x_max":1063,"o":"m 905 0 l 783 315 l 303 315 l 181 0 l 25 0 l 433 1028 l 655 1028 l 1063 0 l 905 0 m 351 437 l 735 437 l 543 930 l 351 437 m 778 1449 q 901 1428 861 1449 q 941 1369 941 1407 q 922 1326 941 1342 q 868 1297 903 1311 q 829 1276 842 1285 q 815 1254 816 1267 l 728 1254 q 740 1286 728 1273 q 766 1306 751 1299 q 805 1324 781 1314 q 843 1342 831 1334 q 856 1362 856 1349 q 769 1392 856 1392 q 697 1387 730 1392 q 622 1372 664 1383 l 622 1429 q 778 1449 690 1449 m 476 1303 l 612 1303 l 822 1114 l 685 1114 l 544 1246 l 403 1114 l 265 1114 l 476 1303 z "},"Ẫ":{"ha":1088,"x_min":25,"x_max":1063,"o":"m 905 0 l 783 315 l 303 315 l 181 0 l 25 0 l 433 1028 l 655 1028 l 1063 0 l 905 0 m 351 437 l 735 437 l 543 930 l 351 437 m 672 1403 q 748 1414 713 1403 q 822 1451 783 1425 l 822 1376 q 752 1344 788 1353 q 670 1334 716 1334 q 605 1340 635 1334 q 529 1359 575 1347 q 466 1375 491 1370 q 416 1381 441 1381 q 341 1369 376 1381 q 265 1333 306 1358 l 265 1408 q 336 1441 300 1431 q 417 1451 373 1451 q 483 1444 452 1451 q 558 1425 515 1438 q 622 1409 597 1414 q 672 1403 647 1403 m 476 1303 l 612 1303 l 822 1114 l 685 1114 l 544 1246 l 403 1114 l 265 1114 l 476 1303 z "},"Ȁ":{"ha":1088,"x_min":25,"x_max":1063,"o":"m 905 0 l 783 315 l 303 315 l 181 0 l 25 0 l 433 1028 l 655 1028 l 1063 0 l 905 0 m 351 437 l 735 437 l 543 930 l 351 437 m 351 1114 l 230 1315 l 355 1315 l 467 1114 l 351 1114 m 621 1114 l 500 1315 l 625 1315 l 737 1114 l 621 1114 z "},"Ä":{"ha":1088,"x_min":25,"x_max":1063,"o":"m 905 0 l 783 315 l 303 315 l 181 0 l 25 0 l 433 1028 l 655 1028 l 1063 0 l 905 0 m 351 437 l 735 437 l 543 930 l 351 437 m 353 1141 q 288 1161 310 1141 q 265 1216 265 1181 q 288 1272 265 1251 q 353 1292 310 1292 q 419 1272 397 1292 q 442 1216 442 1251 q 419 1161 442 1181 q 353 1141 397 1141 m 734 1141 q 668 1161 691 1141 q 646 1216 646 1181 q 668 1272 646 1251 q 734 1292 691 1292 q 800 1272 777 1292 q 822 1216 822 1251 q 800 1161 822 1181 q 734 1141 777 1141 z "},"Ạ":{"ha":1088,"x_min":25,"x_max":1063,"o":"m 905 0 l 783 315 l 303 315 l 181 0 l 25 0 l 433 1028 l 655 1028 l 1063 0 l 905 0 m 351 437 l 735 437 l 543 930 l 351 437 m 544 -257 q 470 -237 495 -257 q 445 -182 445 -217 q 470 -127 445 -147 q 544 -106 495 -106 q 617 -127 592 -106 q 642 -182 642 -147 q 617 -237 642 -217 q 544 -257 592 -257 z "},"À":{"ha":1088,"x_min":25,"x_max":1063,"o":"m 905 0 l 783 315 l 303 315 l 181 0 l 25 0 l 433 1028 l 655 1028 l 1063 0 l 905 0 m 351 437 l 735 437 l 543 930 l 351 437 m 472 1114 l 298 1315 l 467 1315 l 616 1114 l 472 1114 z "},"Ả":{"ha":1088,"x_min":25,"x_max":1063,"o":"m 905 0 l 783 315 l 303 315 l 181 0 l 25 0 l 433 1028 l 655 1028 l 1063 0 l 905 0 m 351 437 l 735 437 l 543 930 l 351 437 m 500 1114 q 512 1148 501 1134 q 539 1170 524 1162 q 578 1188 553 1178 q 616 1207 603 1199 q 628 1228 628 1215 q 608 1251 628 1243 q 542 1258 588 1258 q 468 1254 501 1258 q 394 1238 435 1249 l 394 1301 q 551 1322 460 1322 q 673 1300 633 1322 q 713 1237 713 1277 q 703 1202 713 1216 q 678 1178 692 1188 q 640 1158 664 1169 q 601 1138 615 1147 q 587 1114 588 1128 l 500 1114 z "},"Ȃ":{"ha":1088,"x_min":25,"x_max":1063,"o":"m 905 0 l 783 315 l 303 315 l 181 0 l 25 0 l 433 1028 l 655 1028 l 1063 0 l 905 0 m 351 437 l 735 437 l 543 930 l 351 437 m 276 1126 q 353 1259 288 1208 q 543 1310 419 1310 q 733 1259 667 1310 q 811 1126 800 1208 l 712 1126 q 662 1201 701 1174 q 543 1228 622 1228 q 425 1202 464 1228 q 376 1126 386 1175 l 276 1126 z "},"Ā":{"ha":1088,"x_min":25,"x_max":1063,"o":"m 905 0 l 783 315 l 303 315 l 181 0 l 25 0 l 433 1028 l 655 1028 l 1063 0 l 905 0 m 351 437 l 735 437 l 543 930 l 351 437 m 297 1168 l 297 1261 l 791 1261 l 791 1168 l 297 1168 z "},"Ą":{"ha":1088,"x_min":25,"x_max":1131,"o":"m 1013 -227 q 1066 -222 1039 -227 q 1131 -203 1093 -216 l 1131 -269 q 996 -294 1065 -294 q 859 -259 906 -294 q 813 -161 813 -224 q 839 -74 813 -114 q 926 0 865 -33 l 905 0 l 783 315 l 303 315 l 181 0 l 25 0 l 433 1028 l 655 1028 l 1063 0 q 941 -72 976 -36 q 906 -150 906 -107 q 933 -207 906 -187 q 1013 -227 960 -227 m 351 437 l 735 437 l 543 930 l 351 437 z "},"Å":{"ha":1088,"x_min":25,"x_max":1063,"o":"m 905 0 l 783 315 l 303 315 l 181 0 l 25 0 l 433 1028 l 655 1028 l 1063 0 l 905 0 m 351 437 l 735 437 l 543 930 l 351 437 m 544 1108 q 472 1126 504 1108 q 422 1175 440 1144 q 404 1246 404 1206 q 422 1316 404 1285 q 472 1366 440 1348 q 544 1383 504 1383 q 615 1366 583 1383 q 665 1316 647 1348 q 683 1246 683 1285 q 665 1175 683 1206 q 615 1126 647 1144 q 544 1108 583 1108 m 544 1167 q 599 1189 578 1167 q 620 1246 620 1210 q 599 1302 620 1281 q 544 1324 578 1324 q 489 1302 510 1324 q 467 1246 467 1281 q 489 1189 467 1210 q 544 1167 510 1167 z "},"Ǻ":{"ha":1088,"x_min":25,"x_max":1063,"o":"m 905 0 l 783 315 l 303 315 l 181 0 l 25 0 l 433 1028 l 655 1028 l 1063 0 l 905 0 m 351 437 l 735 437 l 543 930 l 351 437 m 660 1324 q 683 1246 683 1290 q 665 1175 683 1206 q 615 1126 647 1144 q 544 1108 583 1108 q 472 1126 504 1108 q 422 1175 440 1144 q 404 1246 404 1206 q 422 1316 404 1285 q 472 1366 440 1348 q 544 1383 504 1383 q 597 1374 572 1383 l 678 1463 l 792 1463 l 660 1324 m 544 1167 q 599 1189 578 1167 q 620 1246 620 1210 q 599 1302 620 1281 q 544 1324 578 1324 q 489 1302 510 1324 q 467 1246 467 1281 q 489 1189 467 1210 q 544 1167 510 1167 z "},"Ã":{"ha":1088,"x_min":25,"x_max":1063,"o":"m 905 0 l 783 315 l 303 315 l 181 0 l 25 0 l 433 1028 l 655 1028 l 1063 0 l 905 0 m 351 437 l 735 437 l 543 930 l 351 437 m 665 1149 q 603 1156 632 1149 q 533 1176 574 1163 q 471 1194 496 1188 q 419 1200 446 1200 q 345 1189 377 1200 q 281 1153 313 1177 l 281 1244 q 342 1279 308 1268 q 422 1290 376 1290 q 485 1283 456 1290 q 555 1263 514 1276 q 617 1245 592 1251 q 668 1239 642 1239 q 743 1250 710 1239 q 806 1286 775 1261 l 806 1194 q 746 1160 780 1171 q 665 1149 713 1149 z "},"Æ":{"ha":1477,"x_min":25,"x_max":1408,"o":"m 881 122 l 1408 122 l 1408 0 l 733 0 l 707 315 l 305 315 l 181 0 l 25 0 l 437 1028 l 1401 1028 l 1401 906 l 810 906 l 839 588 l 1330 588 l 1330 465 l 850 465 l 881 122 m 353 437 l 697 437 l 657 906 l 538 906 l 353 437 z "},"Ǽ":{"ha":1477,"x_min":25,"x_max":1408,"o":"m 881 122 l 1408 122 l 1408 0 l 733 0 l 707 315 l 305 315 l 181 0 l 25 0 l 437 1028 l 1401 1028 l 1401 906 l 810 906 l 839 588 l 1330 588 l 1330 465 l 850 465 l 881 122 m 353 437 l 697 437 l 657 906 l 538 906 l 353 437 m 656 1114 l 805 1315 l 973 1315 l 799 1114 l 656 1114 z "},"B":{"ha":981,"x_min":127,"x_max":927,"o":"m 715 530 q 873 449 819 512 q 927 286 927 385 q 878 124 927 189 q 718 24 829 58 q 424 -10 607 -10 q 127 10 278 -10 l 127 1003 q 462 1039 290 1039 q 793 969 689 1039 q 898 758 898 899 q 851 612 898 672 q 715 530 805 552 m 477 925 q 281 908 372 925 l 281 585 l 508 585 q 691 625 633 585 q 750 753 750 666 q 723 852 750 814 q 635 907 695 890 q 477 925 576 925 m 460 105 q 653 126 583 105 q 753 187 724 147 q 782 292 782 227 q 720 426 782 384 q 524 469 658 469 l 281 469 l 281 116 q 460 105 359 105 z "},"C":{"ha":942,"x_min":81,"x_max":899,"o":"m 633 -13 q 225 114 368 -13 q 81 512 81 242 q 147 805 81 686 q 339 982 213 923 q 643 1041 465 1041 q 775 1033 713 1041 q 899 1009 837 1026 l 899 879 q 653 910 780 910 q 348 815 450 910 q 247 515 247 719 q 347 211 247 305 q 642 117 447 117 q 772 126 710 117 q 899 156 833 135 l 899 26 q 633 -13 775 -13 z "},"Ć":{"ha":942,"x_min":81,"x_max":899,"o":"m 633 -13 q 225 114 368 -13 q 81 512 81 242 q 147 805 81 686 q 339 982 213 923 q 643 1041 465 1041 q 775 1033 713 1041 q 899 1009 837 1026 l 899 879 q 653 910 780 910 q 348 815 450 910 q 247 515 247 719 q 347 211 247 305 q 642 117 447 117 q 772 126 710 117 q 899 156 833 135 l 899 26 q 633 -13 775 -13 m 488 1114 l 637 1315 l 805 1315 l 631 1114 l 488 1114 z "},"Č":{"ha":942,"x_min":81,"x_max":899,"o":"m 633 -13 q 225 114 368 -13 q 81 512 81 242 q 147 805 81 686 q 339 982 213 923 q 643 1041 465 1041 q 775 1033 713 1041 q 899 1009 837 1026 l 899 879 q 653 910 780 910 q 348 815 450 910 q 247 515 247 719 q 347 211 247 305 q 642 117 447 117 q 772 126 710 117 q 899 156 833 135 l 899 26 q 633 -13 775 -13 m 701 1315 l 839 1315 l 628 1114 l 492 1114 l 282 1315 l 419 1315 l 560 1177 l 701 1315 z "},"Ç":{"ha":942,"x_min":81,"x_max":899,"o":"m 653 910 q 348 815 450 910 q 247 515 247 719 q 347 211 247 305 q 642 117 447 117 q 772 126 710 117 q 899 156 833 135 l 899 26 q 633 -13 775 -13 q 601 -12 611 -13 l 601 -67 q 700 -101 666 -72 q 735 -179 735 -130 q 690 -264 735 -235 q 561 -294 644 -294 q 414 -268 481 -294 l 414 -203 q 556 -230 485 -230 q 627 -217 603 -230 q 651 -175 651 -203 q 627 -133 651 -146 q 555 -119 603 -119 l 522 -119 l 522 -7 q 195 144 309 17 q 81 512 81 272 q 147 805 81 686 q 339 982 213 923 q 643 1041 465 1041 q 775 1033 713 1041 q 899 1009 837 1026 l 899 879 q 653 910 780 910 z "},"Ḉ":{"ha":942,"x_min":81,"x_max":899,"o":"m 805 1315 l 631 1114 l 488 1114 l 637 1315 l 805 1315 m 653 910 q 348 815 450 910 q 247 515 247 719 q 347 211 247 305 q 642 117 447 117 q 772 126 710 117 q 899 156 833 135 l 899 26 q 633 -13 775 -13 q 601 -12 611 -13 l 601 -67 q 700 -101 666 -72 q 735 -179 735 -130 q 690 -264 735 -235 q 561 -294 644 -294 q 414 -268 481 -294 l 414 -203 q 556 -230 485 -230 q 627 -217 603 -230 q 651 -175 651 -203 q 627 -133 651 -146 q 555 -119 603 -119 l 522 -119 l 522 -7 q 195 144 309 17 q 81 512 81 272 q 147 805 81 686 q 339 982 213 923 q 643 1041 465 1041 q 775 1033 713 1041 q 899 1009 837 1026 l 899 879 q 653 910 780 910 z "},"Ĉ":{"ha":942,"x_min":81,"x_max":899,"o":"m 633 -13 q 225 114 368 -13 q 81 512 81 242 q 147 805 81 686 q 339 982 213 923 q 643 1041 465 1041 q 775 1033 713 1041 q 899 1009 837 1026 l 899 879 q 653 910 780 910 q 348 815 450 910 q 247 515 247 719 q 347 211 247 305 q 642 117 447 117 q 772 126 710 117 q 899 156 833 135 l 899 26 q 633 -13 775 -13 m 839 1114 l 701 1114 l 560 1252 l 419 1114 l 282 1114 l 492 1315 l 628 1315 l 839 1114 z "},"Ċ":{"ha":942,"x_min":81,"x_max":899,"o":"m 633 -13 q 225 114 368 -13 q 81 512 81 242 q 147 805 81 686 q 339 982 213 923 q 643 1041 465 1041 q 775 1033 713 1041 q 899 1009 837 1026 l 899 879 q 653 910 780 910 q 348 815 450 910 q 247 515 247 719 q 347 211 247 305 q 642 117 447 117 q 772 126 710 117 q 899 156 833 135 l 899 26 q 633 -13 775 -13 m 560 1141 q 487 1161 512 1141 q 462 1216 462 1181 q 486 1272 462 1251 q 560 1292 511 1292 q 634 1272 610 1292 q 659 1216 659 1251 q 634 1161 659 1181 q 560 1141 609 1141 z "},"D":{"ha":1135,"x_min":127,"x_max":1054,"o":"m 426 -8 q 127 10 274 -8 l 127 1003 q 290 1028 200 1019 q 461 1038 380 1038 q 905 907 755 1038 q 1054 514 1054 776 q 899 119 1054 247 q 426 -8 743 -8 m 462 120 q 788 216 682 120 q 893 515 893 312 q 787 814 893 717 q 465 910 681 910 q 284 894 385 910 l 284 131 q 462 120 358 120 z "},"Ǳ":{"ha":2028,"x_min":127,"x_max":1976,"o":"m 426 -8 q 127 10 274 -8 l 127 1003 q 290 1028 200 1019 q 461 1038 380 1038 q 905 907 755 1038 q 1054 514 1054 776 q 899 119 1054 247 q 426 -8 743 -8 m 462 120 q 788 216 682 120 q 893 515 893 312 q 787 814 893 717 q 465 910 681 910 q 284 894 385 910 l 284 131 q 462 120 358 120 m 1355 126 l 1976 126 l 1976 0 l 1147 0 l 1147 85 l 1760 901 l 1156 901 l 1156 1028 l 1967 1028 l 1967 942 l 1355 126 z "},"Ǆ":{"ha":2028,"x_min":127,"x_max":1976,"o":"m 426 -8 q 127 10 274 -8 l 127 1003 q 290 1028 200 1019 q 461 1038 380 1038 q 905 907 755 1038 q 1054 514 1054 776 q 899 119 1054 247 q 426 -8 743 -8 m 462 120 q 788 216 682 120 q 893 515 893 312 q 787 814 893 717 q 465 910 681 910 q 284 894 385 910 l 284 131 q 462 120 358 120 m 1355 126 l 1976 126 l 1976 0 l 1147 0 l 1147 85 l 1760 901 l 1156 901 l 1156 1028 l 1967 1028 l 1967 942 l 1355 126 m 1703 1315 l 1840 1315 l 1630 1114 l 1494 1114 l 1283 1315 l 1421 1315 l 1562 1177 l 1703 1315 z "},"Ð":{"ha":1135,"x_min":6,"x_max":1054,"o":"m 461 1038 q 905 907 755 1038 q 1054 514 1054 776 q 899 119 1054 247 q 426 -8 743 -8 q 127 10 274 -8 l 127 478 l 6 478 l 6 580 l 127 580 l 127 1003 q 290 1028 200 1019 q 461 1038 380 1038 m 462 120 q 788 216 682 120 q 893 515 893 312 q 787 814 893 717 q 465 910 681 910 q 284 894 385 910 l 284 580 l 540 580 l 540 478 l 284 478 l 284 131 q 462 120 358 120 z "},"Ď":{"ha":1135,"x_min":127,"x_max":1054,"o":"m 426 -8 q 127 10 274 -8 l 127 1003 q 290 1028 200 1019 q 461 1038 380 1038 q 905 907 755 1038 q 1054 514 1054 776 q 899 119 1054 247 q 426 -8 743 -8 m 462 120 q 788 216 682 120 q 893 515 893 312 q 787 814 893 717 q 465 910 681 910 q 284 894 385 910 l 284 131 q 462 120 358 120 m 649 1315 l 787 1315 l 576 1114 l 440 1114 l 230 1315 l 367 1315 l 508 1177 l 649 1315 z "},"Đ":{"ha":1135,"x_min":6,"x_max":1054,"o":"m 461 1038 q 905 907 755 1038 q 1054 514 1054 776 q 899 119 1054 247 q 426 -8 743 -8 q 127 10 274 -8 l 127 478 l 6 478 l 6 580 l 127 580 l 127 1003 q 290 1028 200 1019 q 461 1038 380 1038 m 462 120 q 788 216 682 120 q 893 515 893 312 q 787 814 893 717 q 465 910 681 910 q 284 894 385 910 l 284 580 l 540 580 l 540 478 l 284 478 l 284 131 q 462 120 358 120 z "},"Ḍ":{"ha":1135,"x_min":127,"x_max":1054,"o":"m 426 -8 q 127 10 274 -8 l 127 1003 q 290 1028 200 1019 q 461 1038 380 1038 q 905 907 755 1038 q 1054 514 1054 776 q 899 119 1054 247 q 426 -8 743 -8 m 462 120 q 788 216 682 120 q 893 515 893 312 q 787 814 893 717 q 465 910 681 910 q 284 894 385 910 l 284 131 q 462 120 358 120 m 514 -257 q 440 -237 465 -257 q 415 -182 415 -217 q 440 -127 415 -147 q 514 -106 465 -106 q 588 -127 563 -106 q 613 -182 613 -147 q 588 -237 613 -217 q 514 -257 563 -257 z "},"Ḏ":{"ha":1135,"x_min":127,"x_max":1054,"o":"m 426 -8 q 127 10 274 -8 l 127 1003 q 290 1028 200 1019 q 461 1038 380 1038 q 905 907 755 1038 q 1054 514 1054 776 q 899 119 1054 247 q 426 -8 743 -8 m 462 120 q 788 216 682 120 q 893 515 893 312 q 787 814 893 717 q 465 910 681 910 q 284 894 385 910 l 284 131 q 462 120 358 120 m 267 -226 l 267 -133 l 761 -133 l 761 -226 l 267 -226 z "},"ǲ":{"ha":1899,"x_min":127,"x_max":1853,"o":"m 426 -8 q 127 10 274 -8 l 127 1003 q 290 1028 200 1019 q 461 1038 380 1038 q 905 907 755 1038 q 1054 514 1054 776 q 899 119 1054 247 q 426 -8 743 -8 m 462 120 q 788 216 682 120 q 893 515 893 312 q 787 814 893 717 q 465 910 681 910 q 284 894 385 910 l 284 131 q 462 120 358 120 m 1397 124 l 1853 124 l 1853 0 l 1189 0 l 1189 98 l 1638 631 l 1198 631 l 1198 756 l 1844 756 l 1844 658 l 1397 124 z "},"ǅ":{"ha":1899,"x_min":127,"x_max":1853,"o":"m 426 -8 q 127 10 274 -8 l 127 1003 q 290 1028 200 1019 q 461 1038 380 1038 q 905 907 755 1038 q 1054 514 1054 776 q 899 119 1054 247 q 426 -8 743 -8 m 462 120 q 788 216 682 120 q 893 515 893 312 q 787 814 893 717 q 465 910 681 910 q 284 894 385 910 l 284 131 q 462 120 358 120 m 1397 124 l 1853 124 l 1853 0 l 1189 0 l 1189 98 l 1638 631 l 1198 631 l 1198 756 l 1844 756 l 1844 658 l 1397 124 m 1663 1092 l 1800 1092 l 1590 892 l 1453 892 l 1243 1092 l 1381 1092 l 1522 955 l 1663 1092 z "},"E":{"ha":949,"x_min":127,"x_max":881,"o":"m 283 122 l 881 122 l 881 0 l 127 0 l 127 1028 l 874 1028 l 874 906 l 283 906 l 283 588 l 802 588 l 802 465 l 283 465 l 283 122 z "},"É":{"ha":949,"x_min":127,"x_max":881,"o":"m 283 122 l 881 122 l 881 0 l 127 0 l 127 1028 l 874 1028 l 874 906 l 283 906 l 283 588 l 802 588 l 802 465 l 283 465 l 283 122 m 442 1114 l 592 1315 l 760 1315 l 586 1114 l 442 1114 z "},"Ĕ":{"ha":949,"x_min":127,"x_max":881,"o":"m 283 122 l 881 122 l 881 0 l 127 0 l 127 1028 l 874 1028 l 874 906 l 283 906 l 283 588 l 802 588 l 802 465 l 283 465 l 283 122 m 516 1119 q 326 1170 392 1119 q 248 1303 259 1221 l 347 1303 q 397 1227 358 1254 q 516 1201 437 1201 q 634 1227 595 1201 q 683 1303 673 1254 l 783 1303 q 706 1170 772 1220 q 516 1119 640 1119 z "},"Ě":{"ha":949,"x_min":127,"x_max":881,"o":"m 283 122 l 881 122 l 881 0 l 127 0 l 127 1028 l 874 1028 l 874 906 l 283 906 l 283 588 l 802 588 l 802 465 l 283 465 l 283 122 m 656 1315 l 794 1315 l 583 1114 l 447 1114 l 237 1315 l 374 1315 l 515 1177 l 656 1315 z "},"Ḝ":{"ha":949,"x_min":127,"x_max":881,"o":"m 516 1119 q 326 1170 392 1119 q 248 1303 259 1221 l 347 1303 q 397 1227 358 1254 q 516 1201 437 1201 q 634 1227 595 1201 q 683 1303 673 1254 l 783 1303 q 706 1170 772 1220 q 516 1119 640 1119 m 549 0 l 549 -67 q 648 -101 614 -72 q 683 -179 683 -130 q 638 -264 683 -235 q 509 -294 592 -294 q 362 -268 428 -294 l 362 -203 q 503 -230 433 -230 q 575 -217 551 -230 q 599 -175 599 -203 q 575 -133 599 -146 q 503 -119 551 -119 l 470 -119 l 470 0 l 127 0 l 127 1028 l 874 1028 l 874 906 l 283 906 l 283 588 l 802 588 l 802 465 l 283 465 l 283 122 l 881 122 l 881 0 l 549 0 z "},"Ê":{"ha":949,"x_min":127,"x_max":881,"o":"m 283 122 l 881 122 l 881 0 l 127 0 l 127 1028 l 874 1028 l 874 906 l 283 906 l 283 588 l 802 588 l 802 465 l 283 465 l 283 122 m 794 1114 l 656 1114 l 515 1252 l 374 1114 l 237 1114 l 447 1315 l 583 1315 l 794 1114 z "},"Ế":{"ha":949,"x_min":127,"x_max":944,"o":"m 283 122 l 881 122 l 881 0 l 127 0 l 127 1028 l 874 1028 l 874 906 l 283 906 l 283 588 l 802 588 l 802 465 l 283 465 l 283 122 m 822 1433 l 944 1433 l 800 1254 l 699 1254 l 822 1433 m 447 1303 l 583 1303 l 794 1114 l 656 1114 l 515 1246 l 374 1114 l 237 1114 l 447 1303 z "},"Ệ":{"ha":949,"x_min":127,"x_max":881,"o":"m 283 122 l 881 122 l 881 0 l 127 0 l 127 1028 l 874 1028 l 874 906 l 283 906 l 283 588 l 802 588 l 802 465 l 283 465 l 283 122 m 517 -257 q 443 -237 468 -257 q 418 -182 418 -217 q 443 -127 418 -147 q 517 -106 468 -106 q 590 -127 565 -106 q 615 -182 615 -147 q 590 -237 615 -217 q 517 -257 565 -257 m 794 1114 l 656 1114 l 515 1252 l 374 1114 l 237 1114 l 447 1315 l 583 1315 l 794 1114 z "},"Ề":{"ha":949,"x_min":127,"x_max":881,"o":"m 283 122 l 881 122 l 881 0 l 127 0 l 127 1028 l 874 1028 l 874 906 l 283 906 l 283 588 l 802 588 l 802 465 l 283 465 l 283 122 m 819 1254 l 719 1254 l 574 1433 l 697 1433 l 819 1254 m 447 1303 l 583 1303 l 794 1114 l 656 1114 l 515 1246 l 374 1114 l 237 1114 l 447 1303 z "},"Ể":{"ha":949,"x_min":127,"x_max":913,"o":"m 283 122 l 881 122 l 881 0 l 127 0 l 127 1028 l 874 1028 l 874 906 l 283 906 l 283 588 l 802 588 l 802 465 l 283 465 l 283 122 m 750 1449 q 873 1428 833 1449 q 913 1369 913 1407 q 894 1326 913 1342 q 840 1297 875 1311 q 800 1276 813 1285 q 786 1254 788 1267 l 699 1254 q 711 1286 700 1273 q 737 1306 722 1299 q 776 1324 752 1314 q 815 1342 803 1334 q 827 1362 827 1349 q 741 1392 827 1392 q 668 1387 701 1392 q 594 1372 635 1383 l 594 1429 q 750 1449 661 1449 m 447 1303 l 583 1303 l 794 1114 l 656 1114 l 515 1246 l 374 1114 l 237 1114 l 447 1303 z "},"Ễ":{"ha":949,"x_min":127,"x_max":881,"o":"m 283 122 l 881 122 l 881 0 l 127 0 l 127 1028 l 874 1028 l 874 906 l 283 906 l 283 588 l 802 588 l 802 465 l 283 465 l 283 122 m 643 1403 q 719 1414 684 1403 q 794 1451 754 1425 l 794 1376 q 724 1344 760 1353 q 642 1334 688 1334 q 577 1340 607 1334 q 501 1359 547 1347 q 438 1375 463 1370 q 388 1381 413 1381 q 312 1369 347 1381 q 237 1333 277 1358 l 237 1408 q 308 1441 272 1431 q 389 1451 344 1451 q 455 1444 424 1451 q 530 1425 486 1438 q 593 1409 568 1414 q 643 1403 618 1403 m 447 1303 l 583 1303 l 794 1114 l 656 1114 l 515 1246 l 374 1114 l 237 1114 l 447 1303 z "},"Ȅ":{"ha":949,"x_min":127,"x_max":881,"o":"m 283 122 l 881 122 l 881 0 l 127 0 l 127 1028 l 874 1028 l 874 906 l 283 906 l 283 588 l 802 588 l 802 465 l 283 465 l 283 122 m 322 1114 l 201 1315 l 326 1315 l 438 1114 l 322 1114 m 592 1114 l 472 1315 l 597 1315 l 708 1114 l 592 1114 z "},"Ë":{"ha":949,"x_min":127,"x_max":881,"o":"m 283 122 l 881 122 l 881 0 l 127 0 l 127 1028 l 874 1028 l 874 906 l 283 906 l 283 588 l 802 588 l 802 465 l 283 465 l 283 122 m 325 1141 q 259 1161 282 1141 q 237 1216 237 1181 q 259 1272 237 1251 q 325 1292 282 1292 q 391 1272 368 1292 q 413 1216 413 1251 q 391 1161 413 1181 q 325 1141 368 1141 m 706 1141 q 640 1161 663 1141 q 617 1216 617 1181 q 640 1272 617 1251 q 706 1292 663 1292 q 771 1272 749 1292 q 794 1216 794 1251 q 771 1161 794 1181 q 706 1141 749 1141 z "},"Ė":{"ha":949,"x_min":127,"x_max":881,"o":"m 283 122 l 881 122 l 881 0 l 127 0 l 127 1028 l 874 1028 l 874 906 l 283 906 l 283 588 l 802 588 l 802 465 l 283 465 l 283 122 m 515 1141 q 442 1161 467 1141 q 417 1216 417 1181 q 441 1272 417 1251 q 515 1292 466 1292 q 589 1272 565 1292 q 614 1216 614 1251 q 589 1161 614 1181 q 515 1141 564 1141 z "},"Ẹ":{"ha":949,"x_min":127,"x_max":881,"o":"m 283 122 l 881 122 l 881 0 l 127 0 l 127 1028 l 874 1028 l 874 906 l 283 906 l 283 588 l 802 588 l 802 465 l 283 465 l 283 122 m 517 -257 q 443 -237 468 -257 q 418 -182 418 -217 q 443 -127 418 -147 q 517 -106 468 -106 q 590 -127 565 -106 q 615 -182 615 -147 q 590 -237 615 -217 q 517 -257 565 -257 z "},"È":{"ha":949,"x_min":127,"x_max":881,"o":"m 283 122 l 881 122 l 881 0 l 127 0 l 127 1028 l 874 1028 l 874 906 l 283 906 l 283 588 l 802 588 l 802 465 l 283 465 l 283 122 m 443 1114 l 269 1315 l 438 1315 l 588 1114 l 443 1114 z "},"Ẻ":{"ha":949,"x_min":127,"x_max":881,"o":"m 283 122 l 881 122 l 881 0 l 127 0 l 127 1028 l 874 1028 l 874 906 l 283 906 l 283 588 l 802 588 l 802 465 l 283 465 l 283 122 m 472 1114 q 484 1148 472 1134 q 510 1170 495 1162 q 549 1188 525 1178 q 587 1207 575 1199 q 599 1228 599 1215 q 580 1251 599 1243 q 513 1258 560 1258 q 439 1254 472 1258 q 366 1238 406 1249 l 366 1301 q 522 1322 432 1322 q 645 1300 605 1322 q 685 1237 685 1277 q 674 1202 685 1216 q 650 1178 664 1188 q 612 1158 635 1169 q 573 1138 586 1147 q 558 1114 560 1128 l 472 1114 z "},"Ȇ":{"ha":949,"x_min":127,"x_max":881,"o":"m 283 122 l 881 122 l 881 0 l 127 0 l 127 1028 l 874 1028 l 874 906 l 283 906 l 283 588 l 802 588 l 802 465 l 283 465 l 283 122 m 248 1126 q 325 1259 259 1208 q 515 1310 391 1310 q 705 1259 638 1310 q 783 1126 772 1208 l 683 1126 q 633 1201 673 1174 q 515 1228 594 1228 q 397 1202 435 1228 q 347 1126 358 1175 l 248 1126 z "},"Ē":{"ha":949,"x_min":127,"x_max":881,"o":"m 283 122 l 881 122 l 881 0 l 127 0 l 127 1028 l 874 1028 l 874 906 l 283 906 l 283 588 l 802 588 l 802 465 l 283 465 l 283 122 m 268 1168 l 268 1261 l 763 1261 l 763 1168 l 268 1168 z "},"Ḗ":{"ha":949,"x_min":127,"x_max":881,"o":"m 283 122 l 881 122 l 881 0 l 127 0 l 127 1028 l 874 1028 l 874 906 l 283 906 l 283 588 l 802 588 l 802 465 l 283 465 l 283 122 m 435 1336 l 583 1497 l 769 1497 l 597 1336 l 435 1336 m 268 1168 l 268 1261 l 763 1261 l 763 1168 l 268 1168 z "},"Ḕ":{"ha":949,"x_min":127,"x_max":881,"o":"m 283 122 l 881 122 l 881 0 l 127 0 l 127 1028 l 874 1028 l 874 906 l 283 906 l 283 588 l 802 588 l 802 465 l 283 465 l 283 122 m 435 1336 l 262 1497 l 446 1497 l 595 1336 l 435 1336 m 268 1168 l 268 1261 l 763 1261 l 763 1168 l 268 1168 z "},"Ę":{"ha":949,"x_min":127,"x_max":888,"o":"m 770 -227 q 823 -222 796 -227 q 888 -203 850 -216 l 888 -269 q 753 -294 822 -294 q 616 -259 663 -294 q 569 -161 569 -224 q 596 -74 569 -114 q 683 0 622 -33 l 127 0 l 127 1028 l 874 1028 l 874 906 l 283 906 l 283 588 l 802 588 l 802 465 l 283 465 l 283 122 l 881 122 l 881 0 l 819 0 q 698 -72 733 -36 q 663 -150 663 -107 q 690 -207 663 -187 q 770 -227 717 -227 z "},"Ẽ":{"ha":949,"x_min":127,"x_max":881,"o":"m 283 122 l 881 122 l 881 0 l 127 0 l 127 1028 l 874 1028 l 874 906 l 283 906 l 283 588 l 802 588 l 802 465 l 283 465 l 283 122 m 637 1149 q 574 1156 603 1149 q 504 1176 545 1163 q 442 1194 467 1188 q 391 1200 417 1200 q 316 1189 349 1200 q 253 1153 284 1177 l 253 1244 q 313 1279 279 1268 q 394 1290 347 1290 q 456 1283 427 1290 q 526 1263 485 1276 q 588 1245 563 1251 q 640 1239 613 1239 q 714 1250 682 1239 q 778 1286 747 1261 l 778 1194 q 718 1160 751 1171 q 637 1149 684 1149 z "},"F":{"ha":924,"x_min":127,"x_max":869,"o":"m 869 903 l 284 903 l 284 576 l 797 576 l 797 451 l 284 451 l 284 0 l 127 0 l 127 1028 l 869 1028 l 869 903 z "},"G":{"ha":1088,"x_min":81,"x_max":965,"o":"m 965 500 l 965 14 q 823 -4 888 1 q 688 -10 758 -10 q 234 121 386 -10 q 81 511 82 252 q 152 804 81 685 q 355 982 223 922 q 672 1041 488 1041 q 933 1009 799 1041 l 933 879 q 683 910 805 910 q 358 813 471 910 q 245 513 245 716 q 680 120 245 120 q 817 126 754 120 l 817 500 l 965 500 z "},"Ǵ":{"ha":1088,"x_min":81,"x_max":965,"o":"m 965 500 l 965 14 q 823 -4 888 1 q 688 -10 758 -10 q 234 121 386 -10 q 81 511 82 252 q 152 804 81 685 q 355 982 223 922 q 672 1041 488 1041 q 933 1009 799 1041 l 933 879 q 683 910 805 910 q 358 813 471 910 q 245 513 245 716 q 680 120 245 120 q 817 126 754 120 l 817 500 l 965 500 m 520 1114 l 669 1315 l 838 1315 l 664 1114 l 520 1114 z "},"Ğ":{"ha":1088,"x_min":81,"x_max":965,"o":"m 965 500 l 965 14 q 823 -4 888 1 q 688 -10 758 -10 q 234 121 386 -10 q 81 511 82 252 q 152 804 81 685 q 355 982 223 922 q 672 1041 488 1041 q 933 1009 799 1041 l 933 879 q 683 910 805 910 q 358 813 471 910 q 245 513 245 716 q 680 120 245 120 q 817 126 754 120 l 817 500 l 965 500 m 594 1119 q 403 1170 470 1119 q 326 1303 337 1221 l 425 1303 q 475 1227 435 1254 q 594 1201 515 1201 q 712 1227 673 1201 q 761 1303 751 1254 l 860 1303 q 784 1170 849 1220 q 594 1119 718 1119 z "},"Ǧ":{"ha":1088,"x_min":81,"x_max":965,"o":"m 965 500 l 965 14 q 823 -4 888 1 q 688 -10 758 -10 q 234 121 386 -10 q 81 511 82 252 q 152 804 81 685 q 355 982 223 922 q 672 1041 488 1041 q 933 1009 799 1041 l 933 879 q 683 910 805 910 q 358 813 471 910 q 245 513 245 716 q 680 120 245 120 q 817 126 754 120 l 817 500 l 965 500 m 734 1315 l 872 1315 l 661 1114 l 525 1114 l 315 1315 l 452 1315 l 593 1177 l 734 1315 z "},"Ĝ":{"ha":1088,"x_min":81,"x_max":965,"o":"m 965 500 l 965 14 q 823 -4 888 1 q 688 -10 758 -10 q 234 121 386 -10 q 81 511 82 252 q 152 804 81 685 q 355 982 223 922 q 672 1041 488 1041 q 933 1009 799 1041 l 933 879 q 683 910 805 910 q 358 813 471 910 q 245 513 245 716 q 680 120 245 120 q 817 126 754 120 l 817 500 l 965 500 m 872 1114 l 734 1114 l 593 1252 l 452 1114 l 315 1114 l 525 1315 l 661 1315 l 872 1114 z "},"Ģ":{"ha":1088,"x_min":81,"x_max":965,"o":"m 965 500 l 965 14 q 823 -4 888 1 q 688 -10 758 -10 q 234 121 386 -10 q 81 511 82 252 q 152 804 81 685 q 355 982 223 922 q 672 1041 488 1041 q 933 1009 799 1041 l 933 879 q 683 910 805 910 q 358 813 471 910 q 245 513 245 716 q 680 120 245 120 q 817 126 754 120 l 817 500 l 965 500 m 592 -106 q 686 -191 686 -106 q 674 -261 686 -224 q 642 -331 663 -299 l 547 -331 q 579 -232 573 -276 q 519 -214 539 -230 q 500 -169 500 -197 q 523 -123 500 -140 q 592 -106 546 -106 z "},"Ġ":{"ha":1088,"x_min":81,"x_max":965,"o":"m 965 500 l 965 14 q 823 -4 888 1 q 688 -10 758 -10 q 234 121 386 -10 q 81 511 82 252 q 152 804 81 685 q 355 982 223 922 q 672 1041 488 1041 q 933 1009 799 1041 l 933 879 q 683 910 805 910 q 358 813 471 910 q 245 513 245 716 q 680 120 245 120 q 817 126 754 120 l 817 500 l 965 500 m 593 1141 q 519 1161 544 1141 q 494 1216 494 1181 q 519 1272 494 1251 q 593 1292 544 1292 q 667 1272 642 1292 q 692 1216 692 1251 q 667 1161 692 1181 q 593 1141 642 1141 z "},"Ḡ":{"ha":1088,"x_min":81,"x_max":965,"o":"m 965 500 l 965 14 q 823 -4 888 1 q 688 -10 758 -10 q 234 121 386 -10 q 81 511 82 252 q 152 804 81 685 q 355 982 223 922 q 672 1041 488 1041 q 933 1009 799 1041 l 933 879 q 683 910 805 910 q 358 813 471 910 q 245 513 245 716 q 680 120 245 120 q 817 126 754 120 l 817 500 l 965 500 m 346 1168 l 346 1261 l 840 1261 l 840 1168 l 346 1168 z "},"H":{"ha":1153,"x_min":127,"x_max":1026,"o":"m 127 0 l 127 1028 l 284 1028 l 284 595 l 869 595 l 869 1028 l 1026 1028 l 1026 0 l 869 0 l 869 458 l 284 458 l 284 0 l 127 0 z "},"Ħ":{"ha":1153,"x_min":6,"x_max":1148,"o":"m 1148 865 l 1148 763 l 1026 763 l 1026 0 l 869 0 l 869 458 l 284 458 l 284 0 l 127 0 l 127 763 l 6 763 l 6 865 l 127 865 l 127 1028 l 284 1028 l 284 865 l 869 865 l 869 1028 l 1026 1028 l 1026 865 l 1148 865 m 869 595 l 869 763 l 284 763 l 284 595 l 869 595 z "},"Ḫ":{"ha":1153,"x_min":127,"x_max":1026,"o":"m 127 0 l 127 1028 l 284 1028 l 284 595 l 869 595 l 869 1028 l 1026 1028 l 1026 0 l 869 0 l 869 458 l 284 458 l 284 0 l 127 0 m 578 -292 q 433 -267 492 -292 q 345 -201 375 -243 q 310 -105 315 -159 l 409 -105 q 578 -210 423 -210 q 699 -183 660 -210 q 745 -105 738 -155 l 844 -105 q 771 -240 838 -189 q 578 -292 705 -292 z "},"Ĥ":{"ha":1153,"x_min":127,"x_max":1026,"o":"m 127 0 l 127 1028 l 284 1028 l 284 595 l 869 595 l 869 1028 l 1026 1028 l 1026 0 l 869 0 l 869 458 l 284 458 l 284 0 l 127 0 m 856 1114 l 718 1114 l 577 1252 l 436 1114 l 299 1114 l 509 1315 l 645 1315 l 856 1114 z "},"Ḥ":{"ha":1153,"x_min":127,"x_max":1026,"o":"m 127 0 l 127 1028 l 284 1028 l 284 595 l 869 595 l 869 1028 l 1026 1028 l 1026 0 l 869 0 l 869 458 l 284 458 l 284 0 l 127 0 m 577 -257 q 503 -237 528 -257 q 478 -182 478 -217 q 503 -127 478 -147 q 577 -106 528 -106 q 651 -127 626 -106 q 676 -182 676 -147 q 651 -237 676 -217 q 577 -257 626 -257 z "},"I":{"ha":411,"x_min":127,"x_max":284,"o":"m 127 0 l 127 1028 l 284 1028 l 284 0 l 127 0 z "},"Í":{"ha":411,"x_min":127,"x_max":450,"o":"m 127 0 l 127 1028 l 284 1028 l 284 0 l 127 0 m 133 1114 l 282 1315 l 450 1315 l 276 1114 l 133 1114 z "},"Ĭ":{"ha":411,"x_min":-62,"x_max":473,"o":"m 127 0 l 127 1028 l 284 1028 l 284 0 l 127 0 m 206 1119 q 16 1170 83 1119 q -62 1303 -51 1221 l 38 1303 q 88 1227 48 1254 q 206 1201 127 1201 q 324 1227 285 1201 q 374 1303 363 1254 l 473 1303 q 396 1170 462 1220 q 206 1119 331 1119 z "},"Î":{"ha":411,"x_min":-73,"x_max":484,"o":"m 127 0 l 127 1028 l 284 1028 l 284 0 l 127 0 m 484 1114 l 347 1114 l 206 1252 l 65 1114 l -73 1114 l 138 1315 l 274 1315 l 484 1114 z "},"Ȉ":{"ha":411,"x_min":-108,"x_max":399,"o":"m 127 0 l 127 1028 l 284 1028 l 284 0 l 127 0 m 13 1114 l -108 1315 l 17 1315 l 128 1114 l 13 1114 m 283 1114 l 162 1315 l 287 1315 l 399 1114 l 283 1114 z "},"Ï":{"ha":411,"x_min":-73,"x_max":484,"o":"m 127 0 l 127 1028 l 284 1028 l 284 0 l 127 0 m 15 1141 q -50 1161 -28 1141 q -73 1216 -73 1181 q -50 1272 -73 1251 q 15 1292 -28 1292 q 81 1272 58 1292 q 103 1216 103 1251 q 81 1161 103 1181 q 15 1141 58 1141 m 396 1141 q 330 1161 353 1141 q 308 1216 308 1181 q 330 1272 308 1251 q 396 1292 353 1292 q 461 1272 439 1292 q 484 1216 484 1251 q 461 1161 484 1181 q 396 1141 439 1141 z "},"Ḯ":{"ha":411,"x_min":-73,"x_max":484,"o":"m 127 0 l 127 1028 l 284 1028 l 284 0 l 127 0 m 126 1336 l 274 1497 l 459 1497 l 287 1336 l 126 1336 m 15 1141 q -50 1161 -28 1141 q -73 1216 -73 1181 q -50 1272 -73 1251 q 15 1292 -28 1292 q 81 1272 58 1292 q 103 1216 103 1251 q 81 1161 103 1181 q 15 1141 58 1141 m 396 1141 q 330 1161 353 1141 q 308 1216 308 1181 q 330 1272 308 1251 q 396 1292 353 1292 q 461 1272 439 1292 q 484 1216 484 1251 q 461 1161 484 1181 q 396 1141 439 1141 z "},"İ":{"ha":411,"x_min":107,"x_max":304,"o":"m 127 0 l 127 1028 l 284 1028 l 284 0 l 127 0 m 206 1141 q 132 1161 157 1141 q 107 1216 107 1181 q 132 1272 107 1251 q 206 1292 156 1292 q 280 1272 255 1292 q 304 1216 304 1251 q 279 1161 304 1181 q 206 1141 254 1141 z "},"Ị":{"ha":411,"x_min":106,"x_max":303,"o":"m 127 0 l 127 1028 l 284 1028 l 284 0 l 127 0 m 205 -257 q 131 -237 156 -257 q 106 -182 106 -217 q 131 -127 106 -147 q 205 -106 156 -106 q 278 -127 253 -106 q 303 -182 303 -147 q 278 -237 303 -217 q 205 -257 253 -257 z "},"Ì":{"ha":411,"x_min":-40,"x_max":284,"o":"m 127 0 l 127 1028 l 284 1028 l 284 0 l 127 0 m 133 1114 l -40 1315 l 128 1315 l 278 1114 l 133 1114 z "},"Ỉ":{"ha":411,"x_min":56,"x_max":375,"o":"m 127 0 l 127 1028 l 284 1028 l 284 0 l 127 0 m 162 1114 q 174 1148 163 1134 q 200 1170 185 1162 q 240 1188 215 1178 q 277 1207 265 1199 q 290 1228 290 1215 q 270 1251 290 1243 q 203 1258 250 1258 q 130 1254 163 1258 q 56 1238 97 1249 l 56 1301 q 213 1322 122 1322 q 335 1300 295 1322 q 375 1237 375 1277 q 365 1202 375 1216 q 340 1178 354 1188 q 302 1158 326 1169 q 263 1138 276 1147 q 249 1114 250 1128 l 162 1114 z "},"Ȋ":{"ha":411,"x_min":-62,"x_max":473,"o":"m 127 0 l 127 1028 l 284 1028 l 284 0 l 127 0 m -62 1126 q 15 1259 -51 1208 q 205 1310 81 1310 q 395 1259 328 1310 q 473 1126 462 1208 l 374 1126 q 324 1201 363 1174 q 205 1228 284 1228 q 87 1202 126 1228 q 38 1126 48 1175 l -62 1126 z "},"Ī":{"ha":411,"x_min":-42,"x_max":453,"o":"m 127 0 l 127 1028 l 284 1028 l 284 0 l 127 0 m -42 1168 l -42 1261 l 453 1261 l 453 1168 l -42 1168 z "},"Į":{"ha":411,"x_min":34,"x_max":352,"o":"m 235 -227 q 288 -222 260 -227 q 352 -203 315 -216 l 352 -269 q 217 -294 286 -294 q 81 -259 128 -294 q 34 -161 34 -224 q 60 -74 34 -114 q 147 0 87 -33 l 127 0 l 127 1028 l 284 1028 l 284 0 q 162 -72 197 -36 q 127 -150 127 -107 q 154 -207 127 -187 q 235 -227 181 -227 z "},"Ĩ":{"ha":411,"x_min":-57,"x_max":468,"o":"m 127 0 l 127 1028 l 284 1028 l 284 0 l 127 0 m 327 1149 q 265 1156 294 1149 q 194 1176 235 1163 q 133 1194 158 1188 q 81 1200 108 1200 q 7 1189 39 1200 q -57 1153 -26 1177 l -57 1244 q 3 1279 -31 1268 q 84 1290 38 1290 q 147 1283 117 1290 q 217 1263 176 1276 q 278 1245 253 1251 q 330 1239 303 1239 q 405 1250 372 1239 q 468 1286 437 1261 l 468 1194 q 408 1160 442 1171 q 327 1149 374 1149 z "},"J":{"ha":411,"x_min":-1,"x_max":284,"o":"m -1 -173 q 97 -1 67 -90 q 128 203 128 88 l 128 1028 l 284 1028 l 284 192 q 238 -37 280 65 q 98 -241 195 -139 l -1 -173 z "},"Ĵ":{"ha":411,"x_min":-72,"x_max":485,"o":"m -1 -173 q 97 -1 67 -90 q 128 203 128 88 l 128 1028 l 284 1028 l 284 192 q 238 -37 280 65 q 98 -241 195 -139 l -1 -173 m 485 1114 l 347 1114 l 206 1252 l 65 1114 l -72 1114 l 138 1315 l 274 1315 l 485 1114 z "},"K":{"ha":981,"x_min":127,"x_max":987,"o":"m 810 0 l 448 458 l 284 458 l 284 0 l 127 0 l 127 1028 l 284 1028 l 284 595 l 449 595 l 784 1028 l 956 1028 l 570 530 l 987 0 l 810 0 z "},"Ķ":{"ha":981,"x_min":127,"x_max":987,"o":"m 810 0 l 448 458 l 284 458 l 284 0 l 127 0 l 127 1028 l 284 1028 l 284 595 l 449 595 l 784 1028 l 956 1028 l 570 530 l 987 0 l 810 0 m 506 -106 q 600 -191 600 -106 q 588 -261 600 -224 q 556 -331 576 -299 l 461 -331 q 493 -232 487 -276 q 433 -214 453 -230 q 414 -169 414 -197 q 437 -123 414 -140 q 506 -106 460 -106 z "},"L":{"ha":862,"x_min":127,"x_max":849,"o":"m 127 0 l 127 1028 l 284 1028 l 284 127 l 849 127 l 849 0 l 127 0 z "},"Ǉ":{"ha":1273,"x_min":127,"x_max":1146,"o":"m 127 0 l 127 1028 l 284 1028 l 284 127 l 849 127 l 849 0 l 127 0 m 860 -173 q 959 -1 928 -90 q 990 203 990 88 l 990 1028 l 1146 1028 l 1146 192 q 1099 -37 1142 65 q 960 -241 1057 -139 l 860 -173 z "},"Ĺ":{"ha":862,"x_min":127,"x_max":849,"o":"m 127 0 l 127 1028 l 284 1028 l 284 127 l 849 127 l 849 0 l 127 0 m 133 1114 l 282 1315 l 450 1315 l 276 1114 l 133 1114 z "},"Ľ":{"ha":862,"x_min":127,"x_max":849,"o":"m 127 0 l 127 1028 l 284 1028 l 284 127 l 849 127 l 849 0 l 127 0 m 551 792 q 564 940 560 863 q 567 1122 567 1018 l 674 1122 q 635 792 674 930 l 551 792 z "},"Ļ":{"ha":862,"x_min":127,"x_max":849,"o":"m 127 0 l 127 1028 l 284 1028 l 284 127 l 849 127 l 849 0 l 127 0 m 487 -106 q 581 -191 581 -106 q 569 -261 581 -224 q 537 -331 558 -299 l 442 -331 q 474 -232 468 -276 q 415 -214 434 -230 q 395 -169 395 -197 q 418 -123 395 -140 q 487 -106 441 -106 z "},"Ŀ":{"ha":862,"x_min":127,"x_max":849,"o":"m 127 0 l 127 1028 l 284 1028 l 284 127 l 849 127 l 849 0 l 127 0 m 626 495 q 551 517 576 495 q 525 579 525 539 q 551 641 525 619 q 626 663 576 663 q 700 641 675 663 q 726 579 726 619 q 700 517 726 539 q 626 495 675 495 z "},"Ḷ":{"ha":862,"x_min":127,"x_max":849,"o":"m 127 0 l 127 1028 l 284 1028 l 284 127 l 849 127 l 849 0 l 127 0 m 488 -257 q 415 -237 440 -257 q 390 -182 390 -217 q 415 -127 390 -147 q 488 -106 440 -106 q 562 -127 537 -106 q 587 -182 587 -147 q 562 -237 587 -217 q 488 -257 537 -257 z "},"ǈ":{"ha":1245,"x_min":127,"x_max":1151,"o":"m 127 0 l 127 1028 l 284 1028 l 284 127 l 849 127 l 849 0 l 127 0 m 847 -257 q 946 -85 915 -174 q 976 119 976 3 l 976 756 l 1131 756 l 1131 125 q 1087 -113 1131 -6 q 945 -324 1044 -219 l 847 -257 m 1051 908 q 976 929 1001 908 q 951 991 951 951 q 976 1054 951 1032 q 1051 1076 1001 1076 q 1125 1054 1100 1076 q 1151 991 1151 1032 q 1125 929 1151 951 q 1051 908 1100 908 z "},"Ḻ":{"ha":862,"x_min":127,"x_max":849,"o":"m 127 0 l 127 1028 l 284 1028 l 284 127 l 849 127 l 849 0 l 127 0 m 241 -226 l 241 -133 l 735 -133 l 735 -226 l 241 -226 z "},"Ł":{"ha":862,"x_min":-15,"x_max":849,"o":"m 284 127 l 849 127 l 849 0 l 127 0 l 127 448 l 35 390 l -15 478 l 127 567 l 127 1028 l 284 1028 l 284 665 l 498 799 l 547 711 l 284 547 l 284 127 z "},"M":{"ha":1381,"x_min":130,"x_max":1251,"o":"m 1063 1028 l 1251 1028 l 1251 0 l 1103 0 l 1103 822 l 759 144 l 621 144 l 278 808 l 278 0 l 130 0 l 130 1028 l 317 1028 l 693 292 l 1063 1028 z "},"Ṃ":{"ha":1381,"x_min":130,"x_max":1251,"o":"m 1063 1028 l 1251 1028 l 1251 0 l 1103 0 l 1103 822 l 759 144 l 621 144 l 278 808 l 278 0 l 130 0 l 130 1028 l 317 1028 l 693 292 l 1063 1028 m 699 -257 q 625 -237 650 -257 q 600 -182 600 -217 q 625 -127 600 -147 q 699 -106 650 -106 q 772 -127 747 -106 q 797 -182 797 -147 q 772 -237 797 -217 q 699 -257 747 -257 z "},"N":{"ha":1169,"x_min":127,"x_max":1042,"o":"m 893 1028 l 1042 1028 l 1042 0 l 882 0 l 276 811 l 276 0 l 127 0 l 127 1028 l 287 1028 l 893 217 l 893 1028 z "},"Ǌ":{"ha":1580,"x_min":127,"x_max":1453,"o":"m 893 1028 l 1042 1028 l 1042 0 l 882 0 l 276 811 l 276 0 l 127 0 l 127 1028 l 287 1028 l 893 217 l 893 1028 m 1167 -173 q 1266 -1 1235 -90 q 1297 203 1297 88 l 1297 1028 l 1453 1028 l 1453 192 q 1406 -37 1449 65 q 1267 -241 1364 -139 l 1167 -173 z "},"Ń":{"ha":1169,"x_min":127,"x_max":1042,"o":"m 893 1028 l 1042 1028 l 1042 0 l 882 0 l 276 811 l 276 0 l 127 0 l 127 1028 l 287 1028 l 893 217 l 893 1028 m 512 1114 l 661 1315 l 829 1315 l 656 1114 l 512 1114 z "},"Ň":{"ha":1169,"x_min":127,"x_max":1042,"o":"m 893 1028 l 1042 1028 l 1042 0 l 882 0 l 276 811 l 276 0 l 127 0 l 127 1028 l 287 1028 l 893 217 l 893 1028 m 726 1315 l 863 1315 l 653 1114 l 517 1114 l 306 1315 l 444 1315 l 585 1177 l 726 1315 z "},"Ņ":{"ha":1169,"x_min":127,"x_max":1042,"o":"m 893 1028 l 1042 1028 l 1042 0 l 882 0 l 276 811 l 276 0 l 127 0 l 127 1028 l 287 1028 l 893 217 l 893 1028 m 583 -106 q 678 -191 678 -106 q 666 -261 678 -224 q 633 -331 654 -299 l 539 -331 q 571 -232 565 -276 q 511 -214 531 -230 q 492 -169 492 -197 q 515 -123 492 -140 q 583 -106 538 -106 z "},"Ṅ":{"ha":1169,"x_min":127,"x_max":1042,"o":"m 893 1028 l 1042 1028 l 1042 0 l 882 0 l 276 811 l 276 0 l 127 0 l 127 1028 l 287 1028 l 893 217 l 893 1028 m 585 1141 q 511 1161 536 1141 q 486 1216 486 1181 q 511 1272 486 1251 q 585 1292 535 1292 q 659 1272 634 1292 q 683 1216 683 1251 q 658 1161 683 1181 q 585 1141 633 1141 z "},"Ṇ":{"ha":1169,"x_min":127,"x_max":1042,"o":"m 893 1028 l 1042 1028 l 1042 0 l 882 0 l 276 811 l 276 0 l 127 0 l 127 1028 l 287 1028 l 893 217 l 893 1028 m 585 -257 q 511 -237 536 -257 q 486 -182 486 -217 q 511 -127 486 -147 q 585 -106 536 -106 q 658 -127 633 -106 q 683 -182 683 -147 q 658 -237 683 -217 q 585 -257 633 -257 z "},"Ŋ":{"ha":1169,"x_min":127,"x_max":1042,"o":"m 1042 1028 l 1042 136 q 999 -111 1042 -3 q 856 -324 956 -219 l 758 -257 q 840 -134 809 -196 q 883 -1 870 -72 l 276 810 l 276 0 l 127 0 l 127 1028 l 287 1028 l 893 218 l 893 1028 l 1042 1028 z "},"ǋ":{"ha":1552,"x_min":127,"x_max":1458,"o":"m 893 1028 l 1042 1028 l 1042 0 l 882 0 l 276 811 l 276 0 l 127 0 l 127 1028 l 287 1028 l 893 217 l 893 1028 m 1154 -257 q 1253 -85 1222 -174 q 1283 119 1283 3 l 1283 756 l 1438 756 l 1438 125 q 1394 -113 1438 -6 q 1252 -324 1351 -219 l 1154 -257 m 1358 908 q 1283 929 1308 908 q 1258 991 1258 951 q 1283 1054 1258 1032 q 1358 1076 1308 1076 q 1432 1054 1407 1076 q 1458 991 1458 1032 q 1432 929 1458 951 q 1358 908 1407 908 z "},"Ṉ":{"ha":1169,"x_min":127,"x_max":1042,"o":"m 893 1028 l 1042 1028 l 1042 0 l 882 0 l 276 811 l 276 0 l 127 0 l 127 1028 l 287 1028 l 893 217 l 893 1028 m 338 -226 l 338 -133 l 832 -133 l 832 -226 l 338 -226 z "},"Ñ":{"ha":1169,"x_min":127,"x_max":1042,"o":"m 893 1028 l 1042 1028 l 1042 0 l 882 0 l 276 811 l 276 0 l 127 0 l 127 1028 l 287 1028 l 893 217 l 893 1028 m 706 1149 q 644 1156 673 1149 q 574 1176 615 1163 q 512 1194 537 1188 q 460 1200 487 1200 q 386 1189 418 1200 q 322 1153 353 1177 l 322 1244 q 383 1279 349 1268 q 463 1290 417 1290 q 526 1283 497 1290 q 596 1263 555 1276 q 658 1245 633 1251 q 709 1239 683 1239 q 784 1250 751 1239 q 847 1286 816 1261 l 847 1194 q 787 1160 821 1171 q 706 1149 753 1149 z "},"O":{"ha":1178,"x_min":81,"x_max":1097,"o":"m 589 -13 q 320 46 434 -13 q 143 223 206 105 q 81 514 81 341 q 144 805 81 687 q 321 982 207 923 q 589 1041 435 1041 q 858 982 744 1041 q 1034 805 972 923 q 1097 514 1097 686 q 1034 224 1097 342 q 857 46 971 106 q 589 -13 743 -13 m 589 115 q 844 212 753 115 q 935 510 935 309 q 844 814 935 715 q 589 913 753 913 q 334 816 426 913 q 242 518 242 719 q 333 213 242 311 q 589 115 424 115 z "},"Ó":{"ha":1178,"x_min":81,"x_max":1097,"o":"m 589 -13 q 320 46 434 -13 q 143 223 206 105 q 81 514 81 341 q 144 805 81 687 q 321 982 207 923 q 589 1041 435 1041 q 858 982 744 1041 q 1034 805 972 923 q 1097 514 1097 686 q 1034 224 1097 342 q 857 46 971 106 q 589 -13 743 -13 m 589 115 q 844 212 753 115 q 935 510 935 309 q 844 814 935 715 q 589 913 753 913 q 334 816 426 913 q 242 518 242 719 q 333 213 242 311 q 589 115 424 115 m 516 1114 l 665 1315 l 833 1315 l 660 1114 l 516 1114 z "},"Ŏ":{"ha":1178,"x_min":81,"x_max":1097,"o":"m 589 -13 q 320 46 434 -13 q 143 223 206 105 q 81 514 81 341 q 144 805 81 687 q 321 982 207 923 q 589 1041 435 1041 q 858 982 744 1041 q 1034 805 972 923 q 1097 514 1097 686 q 1034 224 1097 342 q 857 46 971 106 q 589 -13 743 -13 m 589 115 q 844 212 753 115 q 935 510 935 309 q 844 814 935 715 q 589 913 753 913 q 334 816 426 913 q 242 518 242 719 q 333 213 242 311 q 589 115 424 115 m 590 1119 q 399 1170 466 1119 q 322 1303 333 1221 l 421 1303 q 471 1227 431 1254 q 590 1201 510 1201 q 708 1227 669 1201 q 757 1303 747 1254 l 856 1303 q 780 1170 845 1220 q 590 1119 714 1119 z "},"Ô":{"ha":1178,"x_min":81,"x_max":1097,"o":"m 589 -13 q 320 46 434 -13 q 143 223 206 105 q 81 514 81 341 q 144 805 81 687 q 321 982 207 923 q 589 1041 435 1041 q 858 982 744 1041 q 1034 805 972 923 q 1097 514 1097 686 q 1034 224 1097 342 q 857 46 971 106 q 589 -13 743 -13 m 589 115 q 844 212 753 115 q 935 510 935 309 q 844 814 935 715 q 589 913 753 913 q 334 816 426 913 q 242 518 242 719 q 333 213 242 311 q 589 115 424 115 m 867 1114 l 730 1114 l 589 1252 l 448 1114 l 310 1114 l 521 1315 l 657 1315 l 867 1114 z "},"Ố":{"ha":1178,"x_min":81,"x_max":1097,"o":"m 589 -13 q 320 46 434 -13 q 143 223 206 105 q 81 514 81 341 q 144 805 81 687 q 321 982 207 923 q 589 1041 435 1041 q 858 982 744 1041 q 1034 805 972 923 q 1097 514 1097 686 q 1034 224 1097 342 q 857 46 971 106 q 589 -13 743 -13 m 589 115 q 844 212 753 115 q 935 510 935 309 q 844 814 935 715 q 589 913 753 913 q 334 816 426 913 q 242 518 242 719 q 333 213 242 311 q 589 115 424 115 m 896 1433 l 1017 1433 l 874 1254 l 773 1254 l 896 1433 m 521 1303 l 657 1303 l 867 1114 l 730 1114 l 589 1246 l 448 1114 l 310 1114 l 521 1303 z "},"Ộ":{"ha":1178,"x_min":81,"x_max":1097,"o":"m 589 -13 q 320 46 434 -13 q 143 223 206 105 q 81 514 81 341 q 144 805 81 687 q 321 982 207 923 q 589 1041 435 1041 q 858 982 744 1041 q 1034 805 972 923 q 1097 514 1097 686 q 1034 224 1097 342 q 857 46 971 106 q 589 -13 743 -13 m 589 115 q 844 212 753 115 q 935 510 935 309 q 844 814 935 715 q 589 913 753 913 q 334 816 426 913 q 242 518 242 719 q 333 213 242 311 q 589 115 424 115 m 589 -257 q 515 -237 540 -257 q 490 -182 490 -217 q 515 -127 490 -147 q 589 -106 540 -106 q 663 -127 638 -106 q 688 -182 688 -147 q 663 -237 688 -217 q 589 -257 638 -257 m 867 1114 l 730 1114 l 589 1252 l 448 1114 l 310 1114 l 521 1315 l 657 1315 l 867 1114 z "},"Ồ":{"ha":1178,"x_min":81,"x_max":1097,"o":"m 589 -13 q 320 46 434 -13 q 143 223 206 105 q 81 514 81 341 q 144 805 81 687 q 321 982 207 923 q 589 1041 435 1041 q 858 982 744 1041 q 1034 805 972 923 q 1097 514 1097 686 q 1034 224 1097 342 q 857 46 971 106 q 589 -13 743 -13 m 589 115 q 844 212 753 115 q 935 510 935 309 q 844 814 935 715 q 589 913 753 913 q 334 816 426 913 q 242 518 242 719 q 333 213 242 311 q 589 115 424 115 m 893 1254 l 792 1254 l 648 1433 l 770 1433 l 893 1254 m 521 1303 l 657 1303 l 867 1114 l 730 1114 l 589 1246 l 448 1114 l 310 1114 l 521 1303 z "},"Ổ":{"ha":1178,"x_min":81,"x_max":1097,"o":"m 589 -13 q 320 46 434 -13 q 143 223 206 105 q 81 514 81 341 q 144 805 81 687 q 321 982 207 923 q 589 1041 435 1041 q 858 982 744 1041 q 1034 805 972 923 q 1097 514 1097 686 q 1034 224 1097 342 q 857 46 971 106 q 589 -13 743 -13 m 589 115 q 844 212 753 115 q 935 510 935 309 q 844 814 935 715 q 589 913 753 913 q 334 816 426 913 q 242 518 242 719 q 333 213 242 311 q 589 115 424 115 m 824 1449 q 946 1428 906 1449 q 986 1369 986 1407 q 967 1326 986 1342 q 913 1297 949 1311 q 874 1276 887 1285 q 860 1254 861 1267 l 773 1254 q 785 1286 774 1273 q 811 1306 796 1299 q 850 1324 826 1314 q 889 1342 876 1334 q 901 1362 901 1349 q 815 1392 901 1392 q 742 1387 775 1392 q 667 1372 709 1383 l 667 1429 q 824 1449 735 1449 m 521 1303 l 657 1303 l 867 1114 l 730 1114 l 589 1246 l 448 1114 l 310 1114 l 521 1303 z "},"Ỗ":{"ha":1178,"x_min":81,"x_max":1097,"o":"m 589 -13 q 320 46 434 -13 q 143 223 206 105 q 81 514 81 341 q 144 805 81 687 q 321 982 207 923 q 589 1041 435 1041 q 858 982 744 1041 q 1034 805 972 923 q 1097 514 1097 686 q 1034 224 1097 342 q 857 46 971 106 q 589 -13 743 -13 m 589 115 q 844 212 753 115 q 935 510 935 309 q 844 814 935 715 q 589 913 753 913 q 334 816 426 913 q 242 518 242 719 q 333 213 242 311 q 589 115 424 115 m 717 1403 q 793 1414 758 1403 q 867 1451 828 1425 l 867 1376 q 797 1344 833 1353 q 715 1334 761 1334 q 650 1340 681 1334 q 574 1359 620 1347 q 511 1375 536 1370 q 461 1381 486 1381 q 386 1369 421 1381 q 310 1333 351 1358 l 310 1408 q 382 1441 345 1431 q 463 1451 418 1451 q 528 1444 497 1451 q 603 1425 560 1438 q 667 1409 642 1414 q 717 1403 692 1403 m 521 1303 l 657 1303 l 867 1114 l 730 1114 l 589 1246 l 448 1114 l 310 1114 l 521 1303 z "},"Ȍ":{"ha":1178,"x_min":81,"x_max":1097,"o":"m 589 -13 q 320 46 434 -13 q 143 223 206 105 q 81 514 81 341 q 144 805 81 687 q 321 982 207 923 q 589 1041 435 1041 q 858 982 744 1041 q 1034 805 972 923 q 1097 514 1097 686 q 1034 224 1097 342 q 857 46 971 106 q 589 -13 743 -13 m 589 115 q 844 212 753 115 q 935 510 935 309 q 844 814 935 715 q 589 913 753 913 q 334 816 426 913 q 242 518 242 719 q 333 213 242 311 q 589 115 424 115 m 396 1114 l 275 1315 l 400 1315 l 512 1114 l 396 1114 m 666 1114 l 545 1315 l 670 1315 l 782 1114 l 666 1114 z "},"Ö":{"ha":1178,"x_min":81,"x_max":1097,"o":"m 589 -13 q 320 46 434 -13 q 143 223 206 105 q 81 514 81 341 q 144 805 81 687 q 321 982 207 923 q 589 1041 435 1041 q 858 982 744 1041 q 1034 805 972 923 q 1097 514 1097 686 q 1034 224 1097 342 q 857 46 971 106 q 589 -13 743 -13 m 589 115 q 844 212 753 115 q 935 510 935 309 q 844 814 935 715 q 589 913 753 913 q 334 816 426 913 q 242 518 242 719 q 333 213 242 311 q 589 115 424 115 m 399 1141 q 333 1161 356 1141 q 310 1216 310 1181 q 333 1272 310 1251 q 399 1292 356 1292 q 464 1272 442 1292 q 487 1216 487 1251 q 464 1161 487 1181 q 399 1141 442 1141 m 779 1141 q 714 1161 736 1141 q 691 1216 691 1181 q 714 1272 691 1251 q 779 1292 736 1292 q 845 1272 822 1292 q 867 1216 867 1251 q 845 1161 867 1181 q 779 1141 822 1141 z "},"Ȫ":{"ha":1178,"x_min":81,"x_max":1097,"o":"m 589 -13 q 320 46 434 -13 q 143 223 206 105 q 81 514 81 341 q 144 805 81 687 q 321 982 207 923 q 589 1041 435 1041 q 858 982 744 1041 q 1034 805 972 923 q 1097 514 1097 686 q 1034 224 1097 342 q 857 46 971 106 q 589 -13 743 -13 m 589 115 q 844 212 753 115 q 935 510 935 309 q 844 814 935 715 q 589 913 753 913 q 334 816 426 913 q 242 518 242 719 q 333 213 242 311 q 589 115 424 115 m 399 1141 q 333 1161 356 1141 q 310 1216 310 1181 q 333 1272 310 1251 q 399 1292 356 1292 q 464 1272 442 1292 q 487 1216 487 1251 q 464 1161 487 1181 q 399 1141 442 1141 m 779 1141 q 714 1161 736 1141 q 691 1216 691 1181 q 714 1272 691 1251 q 779 1292 736 1292 q 845 1272 822 1292 q 867 1216 867 1251 q 845 1161 867 1181 q 779 1141 822 1141 m 342 1390 l 342 1483 l 836 1483 l 836 1390 l 342 1390 z "},"Ȱ":{"ha":1178,"x_min":81,"x_max":1097,"o":"m 589 -13 q 320 46 434 -13 q 143 223 206 105 q 81 514 81 341 q 144 805 81 687 q 321 982 207 923 q 589 1041 435 1041 q 858 982 744 1041 q 1034 805 972 923 q 1097 514 1097 686 q 1034 224 1097 342 q 857 46 971 106 q 589 -13 743 -13 m 589 115 q 844 212 753 115 q 935 510 935 309 q 844 814 935 715 q 589 913 753 913 q 334 816 426 913 q 242 518 242 719 q 333 213 242 311 q 589 115 424 115 m 589 1141 q 515 1161 540 1141 q 490 1216 490 1181 q 515 1272 490 1251 q 589 1292 540 1292 q 663 1272 638 1292 q 688 1216 688 1251 q 663 1161 688 1181 q 589 1141 638 1141 m 342 1390 l 342 1483 l 836 1483 l 836 1390 l 342 1390 z "},"Ọ":{"ha":1178,"x_min":81,"x_max":1097,"o":"m 589 -13 q 320 46 434 -13 q 143 223 206 105 q 81 514 81 341 q 144 805 81 687 q 321 982 207 923 q 589 1041 435 1041 q 858 982 744 1041 q 1034 805 972 923 q 1097 514 1097 686 q 1034 224 1097 342 q 857 46 971 106 q 589 -13 743 -13 m 589 115 q 844 212 753 115 q 935 510 935 309 q 844 814 935 715 q 589 913 753 913 q 334 816 426 913 q 242 518 242 719 q 333 213 242 311 q 589 115 424 115 m 589 -257 q 515 -237 540 -257 q 490 -182 490 -217 q 515 -127 490 -147 q 589 -106 540 -106 q 663 -127 638 -106 q 688 -182 688 -147 q 663 -237 688 -217 q 589 -257 638 -257 z "},"Ò":{"ha":1178,"x_min":81,"x_max":1097,"o":"m 589 -13 q 320 46 434 -13 q 143 223 206 105 q 81 514 81 341 q 144 805 81 687 q 321 982 207 923 q 589 1041 435 1041 q 858 982 744 1041 q 1034 805 972 923 q 1097 514 1097 686 q 1034 224 1097 342 q 857 46 971 106 q 589 -13 743 -13 m 589 115 q 844 212 753 115 q 935 510 935 309 q 844 814 935 715 q 589 913 753 913 q 334 816 426 913 q 242 518 242 719 q 333 213 242 311 q 589 115 424 115 m 517 1114 l 343 1315 l 512 1315 l 661 1114 l 517 1114 z "},"Ỏ":{"ha":1178,"x_min":81,"x_max":1097,"o":"m 589 -13 q 320 46 434 -13 q 143 223 206 105 q 81 514 81 341 q 144 805 81 687 q 321 982 207 923 q 589 1041 435 1041 q 858 982 744 1041 q 1034 805 972 923 q 1097 514 1097 686 q 1034 224 1097 342 q 857 46 971 106 q 589 -13 743 -13 m 589 115 q 844 212 753 115 q 935 510 935 309 q 844 814 935 715 q 589 913 753 913 q 334 816 426 913 q 242 518 242 719 q 333 213 242 311 q 589 115 424 115 m 545 1114 q 557 1148 546 1134 q 584 1170 569 1162 q 623 1188 599 1178 q 661 1207 649 1199 q 673 1228 673 1215 q 653 1251 673 1243 q 587 1258 633 1258 q 513 1254 546 1258 q 440 1238 480 1249 l 440 1301 q 596 1322 506 1322 q 718 1300 678 1322 q 758 1237 758 1277 q 748 1202 758 1216 q 723 1178 738 1188 q 685 1158 709 1169 q 647 1138 660 1147 q 632 1114 633 1128 l 545 1114 z "},"Ơ":{"ha":1178,"x_min":81,"x_max":1101,"o":"m 919 944 q 1051 772 1005 880 q 1097 514 1097 664 q 1034 221 1097 339 q 858 45 972 103 q 589 -13 744 -13 q 320 46 434 -13 q 143 223 206 105 q 81 514 81 341 q 144 805 81 687 q 321 982 207 923 q 589 1041 435 1041 q 661 1038 623 1041 q 708 1033 699 1034 q 841 1024 786 1024 q 955 1051 917 1024 q 993 1135 993 1078 q 990 1181 993 1159 q 979 1233 987 1203 l 1085 1233 q 1098 1183 1094 1206 q 1101 1131 1101 1159 q 1055 1002 1101 1049 q 919 944 1008 954 m 589 115 q 844 212 753 115 q 935 510 935 309 q 844 814 935 715 q 589 913 753 913 q 334 816 426 913 q 242 518 242 719 q 333 213 242 311 q 589 115 424 115 z "},"Ớ":{"ha":1178,"x_min":81,"x_max":1101,"o":"m 919 944 q 1051 772 1005 880 q 1097 514 1097 664 q 1034 221 1097 339 q 858 45 972 103 q 589 -13 744 -13 q 320 46 434 -13 q 143 223 206 105 q 81 514 81 341 q 144 805 81 687 q 321 982 207 923 q 589 1041 435 1041 q 661 1038 623 1041 q 708 1033 699 1034 q 841 1024 786 1024 q 955 1051 917 1024 q 993 1135 993 1078 q 990 1181 993 1159 q 979 1233 987 1203 l 1085 1233 q 1098 1183 1094 1206 q 1101 1131 1101 1159 q 1055 1002 1101 1049 q 919 944 1008 954 m 589 115 q 844 212 753 115 q 935 510 935 309 q 844 814 935 715 q 589 913 753 913 q 334 816 426 913 q 242 518 242 719 q 333 213 242 311 q 589 115 424 115 m 516 1114 l 665 1315 l 833 1315 l 660 1114 l 516 1114 z "},"Ợ":{"ha":1178,"x_min":81,"x_max":1101,"o":"m 919 944 q 1051 772 1005 880 q 1097 514 1097 664 q 1034 221 1097 339 q 858 45 972 103 q 589 -13 744 -13 q 320 46 434 -13 q 143 223 206 105 q 81 514 81 341 q 144 805 81 687 q 321 982 207 923 q 589 1041 435 1041 q 661 1038 623 1041 q 708 1033 699 1034 q 841 1024 786 1024 q 955 1051 917 1024 q 993 1135 993 1078 q 990 1181 993 1159 q 979 1233 987 1203 l 1085 1233 q 1098 1183 1094 1206 q 1101 1131 1101 1159 q 1055 1002 1101 1049 q 919 944 1008 954 m 589 115 q 844 212 753 115 q 935 510 935 309 q 844 814 935 715 q 589 913 753 913 q 334 816 426 913 q 242 518 242 719 q 333 213 242 311 q 589 115 424 115 m 589 -257 q 515 -237 540 -257 q 490 -182 490 -217 q 515 -127 490 -147 q 589 -106 540 -106 q 663 -127 638 -106 q 688 -182 688 -147 q 663 -237 688 -217 q 589 -257 638 -257 z "},"Ờ":{"ha":1178,"x_min":81,"x_max":1101,"o":"m 919 944 q 1051 772 1005 880 q 1097 514 1097 664 q 1034 221 1097 339 q 858 45 972 103 q 589 -13 744 -13 q 320 46 434 -13 q 143 223 206 105 q 81 514 81 341 q 144 805 81 687 q 321 982 207 923 q 589 1041 435 1041 q 661 1038 623 1041 q 708 1033 699 1034 q 841 1024 786 1024 q 955 1051 917 1024 q 993 1135 993 1078 q 990 1181 993 1159 q 979 1233 987 1203 l 1085 1233 q 1098 1183 1094 1206 q 1101 1131 1101 1159 q 1055 1002 1101 1049 q 919 944 1008 954 m 589 115 q 844 212 753 115 q 935 510 935 309 q 844 814 935 715 q 589 913 753 913 q 334 816 426 913 q 242 518 242 719 q 333 213 242 311 q 589 115 424 115 m 517 1114 l 343 1315 l 512 1315 l 661 1114 l 517 1114 z "},"Ở":{"ha":1178,"x_min":81,"x_max":1101,"o":"m 919 944 q 1051 772 1005 880 q 1097 514 1097 664 q 1034 221 1097 339 q 858 45 972 103 q 589 -13 744 -13 q 320 46 434 -13 q 143 223 206 105 q 81 514 81 341 q 144 805 81 687 q 321 982 207 923 q 589 1041 435 1041 q 661 1038 623 1041 q 708 1033 699 1034 q 841 1024 786 1024 q 955 1051 917 1024 q 993 1135 993 1078 q 990 1181 993 1159 q 979 1233 987 1203 l 1085 1233 q 1098 1183 1094 1206 q 1101 1131 1101 1159 q 1055 1002 1101 1049 q 919 944 1008 954 m 589 115 q 844 212 753 115 q 935 510 935 309 q 844 814 935 715 q 589 913 753 913 q 334 816 426 913 q 242 518 242 719 q 333 213 242 311 q 589 115 424 115 m 545 1114 q 557 1148 546 1134 q 584 1170 569 1162 q 623 1188 599 1178 q 661 1207 649 1199 q 673 1228 673 1215 q 653 1251 673 1243 q 587 1258 633 1258 q 513 1254 546 1258 q 440 1238 480 1249 l 440 1301 q 596 1322 506 1322 q 718 1300 678 1322 q 758 1237 758 1277 q 748 1202 758 1216 q 723 1178 738 1188 q 685 1158 709 1169 q 647 1138 660 1147 q 632 1114 633 1128 l 545 1114 z "},"Ỡ":{"ha":1178,"x_min":81,"x_max":1101,"o":"m 710 1149 q 648 1156 677 1149 q 578 1176 619 1163 q 516 1194 541 1188 q 465 1200 491 1200 q 390 1189 422 1200 q 326 1153 358 1177 l 326 1244 q 387 1279 353 1267 q 467 1290 421 1290 q 529 1284 501 1290 q 600 1263 558 1277 q 662 1245 636 1251 q 714 1239 688 1239 q 788 1250 756 1239 q 851 1286 820 1261 l 851 1194 q 791 1160 825 1171 q 710 1149 758 1149 m 919 944 q 1051 772 1005 880 q 1097 514 1097 664 q 1034 221 1097 339 q 858 45 972 103 q 589 -13 744 -13 q 320 46 434 -13 q 143 223 206 105 q 81 514 81 341 q 144 805 81 687 q 321 982 207 923 q 589 1041 435 1041 q 661 1038 623 1041 q 708 1033 699 1034 q 841 1024 786 1024 q 955 1051 917 1024 q 993 1135 993 1078 q 990 1181 993 1159 q 979 1233 987 1203 l 1085 1233 q 1098 1183 1094 1206 q 1101 1131 1101 1159 q 1055 1002 1101 1049 q 919 944 1008 954 m 589 115 q 844 212 753 115 q 935 510 935 309 q 844 814 935 715 q 589 913 753 913 q 334 816 426 913 q 242 518 242 719 q 333 213 242 311 q 589 115 424 115 z "},"Ő":{"ha":1178,"x_min":81,"x_max":1097,"o":"m 589 -13 q 320 46 434 -13 q 143 223 206 105 q 81 514 81 341 q 144 805 81 687 q 321 982 207 923 q 589 1041 435 1041 q 858 982 744 1041 q 1034 805 972 923 q 1097 514 1097 686 q 1034 224 1097 342 q 857 46 971 106 q 589 -13 743 -13 m 589 115 q 844 212 753 115 q 935 510 935 309 q 844 814 935 715 q 589 913 753 913 q 334 816 426 913 q 242 518 242 719 q 333 213 242 311 q 589 115 424 115 m 396 1114 l 508 1315 l 633 1315 l 512 1114 l 396 1114 m 666 1114 l 778 1315 l 903 1315 l 782 1114 l 666 1114 z "},"Ȏ":{"ha":1178,"x_min":81,"x_max":1097,"o":"m 589 -13 q 320 46 434 -13 q 143 223 206 105 q 81 514 81 341 q 144 805 81 687 q 321 982 207 923 q 589 1041 435 1041 q 858 982 744 1041 q 1034 805 972 923 q 1097 514 1097 686 q 1034 224 1097 342 q 857 46 971 106 q 589 -13 743 -13 m 589 115 q 844 212 753 115 q 935 510 935 309 q 844 814 935 715 q 589 913 753 913 q 334 816 426 913 q 242 518 242 719 q 333 213 242 311 q 589 115 424 115 m 322 1126 q 399 1259 333 1208 q 588 1310 465 1310 q 778 1259 712 1310 q 856 1126 845 1208 l 757 1126 q 707 1201 747 1174 q 588 1228 667 1228 q 470 1202 509 1228 q 421 1126 431 1175 l 322 1126 z "},"Ō":{"ha":1178,"x_min":81,"x_max":1097,"o":"m 589 -13 q 320 46 434 -13 q 143 223 206 105 q 81 514 81 341 q 144 805 81 687 q 321 982 207 923 q 589 1041 435 1041 q 858 982 744 1041 q 1034 805 972 923 q 1097 514 1097 686 q 1034 224 1097 342 q 857 46 971 106 q 589 -13 743 -13 m 589 115 q 844 212 753 115 q 935 510 935 309 q 844 814 935 715 q 589 913 753 913 q 334 816 426 913 q 242 518 242 719 q 333 213 242 311 q 589 115 424 115 m 342 1168 l 342 1261 l 836 1261 l 836 1168 l 342 1168 z "},"Ṓ":{"ha":1178,"x_min":81,"x_max":1097,"o":"m 589 -13 q 320 46 434 -13 q 143 223 206 105 q 81 514 81 341 q 144 805 81 687 q 321 982 207 923 q 589 1041 435 1041 q 858 982 744 1041 q 1034 805 972 923 q 1097 514 1097 686 q 1034 224 1097 342 q 857 46 971 106 q 589 -13 743 -13 m 589 115 q 844 212 753 115 q 935 510 935 309 q 844 814 935 715 q 589 913 753 913 q 334 816 426 913 q 242 518 242 719 q 333 213 242 311 q 589 115 424 115 m 509 1336 l 657 1497 l 842 1497 l 670 1336 l 509 1336 m 342 1168 l 342 1261 l 836 1261 l 836 1168 l 342 1168 z "},"Ṑ":{"ha":1178,"x_min":81,"x_max":1097,"o":"m 589 -13 q 320 46 434 -13 q 143 223 206 105 q 81 514 81 341 q 144 805 81 687 q 321 982 207 923 q 589 1041 435 1041 q 858 982 744 1041 q 1034 805 972 923 q 1097 514 1097 686 q 1034 224 1097 342 q 857 46 971 106 q 589 -13 743 -13 m 589 115 q 844 212 753 115 q 935 510 935 309 q 844 814 935 715 q 589 913 753 913 q 334 816 426 913 q 242 518 242 719 q 333 213 242 311 q 589 115 424 115 m 509 1336 l 335 1497 l 519 1497 l 669 1336 l 509 1336 m 342 1168 l 342 1261 l 836 1261 l 836 1168 l 342 1168 z "},"Ǫ":{"ha":1178,"x_min":81,"x_max":1097,"o":"m 766 10 q 611 -62 654 -22 q 567 -150 567 -102 q 595 -207 567 -187 q 676 -227 622 -227 q 728 -221 701 -227 q 792 -203 756 -215 l 792 -269 q 658 -294 727 -294 q 521 -258 568 -294 q 474 -161 474 -223 q 496 -79 474 -116 q 569 -13 519 -42 q 309 51 419 -9 q 141 228 200 111 q 81 514 81 344 q 144 805 81 687 q 321 982 207 923 q 589 1041 435 1041 q 858 983 744 1041 q 1034 806 972 924 q 1097 514 1097 688 q 1053 266 1097 369 q 936 99 1010 162 q 766 10 863 37 m 242 518 q 333 213 242 311 q 589 115 424 115 q 844 212 753 115 q 935 510 935 309 q 844 814 935 715 q 589 913 753 913 q 334 816 426 913 q 242 518 242 719 z "},"Ø":{"ha":1178,"x_min":81,"x_max":1097,"o":"m 977 889 q 1066 728 1035 822 q 1097 514 1097 634 q 1034 224 1097 342 q 857 46 971 106 q 589 -13 743 -13 q 265 79 392 -13 l 175 -24 l 109 35 l 201 139 q 81 514 81 276 q 144 805 81 687 q 321 982 207 923 q 589 1041 435 1041 q 767 1017 685 1041 q 912 948 849 994 l 1003 1051 l 1069 993 l 977 889 m 242 518 q 303 255 242 353 l 817 840 q 589 913 731 913 q 334 816 426 913 q 242 518 242 719 m 589 115 q 844 212 753 115 q 935 510 935 309 q 875 772 935 674 l 360 187 q 589 115 445 115 z "},"Ǿ":{"ha":1178,"x_min":81,"x_max":1097,"o":"m 977 889 q 1066 728 1035 822 q 1097 514 1097 634 q 1034 224 1097 342 q 857 46 971 106 q 589 -13 743 -13 q 265 79 392 -13 l 175 -24 l 109 35 l 201 139 q 81 514 81 276 q 144 805 81 687 q 321 982 207 923 q 589 1041 435 1041 q 767 1017 685 1041 q 912 948 849 994 l 1003 1051 l 1069 993 l 977 889 m 242 518 q 303 255 242 353 l 817 840 q 589 913 731 913 q 334 816 426 913 q 242 518 242 719 m 589 115 q 844 212 753 115 q 935 510 935 309 q 875 772 935 674 l 360 187 q 589 115 445 115 m 511 1114 l 660 1315 l 828 1315 l 655 1114 l 511 1114 z "},"Õ":{"ha":1178,"x_min":81,"x_max":1097,"o":"m 589 -13 q 320 46 434 -13 q 143 223 206 105 q 81 514 81 341 q 144 805 81 687 q 321 982 207 923 q 589 1041 435 1041 q 858 982 744 1041 q 1034 805 972 923 q 1097 514 1097 686 q 1034 224 1097 342 q 857 46 971 106 q 589 -13 743 -13 m 589 115 q 844 212 753 115 q 935 510 935 309 q 844 814 935 715 q 589 913 753 913 q 334 816 426 913 q 242 518 242 719 q 333 213 242 311 q 589 115 424 115 m 710 1149 q 648 1156 677 1149 q 578 1176 619 1163 q 516 1194 541 1188 q 465 1200 491 1200 q 390 1189 422 1200 q 326 1153 358 1177 l 326 1244 q 387 1279 353 1268 q 467 1290 421 1290 q 530 1283 501 1290 q 600 1263 559 1276 q 662 1245 637 1251 q 713 1239 687 1239 q 788 1250 756 1239 q 851 1286 820 1261 l 851 1194 q 791 1160 825 1171 q 710 1149 758 1149 z "},"Ṍ":{"ha":1178,"x_min":81,"x_max":1097,"o":"m 589 -13 q 320 46 434 -13 q 143 223 206 105 q 81 514 81 341 q 144 805 81 687 q 321 982 207 923 q 589 1041 435 1041 q 858 982 744 1041 q 1034 805 972 923 q 1097 514 1097 686 q 1034 224 1097 342 q 857 46 971 106 q 589 -13 743 -13 m 589 115 q 844 212 753 115 q 935 510 935 309 q 844 814 935 715 q 589 913 753 913 q 334 816 426 913 q 242 518 242 719 q 333 213 242 311 q 589 115 424 115 m 509 1336 l 657 1497 l 842 1497 l 670 1336 l 509 1336 m 710 1149 q 648 1156 677 1149 q 578 1176 619 1163 q 516 1194 541 1188 q 465 1200 491 1200 q 390 1189 422 1200 q 326 1153 358 1177 l 326 1244 q 387 1279 353 1268 q 467 1290 421 1290 q 530 1283 501 1290 q 600 1263 559 1276 q 662 1245 637 1251 q 713 1239 687 1239 q 788 1250 756 1239 q 851 1286 820 1261 l 851 1194 q 791 1160 825 1171 q 710 1149 758 1149 z "},"Ṏ":{"ha":1178,"x_min":81,"x_max":1097,"o":"m 589 -13 q 320 46 434 -13 q 143 223 206 105 q 81 514 81 341 q 144 805 81 687 q 321 982 207 923 q 589 1041 435 1041 q 858 982 744 1041 q 1034 805 972 923 q 1097 514 1097 686 q 1034 224 1097 342 q 857 46 971 106 q 589 -13 743 -13 m 589 115 q 844 212 753 115 q 935 510 935 309 q 844 814 935 715 q 589 913 753 913 q 334 816 426 913 q 242 518 242 719 q 333 213 242 311 q 589 115 424 115 m 710 1149 q 648 1156 677 1149 q 578 1176 619 1163 q 516 1194 541 1188 q 465 1200 491 1200 q 390 1189 422 1200 q 326 1153 358 1177 l 326 1244 q 387 1279 353 1268 q 467 1290 421 1290 q 530 1283 501 1290 q 600 1263 559 1276 q 662 1245 637 1251 q 713 1239 687 1239 q 788 1250 756 1239 q 851 1286 820 1261 l 851 1194 q 791 1160 825 1171 q 710 1149 758 1149 m 399 1363 q 333 1382 356 1363 q 310 1438 310 1402 q 333 1493 310 1473 q 399 1513 356 1513 q 464 1493 442 1513 q 487 1438 487 1473 q 464 1382 487 1402 q 399 1363 442 1363 m 779 1363 q 714 1382 736 1363 q 691 1438 691 1402 q 714 1493 691 1473 q 779 1513 736 1513 q 845 1493 822 1513 q 867 1438 867 1473 q 845 1382 867 1402 q 779 1363 822 1363 z "},"Ȭ":{"ha":1178,"x_min":81,"x_max":1097,"o":"m 589 -13 q 320 46 434 -13 q 143 223 206 105 q 81 514 81 341 q 144 805 81 687 q 321 982 207 923 q 589 1041 435 1041 q 858 982 744 1041 q 1034 805 972 923 q 1097 514 1097 686 q 1034 224 1097 342 q 857 46 971 106 q 589 -13 743 -13 m 589 115 q 844 212 753 115 q 935 510 935 309 q 844 814 935 715 q 589 913 753 913 q 334 816 426 913 q 242 518 242 719 q 333 213 242 311 q 589 115 424 115 m 710 1149 q 648 1156 677 1149 q 578 1176 619 1163 q 516 1194 541 1188 q 465 1200 491 1200 q 390 1189 422 1200 q 326 1153 358 1177 l 326 1244 q 387 1279 353 1268 q 467 1290 421 1290 q 530 1283 501 1290 q 600 1263 559 1276 q 662 1245 637 1251 q 713 1239 687 1239 q 788 1250 756 1239 q 851 1286 820 1261 l 851 1194 q 791 1160 825 1171 q 710 1149 758 1149 m 342 1390 l 342 1483 l 836 1483 l 836 1390 l 342 1390 z "},"Œ":{"ha":1625,"x_min":81,"x_max":1556,"o":"m 1556 122 l 1556 0 l 953 0 q 824 -4 915 0 q 697 -8 734 -8 q 233 119 385 -8 q 81 514 81 246 q 688 1038 81 1038 q 814 1033 738 1038 q 870 1030 828 1032 q 944 1028 912 1028 l 1549 1028 l 1549 906 l 985 906 l 985 588 l 1478 588 l 1478 465 l 985 465 l 985 122 l 1556 122 m 830 901 q 660 909 744 909 q 346 812 450 909 q 242 513 242 715 q 346 216 242 312 q 660 120 450 120 q 830 126 769 120 l 830 901 z "},"P":{"ha":970,"x_min":127,"x_max":904,"o":"m 127 1008 q 282 1031 207 1024 q 442 1039 358 1039 q 789 952 673 1039 q 904 683 904 866 q 433 324 904 324 q 284 331 372 324 l 284 0 l 127 0 l 127 1008 m 434 441 q 616 467 547 441 q 718 546 685 493 q 750 683 750 599 q 677 865 750 808 q 454 923 604 923 q 284 909 363 923 l 284 451 q 434 441 353 441 z "},"Þ":{"ha":977,"x_min":127,"x_max":904,"o":"m 127 1028 l 284 1028 l 284 873 q 444 885 367 885 q 789 798 674 885 q 904 529 904 712 q 789 261 904 352 q 434 171 673 171 q 284 177 363 171 l 284 0 l 127 0 l 127 1028 m 434 287 q 616 313 547 287 q 718 392 685 339 q 750 528 750 445 q 677 711 750 653 q 454 769 604 769 q 284 755 363 769 l 284 296 q 434 287 356 287 z "},"Q":{"ha":1178,"x_min":81,"x_max":1097,"o":"m 1097 514 q 992 156 1097 288 q 686 2 888 23 q 1081 -60 849 -39 l 1059 -183 q 469 -53 683 -140 q 168 170 256 35 q 81 508 81 306 q 144 803 81 684 q 320 982 206 922 q 589 1041 435 1041 q 858 983 744 1041 q 1034 806 972 924 q 1097 514 1097 688 m 242 518 q 333 213 242 310 q 589 115 423 115 q 844 212 753 115 q 935 510 935 309 q 844 814 935 715 q 589 913 753 913 q 334 816 426 913 q 242 518 242 719 z "},"R":{"ha":1024,"x_min":127,"x_max":985,"o":"m 808 0 l 481 410 q 442 409 468 409 q 281 416 374 409 l 281 0 l 127 0 l 127 1003 q 453 1039 285 1039 q 792 964 681 1039 q 902 726 902 890 q 836 533 902 608 q 640 428 769 458 l 985 0 l 808 0 m 281 534 q 364 527 328 529 q 449 525 400 525 q 681 573 608 525 q 754 724 754 622 q 724 841 754 797 q 630 904 694 885 q 463 924 567 924 q 369 919 411 924 q 281 907 328 915 l 281 534 z "},"Ŕ":{"ha":1024,"x_min":127,"x_max":985,"o":"m 808 0 l 481 410 q 442 409 468 409 q 281 416 374 409 l 281 0 l 127 0 l 127 1003 q 453 1039 285 1039 q 792 964 681 1039 q 902 726 902 890 q 836 533 902 608 q 640 428 769 458 l 985 0 l 808 0 m 281 534 q 364 527 328 529 q 449 525 400 525 q 681 573 608 525 q 754 724 754 622 q 724 841 754 797 q 630 904 694 885 q 463 924 567 924 q 369 919 411 924 q 281 907 328 915 l 281 534 m 430 1114 l 579 1315 l 747 1315 l 574 1114 l 430 1114 z "},"Ř":{"ha":1024,"x_min":127,"x_max":985,"o":"m 808 0 l 481 410 q 442 409 468 409 q 281 416 374 409 l 281 0 l 127 0 l 127 1003 q 453 1039 285 1039 q 792 964 681 1039 q 902 726 902 890 q 836 533 902 608 q 640 428 769 458 l 985 0 l 808 0 m 281 534 q 364 527 328 529 q 449 525 400 525 q 681 573 608 525 q 754 724 754 622 q 724 841 754 797 q 630 904 694 885 q 463 924 567 924 q 369 919 411 924 q 281 907 328 915 l 281 534 m 644 1315 l 781 1315 l 571 1114 l 435 1114 l 224 1315 l 362 1315 l 503 1177 l 644 1315 z "},"Ŗ":{"ha":1024,"x_min":127,"x_max":985,"o":"m 808 0 l 481 410 q 442 409 468 409 q 281 416 374 409 l 281 0 l 127 0 l 127 1003 q 453 1039 285 1039 q 792 964 681 1039 q 902 726 902 890 q 836 533 902 608 q 640 428 769 458 l 985 0 l 808 0 m 281 534 q 364 527 328 529 q 449 525 400 525 q 681 573 608 525 q 754 724 754 622 q 724 841 754 797 q 630 904 694 885 q 463 924 567 924 q 369 919 411 924 q 281 907 328 915 l 281 534 m 527 -106 q 622 -191 622 -106 q 610 -261 622 -224 q 577 -331 598 -299 l 483 -331 q 515 -232 508 -276 q 455 -214 474 -230 q 435 -169 435 -197 q 458 -123 435 -140 q 527 -106 481 -106 z "},"Ȑ":{"ha":1024,"x_min":127,"x_max":985,"o":"m 808 0 l 481 410 q 442 409 468 409 q 281 416 374 409 l 281 0 l 127 0 l 127 1003 q 453 1039 285 1039 q 792 964 681 1039 q 902 726 902 890 q 836 533 902 608 q 640 428 769 458 l 985 0 l 808 0 m 281 534 q 364 527 328 529 q 449 525 400 525 q 681 573 608 525 q 754 724 754 622 q 724 841 754 797 q 630 904 694 885 q 463 924 567 924 q 369 919 411 924 q 281 907 328 915 l 281 534 m 310 1114 l 189 1315 l 314 1315 l 426 1114 l 310 1114 m 580 1114 l 459 1315 l 584 1315 l 696 1114 l 580 1114 z "},"Ṛ":{"ha":1024,"x_min":127,"x_max":985,"o":"m 808 0 l 481 410 q 442 409 468 409 q 281 416 374 409 l 281 0 l 127 0 l 127 1003 q 453 1039 285 1039 q 792 964 681 1039 q 902 726 902 890 q 836 533 902 608 q 640 428 769 458 l 985 0 l 808 0 m 281 534 q 364 527 328 529 q 449 525 400 525 q 681 573 608 525 q 754 724 754 622 q 724 841 754 797 q 630 904 694 885 q 463 924 567 924 q 369 919 411 924 q 281 907 328 915 l 281 534 m 528 -257 q 455 -237 480 -257 q 430 -182 430 -217 q 455 -127 430 -147 q 528 -106 480 -106 q 602 -127 577 -106 q 627 -182 627 -147 q 602 -237 627 -217 q 528 -257 577 -257 z "},"Ȓ":{"ha":1024,"x_min":127,"x_max":985,"o":"m 808 0 l 481 410 q 442 409 468 409 q 281 416 374 409 l 281 0 l 127 0 l 127 1003 q 453 1039 285 1039 q 792 964 681 1039 q 902 726 902 890 q 836 533 902 608 q 640 428 769 458 l 985 0 l 808 0 m 281 534 q 364 527 328 529 q 449 525 400 525 q 681 573 608 525 q 754 724 754 622 q 724 841 754 797 q 630 904 694 885 q 463 924 567 924 q 369 919 411 924 q 281 907 328 915 l 281 534 m 235 1126 q 313 1259 247 1208 q 502 1310 378 1310 q 692 1259 626 1310 q 770 1126 759 1208 l 671 1126 q 621 1201 660 1174 q 502 1228 581 1228 q 384 1202 423 1228 q 335 1126 345 1175 l 235 1126 z "},"Ṟ":{"ha":1024,"x_min":127,"x_max":985,"o":"m 808 0 l 481 410 q 442 409 468 409 q 281 416 374 409 l 281 0 l 127 0 l 127 1003 q 453 1039 285 1039 q 792 964 681 1039 q 902 726 902 890 q 836 533 902 608 q 640 428 769 458 l 985 0 l 808 0 m 281 534 q 364 527 328 529 q 449 525 400 525 q 681 573 608 525 q 754 724 754 622 q 724 841 754 797 q 630 904 694 885 q 463 924 567 924 q 369 919 411 924 q 281 907 328 915 l 281 534 m 281 -226 l 281 -133 l 776 -133 l 776 -226 l 281 -226 z "},"S":{"ha":862,"x_min":60,"x_max":801,"o":"m 383 -13 q 80 33 221 -13 l 80 161 q 232 125 151 138 q 385 113 314 113 q 582 155 519 113 q 645 281 645 198 q 625 358 645 328 q 559 408 604 388 q 435 444 514 428 l 366 458 q 133 558 206 489 q 60 744 60 628 q 168 963 60 885 q 483 1041 275 1041 q 752 1006 629 1041 l 752 877 q 623 905 692 895 q 485 915 554 915 q 217 750 217 915 q 235 674 217 704 q 294 624 253 644 q 406 589 335 603 l 476 576 q 664 515 592 553 q 769 421 736 476 q 801 289 801 365 q 752 126 801 194 q 609 22 703 58 q 383 -13 515 -13 z "},"Ś":{"ha":862,"x_min":60,"x_max":801,"o":"m 383 -13 q 80 33 221 -13 l 80 161 q 232 125 151 138 q 385 113 314 113 q 582 155 519 113 q 645 281 645 198 q 625 358 645 328 q 559 408 604 388 q 435 444 514 428 l 366 458 q 133 558 206 489 q 60 744 60 628 q 168 963 60 885 q 483 1041 275 1041 q 752 1006 629 1041 l 752 877 q 623 905 692 895 q 485 915 554 915 q 217 750 217 915 q 235 674 217 704 q 294 624 253 644 q 406 589 335 603 l 476 576 q 664 515 592 553 q 769 421 736 476 q 801 289 801 365 q 752 126 801 194 q 609 22 703 58 q 383 -13 515 -13 m 365 1114 l 515 1315 l 683 1315 l 509 1114 l 365 1114 z "},"Ṥ":{"ha":862,"x_min":60,"x_max":801,"o":"m 383 -13 q 80 33 221 -13 l 80 161 q 232 125 151 138 q 385 113 314 113 q 582 155 519 113 q 645 281 645 198 q 625 358 645 328 q 559 408 604 388 q 435 444 514 428 l 366 458 q 133 558 206 489 q 60 744 60 628 q 168 963 60 885 q 483 1041 275 1041 q 752 1006 629 1041 l 752 877 q 623 905 692 895 q 485 915 554 915 q 217 750 217 915 q 235 674 217 704 q 294 624 253 644 q 406 589 335 603 l 476 576 q 664 515 592 553 q 769 421 736 476 q 801 289 801 365 q 752 126 801 194 q 609 22 703 58 q 383 -13 515 -13 m 340 1287 q 277 1305 299 1287 q 256 1352 256 1322 q 277 1400 256 1383 q 340 1418 299 1418 q 403 1400 382 1418 q 424 1352 424 1383 q 403 1305 424 1322 q 340 1287 382 1287 m 365 1114 l 515 1315 l 683 1315 l 509 1114 l 365 1114 z "},"Š":{"ha":862,"x_min":60,"x_max":801,"o":"m 383 -13 q 80 33 221 -13 l 80 161 q 232 125 151 138 q 385 113 314 113 q 582 155 519 113 q 645 281 645 198 q 625 358 645 328 q 559 408 604 388 q 435 444 514 428 l 366 458 q 133 558 206 489 q 60 744 60 628 q 168 963 60 885 q 483 1041 275 1041 q 752 1006 629 1041 l 752 877 q 623 905 692 895 q 485 915 554 915 q 217 750 217 915 q 235 674 217 704 q 294 624 253 644 q 406 589 335 603 l 476 576 q 664 515 592 553 q 769 421 736 476 q 801 289 801 365 q 752 126 801 194 q 609 22 703 58 q 383 -13 515 -13 m 579 1315 l 717 1315 l 506 1114 l 370 1114 l 160 1315 l 297 1315 l 438 1177 l 579 1315 z "},"Ṧ":{"ha":862,"x_min":60,"x_max":801,"o":"m 383 -13 q 80 33 221 -13 l 80 161 q 232 125 151 138 q 385 113 314 113 q 582 155 519 113 q 645 281 645 198 q 625 358 645 328 q 559 408 604 388 q 435 444 514 428 l 366 458 q 133 558 206 489 q 60 744 60 628 q 168 963 60 885 q 483 1041 275 1041 q 752 1006 629 1041 l 752 877 q 623 905 692 895 q 485 915 554 915 q 217 750 217 915 q 235 674 217 704 q 294 624 253 644 q 406 589 335 603 l 476 576 q 664 515 592 553 q 769 421 736 476 q 801 289 801 365 q 752 126 801 194 q 609 22 703 58 q 383 -13 515 -13 m 438 1326 q 375 1343 397 1326 q 354 1391 354 1361 q 375 1439 354 1422 q 438 1457 397 1457 q 501 1439 480 1457 q 522 1391 522 1422 q 501 1343 522 1361 q 438 1326 480 1326 m 579 1315 l 717 1315 l 506 1114 l 370 1114 l 160 1315 l 297 1315 l 438 1177 l 579 1315 z "},"Ş":{"ha":862,"x_min":60,"x_max":801,"o":"m 801 289 q 715 85 801 163 q 470 -9 628 8 l 470 -67 q 570 -101 535 -72 q 604 -179 604 -130 q 559 -264 604 -235 q 431 -294 514 -294 q 283 -268 350 -294 l 283 -203 q 425 -230 354 -230 q 496 -217 472 -230 q 520 -175 520 -203 q 496 -133 520 -146 q 424 -119 472 -119 l 392 -119 l 392 -13 l 383 -13 q 80 33 221 -13 l 80 161 q 232 125 151 138 q 385 113 314 113 q 582 155 519 113 q 645 281 645 198 q 625 358 645 328 q 559 408 604 388 q 435 444 514 428 l 366 458 q 133 558 206 489 q 60 744 60 628 q 168 963 60 885 q 483 1041 275 1041 q 752 1006 629 1041 l 752 877 q 623 905 692 895 q 485 915 554 915 q 217 750 217 915 q 235 674 217 704 q 294 624 253 644 q 406 589 335 603 l 476 576 q 664 515 592 553 q 769 421 736 476 q 801 289 801 365 z "},"Ŝ":{"ha":862,"x_min":60,"x_max":801,"o":"m 383 -13 q 80 33 221 -13 l 80 161 q 232 125 151 138 q 385 113 314 113 q 582 155 519 113 q 645 281 645 198 q 625 358 645 328 q 559 408 604 388 q 435 444 514 428 l 366 458 q 133 558 206 489 q 60 744 60 628 q 168 963 60 885 q 483 1041 275 1041 q 752 1006 629 1041 l 752 877 q 623 905 692 895 q 485 915 554 915 q 217 750 217 915 q 235 674 217 704 q 294 624 253 644 q 406 589 335 603 l 476 576 q 664 515 592 553 q 769 421 736 476 q 801 289 801 365 q 752 126 801 194 q 609 22 703 58 q 383 -13 515 -13 m 717 1114 l 579 1114 l 438 1252 l 297 1114 l 160 1114 l 370 1315 l 506 1315 l 717 1114 z "},"Ș":{"ha":862,"x_min":60,"x_max":801,"o":"m 383 -13 q 80 33 221 -13 l 80 161 q 232 125 151 138 q 385 113 314 113 q 582 155 519 113 q 645 281 645 198 q 625 358 645 328 q 559 408 604 388 q 435 444 514 428 l 366 458 q 133 558 206 489 q 60 744 60 628 q 168 963 60 885 q 483 1041 275 1041 q 752 1006 629 1041 l 752 877 q 623 905 692 895 q 485 915 554 915 q 217 750 217 915 q 235 674 217 704 q 294 624 253 644 q 406 589 335 603 l 476 576 q 664 515 592 553 q 769 421 736 476 q 801 289 801 365 q 752 126 801 194 q 609 22 703 58 q 383 -13 515 -13 m 437 -106 q 531 -191 531 -106 q 519 -261 531 -224 q 487 -331 508 -299 l 392 -331 q 424 -232 418 -276 q 365 -214 384 -230 q 345 -169 345 -197 q 368 -123 345 -140 q 437 -106 391 -106 z "},"Ṡ":{"ha":862,"x_min":60,"x_max":801,"o":"m 383 -13 q 80 33 221 -13 l 80 161 q 232 125 151 138 q 385 113 314 113 q 582 155 519 113 q 645 281 645 198 q 625 358 645 328 q 559 408 604 388 q 435 444 514 428 l 366 458 q 133 558 206 489 q 60 744 60 628 q 168 963 60 885 q 483 1041 275 1041 q 752 1006 629 1041 l 752 877 q 623 905 692 895 q 485 915 554 915 q 217 750 217 915 q 235 674 217 704 q 294 624 253 644 q 406 589 335 603 l 476 576 q 664 515 592 553 q 769 421 736 476 q 801 289 801 365 q 752 126 801 194 q 609 22 703 58 q 383 -13 515 -13 m 438 1141 q 365 1161 390 1141 q 340 1216 340 1181 q 364 1272 340 1251 q 438 1292 389 1292 q 512 1272 488 1292 q 537 1216 537 1251 q 512 1161 537 1181 q 438 1141 487 1141 z "},"Ṣ":{"ha":862,"x_min":60,"x_max":801,"o":"m 383 -13 q 80 33 221 -13 l 80 161 q 232 125 151 138 q 385 113 314 113 q 582 155 519 113 q 645 281 645 198 q 625 358 645 328 q 559 408 604 388 q 435 444 514 428 l 366 458 q 133 558 206 489 q 60 744 60 628 q 168 963 60 885 q 483 1041 275 1041 q 752 1006 629 1041 l 752 877 q 623 905 692 895 q 485 915 554 915 q 217 750 217 915 q 235 674 217 704 q 294 624 253 644 q 406 589 335 603 l 476 576 q 664 515 592 553 q 769 421 736 476 q 801 289 801 365 q 752 126 801 194 q 609 22 703 58 q 383 -13 515 -13 m 438 -257 q 365 -237 390 -257 q 340 -182 340 -217 q 365 -127 340 -147 q 438 -106 390 -106 q 512 -127 487 -106 q 537 -182 537 -147 q 512 -237 537 -217 q 438 -257 487 -257 z "},"Ṩ":{"ha":862,"x_min":60,"x_max":801,"o":"m 383 -13 q 80 33 221 -13 l 80 161 q 232 125 151 138 q 385 113 314 113 q 582 155 519 113 q 645 281 645 198 q 625 358 645 328 q 559 408 604 388 q 435 444 514 428 l 366 458 q 133 558 206 489 q 60 744 60 628 q 168 963 60 885 q 483 1041 275 1041 q 752 1006 629 1041 l 752 877 q 623 905 692 895 q 485 915 554 915 q 217 750 217 915 q 235 674 217 704 q 294 624 253 644 q 406 589 335 603 l 476 576 q 664 515 592 553 q 769 421 736 476 q 801 289 801 365 q 752 126 801 194 q 609 22 703 58 q 383 -13 515 -13 m 438 -257 q 365 -237 390 -257 q 340 -182 340 -217 q 365 -127 340 -147 q 438 -106 390 -106 q 512 -127 487 -106 q 537 -182 537 -147 q 512 -237 537 -217 q 438 -257 487 -257 m 438 1141 q 365 1161 390 1141 q 340 1216 340 1181 q 364 1272 340 1251 q 438 1292 389 1292 q 512 1272 488 1292 q 537 1216 537 1251 q 512 1161 537 1181 q 438 1141 487 1141 z "},"ẞ":{"ha":1363,"x_min":127,"x_max":1302,"o":"m 983 576 q 1168 514 1097 553 q 1270 420 1238 476 q 1302 289 1302 365 q 1253 126 1302 194 q 1113 22 1205 58 q 891 -13 1021 -13 q 741 -2 816 -13 q 597 31 665 10 l 597 160 q 745 125 665 137 q 890 113 824 113 q 1086 155 1024 113 q 1148 281 1148 198 q 1128 358 1148 328 q 1064 409 1108 389 q 944 444 1020 429 l 877 458 q 649 558 721 489 q 578 744 578 628 q 628 908 578 842 q 556 915 594 915 q 351 847 417 915 q 284 635 284 778 l 284 0 l 127 0 l 127 617 q 233 935 127 830 q 556 1041 338 1041 q 763 1006 674 1041 q 994 1041 858 1041 q 1254 1006 1136 1041 l 1254 878 q 1128 906 1195 896 q 998 915 1062 915 q 732 750 732 915 q 749 674 732 704 q 807 623 767 643 q 916 589 847 603 l 983 576 z "},"Ə":{"ha":1169,"x_min":74,"x_max":1088,"o":"m 461 1041 q 928 911 769 1041 q 1088 508 1088 781 q 1027 219 1088 335 q 855 44 967 102 q 591 -13 744 -13 q 316 44 432 -13 q 138 218 201 102 q 74 506 74 334 l 74 567 l 931 567 q 792 832 913 749 q 453 914 672 914 q 295 905 378 914 q 140 878 213 896 l 140 1006 q 461 1041 287 1041 m 593 109 q 833 191 745 109 q 932 451 920 272 l 236 451 q 338 191 248 273 q 593 109 428 109 z "},"T":{"ha":942,"x_min":15,"x_max":927,"o":"m 392 0 l 392 901 l 15 901 l 15 1028 l 927 1028 l 927 901 l 549 901 l 549 0 l 392 0 z "},"Ŧ":{"ha":942,"x_min":15,"x_max":927,"o":"m 927 901 l 549 901 l 549 579 l 798 579 l 798 478 l 549 478 l 549 0 l 392 0 l 392 478 l 144 478 l 144 579 l 392 579 l 392 901 l 15 901 l 15 1028 l 927 1028 l 927 901 z "},"Ť":{"ha":942,"x_min":15,"x_max":927,"o":"m 392 0 l 392 901 l 15 901 l 15 1028 l 927 1028 l 927 901 l 549 901 l 549 0 l 392 0 m 612 1315 l 749 1315 l 539 1114 l 403 1114 l 192 1315 l 330 1315 l 471 1177 l 612 1315 z "},"Ţ":{"ha":942,"x_min":15,"x_max":927,"o":"m 503 0 l 503 -67 q 602 -101 568 -72 q 637 -179 637 -130 q 592 -264 637 -235 q 463 -294 547 -294 q 316 -268 383 -294 l 316 -203 q 458 -230 387 -230 q 529 -217 505 -230 q 553 -175 553 -203 q 529 -133 553 -146 q 457 -119 505 -119 l 424 -119 l 424 0 l 392 0 l 392 901 l 15 901 l 15 1028 l 927 1028 l 927 901 l 549 901 l 549 0 l 503 0 z "},"Ț":{"ha":942,"x_min":15,"x_max":927,"o":"m 392 0 l 392 901 l 15 901 l 15 1028 l 927 1028 l 927 901 l 549 901 l 549 0 l 392 0 m 469 -106 q 564 -191 564 -106 q 552 -261 564 -224 q 519 -331 540 -299 l 425 -331 q 457 -232 451 -276 q 397 -214 417 -230 q 378 -169 378 -197 q 401 -123 378 -140 q 469 -106 424 -106 z "},"Ṭ":{"ha":942,"x_min":15,"x_max":927,"o":"m 392 0 l 392 901 l 15 901 l 15 1028 l 927 1028 l 927 901 l 549 901 l 549 0 l 392 0 m 471 -257 q 397 -237 422 -257 q 372 -182 372 -217 q 397 -127 372 -147 q 471 -106 422 -106 q 544 -127 519 -106 q 569 -182 569 -147 q 544 -237 569 -217 q 471 -257 519 -257 z "},"Ṯ":{"ha":942,"x_min":15,"x_max":927,"o":"m 392 0 l 392 901 l 15 901 l 15 1028 l 927 1028 l 927 901 l 549 901 l 549 0 l 392 0 m 224 -226 l 224 -133 l 718 -133 l 718 -226 l 224 -226 z "},"U":{"ha":1131,"x_min":122,"x_max":1008,"o":"m 567 -13 q 230 95 338 -13 q 122 428 122 204 l 122 1028 l 279 1028 l 279 413 q 349 188 279 258 q 567 117 419 117 q 784 188 714 117 q 854 413 854 258 l 854 1028 l 1008 1028 l 1008 428 q 901 95 1008 204 q 567 -13 794 -13 z "},"Ú":{"ha":1131,"x_min":122,"x_max":1008,"o":"m 567 -13 q 230 95 338 -13 q 122 428 122 204 l 122 1028 l 279 1028 l 279 413 q 349 188 279 258 q 567 117 419 117 q 784 188 714 117 q 854 413 854 258 l 854 1028 l 1008 1028 l 1008 428 q 901 95 1008 204 q 567 -13 794 -13 m 494 1114 l 643 1315 l 811 1315 l 638 1114 l 494 1114 z "},"Ŭ":{"ha":1131,"x_min":122,"x_max":1008,"o":"m 567 -13 q 230 95 338 -13 q 122 428 122 204 l 122 1028 l 279 1028 l 279 413 q 349 188 279 258 q 567 117 419 117 q 784 188 714 117 q 854 413 854 258 l 854 1028 l 1008 1028 l 1008 428 q 901 95 1008 204 q 567 -13 794 -13 m 567 1119 q 377 1170 444 1119 q 299 1303 310 1221 l 399 1303 q 449 1227 409 1254 q 567 1201 488 1201 q 685 1227 647 1201 q 735 1303 724 1254 l 834 1303 q 757 1170 823 1220 q 567 1119 692 1119 z "},"Û":{"ha":1131,"x_min":122,"x_max":1008,"o":"m 567 -13 q 230 95 338 -13 q 122 428 122 204 l 122 1028 l 279 1028 l 279 413 q 349 188 279 258 q 567 117 419 117 q 784 188 714 117 q 854 413 854 258 l 854 1028 l 1008 1028 l 1008 428 q 901 95 1008 204 q 567 -13 794 -13 m 845 1114 l 708 1114 l 567 1252 l 426 1114 l 288 1114 l 499 1315 l 635 1315 l 845 1114 z "},"Ȕ":{"ha":1131,"x_min":122,"x_max":1008,"o":"m 567 -13 q 230 95 338 -13 q 122 428 122 204 l 122 1028 l 279 1028 l 279 413 q 349 188 279 258 q 567 117 419 117 q 784 188 714 117 q 854 413 854 258 l 854 1028 l 1008 1028 l 1008 428 q 901 95 1008 204 q 567 -13 794 -13 m 374 1114 l 253 1315 l 378 1315 l 490 1114 l 374 1114 m 644 1114 l 523 1315 l 648 1315 l 760 1114 l 644 1114 z "},"Ü":{"ha":1131,"x_min":122,"x_max":1008,"o":"m 567 -13 q 230 95 338 -13 q 122 428 122 204 l 122 1028 l 279 1028 l 279 413 q 349 188 279 258 q 567 117 419 117 q 784 188 714 117 q 854 413 854 258 l 854 1028 l 1008 1028 l 1008 428 q 901 95 1008 204 q 567 -13 794 -13 m 376 1141 q 311 1161 333 1141 q 288 1216 288 1181 q 311 1272 288 1251 q 376 1292 333 1292 q 442 1272 419 1292 q 465 1216 465 1251 q 442 1161 465 1181 q 376 1141 419 1141 m 757 1141 q 691 1161 714 1141 q 669 1216 669 1181 q 691 1272 669 1251 q 757 1292 714 1292 q 823 1272 800 1292 q 845 1216 845 1251 q 823 1161 845 1181 q 757 1141 800 1141 z "},"Ụ":{"ha":1131,"x_min":122,"x_max":1008,"o":"m 567 -13 q 230 95 338 -13 q 122 428 122 204 l 122 1028 l 279 1028 l 279 413 q 349 188 279 258 q 567 117 419 117 q 784 188 714 117 q 854 413 854 258 l 854 1028 l 1008 1028 l 1008 428 q 901 95 1008 204 q 567 -13 794 -13 m 567 -257 q 493 -237 518 -257 q 468 -182 468 -217 q 493 -127 468 -147 q 567 -106 518 -106 q 640 -127 615 -106 q 665 -182 665 -147 q 640 -237 665 -217 q 567 -257 615 -257 z "},"Ù":{"ha":1131,"x_min":122,"x_max":1008,"o":"m 567 -13 q 230 95 338 -13 q 122 428 122 204 l 122 1028 l 279 1028 l 279 413 q 349 188 279 258 q 567 117 419 117 q 784 188 714 117 q 854 413 854 258 l 854 1028 l 1008 1028 l 1008 428 q 901 95 1008 204 q 567 -13 794 -13 m 494 1114 l 321 1315 l 490 1315 l 639 1114 l 494 1114 z "},"Ủ":{"ha":1131,"x_min":122,"x_max":1008,"o":"m 567 -13 q 230 95 338 -13 q 122 428 122 204 l 122 1028 l 279 1028 l 279 413 q 349 188 279 258 q 567 117 419 117 q 784 188 714 117 q 854 413 854 258 l 854 1028 l 1008 1028 l 1008 428 q 901 95 1008 204 q 567 -13 794 -13 m 523 1114 q 535 1148 524 1134 q 561 1170 547 1162 q 601 1188 576 1178 q 639 1207 626 1199 q 651 1228 651 1215 q 631 1251 651 1243 q 565 1258 611 1258 q 491 1254 524 1258 q 417 1238 458 1249 l 417 1301 q 574 1322 483 1322 q 696 1300 656 1322 q 736 1237 736 1277 q 726 1202 736 1216 q 701 1178 715 1188 q 663 1158 687 1169 q 624 1138 638 1147 q 610 1114 611 1128 l 523 1114 z "},"Ư":{"ha":1131,"x_min":122,"x_max":1165,"o":"m 567 -13 q 230 95 338 -13 q 122 428 122 204 l 122 1028 l 279 1028 l 279 413 q 349 188 279 258 q 567 117 419 117 q 784 188 714 117 q 854 413 854 258 l 854 1028 l 906 1028 q 1020 1053 983 1028 q 1058 1135 1058 1078 q 1054 1182 1058 1160 q 1043 1233 1051 1203 l 1149 1233 q 1162 1184 1158 1207 q 1165 1131 1165 1160 q 1125 1013 1165 1058 q 1008 956 1084 967 l 1008 428 q 901 95 1008 204 q 567 -13 794 -13 z "},"Ứ":{"ha":1131,"x_min":122,"x_max":1165,"o":"m 567 -13 q 230 95 338 -13 q 122 428 122 204 l 122 1028 l 279 1028 l 279 413 q 349 188 279 258 q 567 117 419 117 q 784 188 714 117 q 854 413 854 258 l 854 1028 l 906 1028 q 1020 1053 983 1028 q 1058 1135 1058 1078 q 1054 1182 1058 1160 q 1043 1233 1051 1203 l 1149 1233 q 1162 1184 1158 1207 q 1165 1131 1165 1160 q 1125 1013 1165 1058 q 1008 956 1084 967 l 1008 428 q 901 95 1008 204 q 567 -13 794 -13 m 492 1114 l 642 1315 l 810 1315 l 636 1114 l 492 1114 z "},"Ự":{"ha":1131,"x_min":122,"x_max":1165,"o":"m 567 -13 q 230 95 338 -13 q 122 428 122 204 l 122 1028 l 279 1028 l 279 413 q 349 188 279 258 q 567 117 419 117 q 784 188 714 117 q 854 413 854 258 l 854 1028 l 906 1028 q 1020 1053 983 1028 q 1058 1135 1058 1078 q 1054 1182 1058 1160 q 1043 1233 1051 1203 l 1149 1233 q 1162 1184 1158 1207 q 1165 1131 1165 1160 q 1125 1013 1165 1058 q 1008 956 1084 967 l 1008 428 q 901 95 1008 204 q 567 -13 794 -13 m 565 -257 q 492 -237 517 -257 q 467 -182 467 -217 q 492 -127 467 -147 q 565 -106 517 -106 q 639 -127 614 -106 q 664 -182 664 -147 q 639 -237 664 -217 q 565 -257 614 -257 z "},"Ừ":{"ha":1131,"x_min":122,"x_max":1165,"o":"m 567 -13 q 230 95 338 -13 q 122 428 122 204 l 122 1028 l 279 1028 l 279 413 q 349 188 279 258 q 567 117 419 117 q 784 188 714 117 q 854 413 854 258 l 854 1028 l 906 1028 q 1020 1053 983 1028 q 1058 1135 1058 1078 q 1054 1182 1058 1160 q 1043 1233 1051 1203 l 1149 1233 q 1162 1184 1158 1207 q 1165 1131 1165 1160 q 1125 1013 1165 1058 q 1008 956 1084 967 l 1008 428 q 901 95 1008 204 q 567 -13 794 -13 m 493 1114 l 319 1315 l 488 1315 l 638 1114 l 493 1114 z "},"Ử":{"ha":1131,"x_min":122,"x_max":1165,"o":"m 567 -13 q 230 95 338 -13 q 122 428 122 204 l 122 1028 l 279 1028 l 279 413 q 349 188 279 258 q 567 117 419 117 q 784 188 714 117 q 854 413 854 258 l 854 1028 l 906 1028 q 1020 1053 983 1028 q 1058 1135 1058 1078 q 1054 1182 1058 1160 q 1043 1233 1051 1203 l 1149 1233 q 1162 1184 1158 1207 q 1165 1131 1165 1160 q 1125 1013 1165 1058 q 1008 956 1084 967 l 1008 428 q 901 95 1008 204 q 567 -13 794 -13 m 522 1114 q 534 1148 522 1134 q 560 1170 545 1162 q 599 1188 575 1178 q 637 1207 625 1199 q 649 1228 649 1215 q 630 1251 649 1243 q 563 1258 610 1258 q 489 1254 522 1258 q 416 1238 456 1249 l 416 1301 q 572 1322 482 1322 q 695 1300 655 1322 q 735 1237 735 1277 q 724 1202 735 1216 q 700 1178 714 1188 q 662 1158 685 1169 q 623 1138 636 1147 q 608 1114 610 1128 l 522 1114 z "},"Ữ":{"ha":1131,"x_min":122,"x_max":1165,"o":"m 567 -13 q 230 95 338 -13 q 122 428 122 204 l 122 1028 l 279 1028 l 279 413 q 349 188 279 258 q 567 117 419 117 q 784 188 714 117 q 854 413 854 258 l 854 1028 l 906 1028 q 1020 1053 983 1028 q 1058 1135 1058 1078 q 1054 1182 1058 1160 q 1043 1233 1051 1203 l 1149 1233 q 1162 1184 1158 1207 q 1165 1131 1165 1160 q 1125 1013 1165 1058 q 1008 956 1084 967 l 1008 428 q 901 95 1008 204 q 567 -13 794 -13 m 687 1149 q 624 1156 653 1149 q 554 1176 595 1163 q 492 1194 517 1188 q 441 1200 467 1200 q 366 1189 399 1200 q 303 1153 334 1177 l 303 1244 q 363 1279 329 1268 q 444 1290 397 1290 q 506 1283 477 1290 q 576 1263 535 1276 q 638 1245 613 1251 q 690 1239 663 1239 q 764 1250 732 1239 q 828 1286 797 1261 l 828 1194 q 768 1160 801 1171 q 687 1149 734 1149 z "},"Ű":{"ha":1131,"x_min":122,"x_max":1008,"o":"m 567 -13 q 230 95 338 -13 q 122 428 122 204 l 122 1028 l 279 1028 l 279 413 q 349 188 279 258 q 567 117 419 117 q 784 188 714 117 q 854 413 854 258 l 854 1028 l 1008 1028 l 1008 428 q 901 95 1008 204 q 567 -13 794 -13 m 374 1114 l 485 1315 l 610 1315 l 490 1114 l 374 1114 m 644 1114 l 756 1315 l 881 1315 l 760 1114 l 644 1114 z "},"Ȗ":{"ha":1131,"x_min":122,"x_max":1008,"o":"m 567 -13 q 230 95 338 -13 q 122 428 122 204 l 122 1028 l 279 1028 l 279 413 q 349 188 279 258 q 567 117 419 117 q 784 188 714 117 q 854 413 854 258 l 854 1028 l 1008 1028 l 1008 428 q 901 95 1008 204 q 567 -13 794 -13 m 299 1126 q 376 1259 310 1208 q 566 1310 442 1310 q 756 1259 690 1310 q 834 1126 823 1208 l 735 1126 q 685 1201 724 1174 q 566 1228 645 1228 q 448 1202 487 1228 q 399 1126 409 1175 l 299 1126 z "},"Ū":{"ha":1131,"x_min":122,"x_max":1008,"o":"m 567 -13 q 230 95 338 -13 q 122 428 122 204 l 122 1028 l 279 1028 l 279 413 q 349 188 279 258 q 567 117 419 117 q 784 188 714 117 q 854 413 854 258 l 854 1028 l 1008 1028 l 1008 428 q 901 95 1008 204 q 567 -13 794 -13 m 319 1168 l 319 1261 l 814 1261 l 814 1168 l 319 1168 z "},"Ṻ":{"ha":1131,"x_min":122,"x_max":1008,"o":"m 567 -13 q 230 95 338 -13 q 122 428 122 204 l 122 1028 l 279 1028 l 279 413 q 349 188 279 258 q 567 117 419 117 q 784 188 714 117 q 854 413 854 258 l 854 1028 l 1008 1028 l 1008 428 q 901 95 1008 204 q 567 -13 794 -13 m 319 1168 l 319 1261 l 814 1261 l 814 1168 l 319 1168 m 376 1363 q 311 1382 333 1363 q 288 1438 288 1402 q 311 1493 288 1473 q 376 1513 333 1513 q 442 1493 419 1513 q 465 1438 465 1473 q 442 1382 465 1402 q 376 1363 419 1363 m 757 1363 q 691 1382 714 1363 q 669 1438 669 1402 q 691 1493 669 1473 q 757 1513 714 1513 q 823 1493 800 1513 q 845 1438 845 1473 q 823 1382 845 1402 q 757 1363 800 1363 z "},"Ų":{"ha":1131,"x_min":122,"x_max":1008,"o":"m 1008 1028 l 1008 428 q 944 149 1008 252 q 743 8 879 45 q 590 -60 636 -22 q 544 -147 544 -98 q 571 -205 544 -185 q 651 -226 598 -226 q 704 -220 677 -226 q 769 -201 731 -214 l 769 -267 q 634 -292 703 -292 q 497 -257 543 -292 q 451 -156 451 -221 q 473 -77 451 -114 q 544 -13 495 -41 q 224 101 327 -8 q 122 428 122 210 l 122 1028 l 279 1028 l 279 413 q 349 188 279 258 q 567 117 419 117 q 784 188 714 117 q 854 413 854 258 l 854 1028 l 1008 1028 z "},"Ů":{"ha":1131,"x_min":122,"x_max":1008,"o":"m 567 -13 q 230 95 338 -13 q 122 428 122 204 l 122 1028 l 279 1028 l 279 413 q 349 188 279 258 q 567 117 419 117 q 784 188 714 117 q 854 413 854 258 l 854 1028 l 1008 1028 l 1008 428 q 901 95 1008 204 q 567 -13 794 -13 m 567 1108 q 495 1126 527 1108 q 445 1175 463 1144 q 427 1246 427 1206 q 445 1316 427 1285 q 495 1366 463 1348 q 567 1383 527 1383 q 638 1366 606 1383 q 688 1316 670 1348 q 706 1246 706 1285 q 688 1175 706 1206 q 638 1126 670 1144 q 567 1108 606 1108 m 567 1167 q 622 1189 601 1167 q 643 1246 643 1210 q 622 1302 643 1281 q 567 1324 601 1324 q 511 1302 533 1324 q 490 1246 490 1281 q 511 1189 490 1210 q 567 1167 533 1167 z "},"Ũ":{"ha":1131,"x_min":122,"x_max":1008,"o":"m 567 -13 q 230 95 338 -13 q 122 428 122 204 l 122 1028 l 279 1028 l 279 413 q 349 188 279 258 q 567 117 419 117 q 784 188 714 117 q 854 413 854 258 l 854 1028 l 1008 1028 l 1008 428 q 901 95 1008 204 q 567 -13 794 -13 m 688 1149 q 626 1156 655 1149 q 556 1176 597 1163 q 494 1194 519 1188 q 442 1200 469 1200 q 368 1189 400 1200 q 304 1153 335 1177 l 304 1244 q 365 1279 331 1268 q 445 1290 399 1290 q 508 1283 478 1290 q 578 1263 537 1276 q 640 1245 615 1251 q 691 1239 665 1239 q 766 1250 733 1239 q 829 1286 798 1261 l 829 1194 q 769 1160 803 1171 q 688 1149 735 1149 z "},"Ṹ":{"ha":1131,"x_min":122,"x_max":1008,"o":"m 567 -13 q 230 95 338 -13 q 122 428 122 204 l 122 1028 l 279 1028 l 279 413 q 349 188 279 258 q 567 117 419 117 q 784 188 714 117 q 854 413 854 258 l 854 1028 l 1008 1028 l 1008 428 q 901 95 1008 204 q 567 -13 794 -13 m 487 1336 l 635 1497 l 820 1497 l 648 1336 l 487 1336 m 688 1149 q 626 1156 655 1149 q 556 1176 597 1163 q 494 1194 519 1188 q 442 1200 469 1200 q 368 1189 400 1200 q 304 1153 335 1177 l 304 1244 q 365 1279 331 1268 q 445 1290 399 1290 q 508 1283 478 1290 q 578 1263 537 1276 q 640 1245 615 1251 q 691 1239 665 1239 q 766 1250 733 1239 q 829 1286 798 1261 l 829 1194 q 769 1160 803 1171 q 688 1149 735 1149 z "},"V":{"ha":1062,"x_min":12,"x_max":1050,"o":"m 893 1028 l 1050 1028 l 644 0 l 418 0 l 12 1028 l 180 1028 l 535 117 l 893 1028 z "},"W":{"ha":1706,"x_min":41,"x_max":1663,"o":"m 1512 1028 l 1663 1028 l 1338 0 l 1136 0 l 854 876 l 569 0 l 368 0 l 41 1028 l 202 1028 l 478 137 l 766 1028 l 946 1028 l 1232 131 l 1512 1028 z "},"Ẃ":{"ha":1706,"x_min":41,"x_max":1663,"o":"m 1512 1028 l 1663 1028 l 1338 0 l 1136 0 l 854 876 l 569 0 l 368 0 l 41 1028 l 202 1028 l 478 137 l 766 1028 l 946 1028 l 1232 131 l 1512 1028 m 781 1114 l 930 1315 l 1098 1315 l 924 1114 l 781 1114 z "},"Ŵ":{"ha":1706,"x_min":41,"x_max":1663,"o":"m 1512 1028 l 1663 1028 l 1338 0 l 1136 0 l 854 876 l 569 0 l 368 0 l 41 1028 l 202 1028 l 478 137 l 766 1028 l 946 1028 l 1232 131 l 1512 1028 m 1132 1114 l 994 1114 l 853 1252 l 713 1114 l 575 1114 l 785 1315 l 922 1315 l 1132 1114 z "},"Ẅ":{"ha":1706,"x_min":41,"x_max":1663,"o":"m 1512 1028 l 1663 1028 l 1338 0 l 1136 0 l 854 876 l 569 0 l 368 0 l 41 1028 l 202 1028 l 478 137 l 766 1028 l 946 1028 l 1232 131 l 1512 1028 m 663 1141 q 598 1161 620 1141 q 575 1216 575 1181 q 598 1272 575 1251 q 663 1292 620 1292 q 729 1272 706 1292 q 751 1216 751 1251 q 729 1161 751 1181 q 663 1141 706 1141 m 1044 1141 q 978 1161 1001 1141 q 956 1216 956 1181 q 978 1272 956 1251 q 1044 1292 1001 1292 q 1109 1272 1087 1292 q 1132 1216 1132 1251 q 1109 1161 1132 1181 q 1044 1141 1087 1141 z "},"Ẁ":{"ha":1706,"x_min":41,"x_max":1663,"o":"m 1512 1028 l 1663 1028 l 1338 0 l 1136 0 l 854 876 l 569 0 l 368 0 l 41 1028 l 202 1028 l 478 137 l 766 1028 l 946 1028 l 1232 131 l 1512 1028 m 781 1114 l 608 1315 l 776 1315 l 926 1114 l 781 1114 z "},"X":{"ha":1010,"x_min":-2,"x_max":1013,"o":"m 598 528 l 1013 0 l 832 0 l 502 421 l 174 0 l -2 0 l 410 526 l 15 1028 l 195 1028 l 506 633 l 817 1028 l 991 1028 l 598 528 z "},"Y":{"ha":942,"x_min":-23,"x_max":956,"o":"m 956 1028 l 551 450 l 551 0 l 393 0 l 393 449 l -23 1028 l 150 1028 l 475 576 l 794 1028 l 956 1028 z "},"Ý":{"ha":942,"x_min":-23,"x_max":956,"o":"m 956 1028 l 551 450 l 551 0 l 393 0 l 393 449 l -23 1028 l 150 1028 l 475 576 l 794 1028 l 956 1028 m 397 1114 l 547 1315 l 715 1315 l 541 1114 l 397 1114 z "},"Ŷ":{"ha":942,"x_min":-23,"x_max":956,"o":"m 956 1028 l 551 450 l 551 0 l 393 0 l 393 449 l -23 1028 l 150 1028 l 475 576 l 794 1028 l 956 1028 m 749 1114 l 611 1114 l 470 1252 l 329 1114 l 192 1114 l 402 1315 l 538 1315 l 749 1114 z "},"Ÿ":{"ha":942,"x_min":-23,"x_max":956,"o":"m 956 1028 l 551 450 l 551 0 l 393 0 l 393 449 l -23 1028 l 150 1028 l 475 576 l 794 1028 l 956 1028 m 280 1141 q 214 1161 237 1141 q 192 1216 192 1181 q 214 1272 192 1251 q 280 1292 237 1292 q 345 1272 323 1292 q 368 1216 368 1251 q 345 1161 368 1181 q 280 1141 323 1141 m 660 1141 q 595 1161 617 1141 q 572 1216 572 1181 q 595 1272 572 1251 q 660 1292 617 1292 q 726 1272 703 1292 q 749 1216 749 1251 q 726 1161 749 1181 q 660 1141 703 1141 z "},"Ẏ":{"ha":942,"x_min":-23,"x_max":956,"o":"m 956 1028 l 551 450 l 551 0 l 393 0 l 393 449 l -23 1028 l 150 1028 l 475 576 l 794 1028 l 956 1028 m 470 1141 q 397 1161 422 1141 q 372 1216 372 1181 q 396 1272 372 1251 q 470 1292 421 1292 q 544 1272 519 1292 q 569 1216 569 1251 q 544 1161 569 1181 q 470 1141 519 1141 z "},"Ỵ":{"ha":942,"x_min":-23,"x_max":956,"o":"m 956 1028 l 551 450 l 551 0 l 393 0 l 393 449 l -23 1028 l 150 1028 l 475 576 l 794 1028 l 956 1028 m 470 -257 q 397 -237 422 -257 q 372 -182 372 -217 q 397 -127 372 -147 q 470 -106 422 -106 q 544 -127 519 -106 q 569 -182 569 -147 q 544 -237 569 -217 q 470 -257 519 -257 z "},"Ỳ":{"ha":942,"x_min":-23,"x_max":956,"o":"m 956 1028 l 551 450 l 551 0 l 393 0 l 393 449 l -23 1028 l 150 1028 l 475 576 l 794 1028 l 956 1028 m 398 1114 l 224 1315 l 393 1315 l 542 1114 l 398 1114 z "},"Ỷ":{"ha":942,"x_min":-23,"x_max":956,"o":"m 956 1028 l 551 450 l 551 0 l 393 0 l 393 449 l -23 1028 l 150 1028 l 475 576 l 794 1028 l 956 1028 m 426 1114 q 439 1148 427 1134 q 465 1170 450 1162 q 504 1188 480 1178 q 542 1207 530 1199 q 554 1228 554 1215 q 534 1251 554 1243 q 468 1258 515 1258 q 394 1254 427 1258 q 321 1238 361 1249 l 321 1301 q 477 1322 387 1322 q 600 1300 560 1322 q 640 1237 640 1277 q 629 1202 640 1216 q 605 1178 619 1188 q 567 1158 590 1169 q 528 1138 541 1147 q 513 1114 515 1128 l 426 1114 z "},"Ȳ":{"ha":942,"x_min":-23,"x_max":956,"o":"m 956 1028 l 551 450 l 551 0 l 393 0 l 393 449 l -23 1028 l 150 1028 l 475 576 l 794 1028 l 956 1028 m 223 1168 l 223 1261 l 717 1261 l 717 1168 l 223 1168 z "},"Ỹ":{"ha":942,"x_min":-23,"x_max":956,"o":"m 956 1028 l 551 450 l 551 0 l 393 0 l 393 449 l -23 1028 l 150 1028 l 475 576 l 794 1028 l 956 1028 m 592 1149 q 529 1156 558 1149 q 459 1176 500 1163 q 397 1194 422 1188 q 346 1200 372 1200 q 271 1189 303 1200 q 208 1153 239 1177 l 208 1244 q 268 1279 234 1268 q 349 1290 302 1290 q 411 1283 382 1290 q 481 1263 440 1276 q 543 1245 518 1251 q 594 1239 568 1239 q 669 1250 637 1239 q 733 1286 701 1261 l 733 1194 q 673 1160 706 1171 q 592 1149 639 1149 z "},"Z":{"ha":933,"x_min":52,"x_max":881,"o":"m 260 126 l 881 126 l 881 0 l 52 0 l 52 85 l 665 901 l 61 901 l 61 1028 l 872 1028 l 872 942 l 260 126 z "},"Ź":{"ha":933,"x_min":52,"x_max":881,"o":"m 260 126 l 881 126 l 881 0 l 52 0 l 52 85 l 665 901 l 61 901 l 61 1028 l 872 1028 l 872 942 l 260 126 m 394 1114 l 543 1315 l 711 1315 l 538 1114 l 394 1114 z "},"Ž":{"ha":933,"x_min":52,"x_max":881,"o":"m 260 126 l 881 126 l 881 0 l 52 0 l 52 85 l 665 901 l 61 901 l 61 1028 l 872 1028 l 872 942 l 260 126 m 608 1315 l 745 1315 l 535 1114 l 399 1114 l 188 1315 l 326 1315 l 467 1177 l 608 1315 z "},"Ż":{"ha":933,"x_min":52,"x_max":881,"o":"m 260 126 l 881 126 l 881 0 l 52 0 l 52 85 l 665 901 l 61 901 l 61 1028 l 872 1028 l 872 942 l 260 126 m 467 1141 q 393 1161 418 1141 q 368 1216 368 1181 q 393 1272 368 1251 q 467 1292 417 1292 q 541 1272 516 1292 q 565 1216 565 1251 q 540 1161 565 1181 q 467 1141 515 1141 z "},"Ẓ":{"ha":933,"x_min":52,"x_max":881,"o":"m 260 126 l 881 126 l 881 0 l 52 0 l 52 85 l 665 901 l 61 901 l 61 1028 l 872 1028 l 872 942 l 260 126 m 467 -257 q 393 -237 418 -257 q 368 -182 368 -217 q 393 -127 368 -147 q 467 -106 418 -106 q 540 -127 515 -106 q 565 -182 565 -147 q 540 -237 565 -217 q 467 -257 515 -257 z "},"a":{"ha":833,"x_min":72,"x_max":728,"o":"m 383 767 q 578 739 503 767 q 690 646 653 711 q 728 468 728 581 l 728 0 l 599 0 l 588 81 l 579 81 q 472 12 537 37 q 335 -12 408 -12 q 192 14 251 -12 q 103 87 133 40 q 72 198 72 134 q 148 354 72 299 q 388 424 223 409 l 576 442 l 576 478 q 553 583 576 545 q 484 635 531 620 q 362 651 438 651 q 248 642 309 651 q 130 615 186 633 l 130 730 q 253 758 185 748 q 383 767 321 767 m 376 94 q 483 114 431 94 q 576 174 535 134 l 576 351 l 399 333 q 267 293 307 323 q 228 210 228 264 q 265 125 228 155 q 376 94 301 94 z "},"á":{"ha":833,"x_min":72,"x_max":728,"o":"m 383 767 q 578 739 503 767 q 690 646 653 711 q 728 468 728 581 l 728 0 l 599 0 l 588 81 l 579 81 q 472 12 537 37 q 335 -12 408 -12 q 192 14 251 -12 q 103 87 133 40 q 72 198 72 134 q 148 354 72 299 q 388 424 223 409 l 576 442 l 576 478 q 553 583 576 545 q 484 635 531 620 q 362 651 438 651 q 248 642 309 651 q 130 615 186 633 l 130 730 q 253 758 185 748 q 383 767 321 767 m 376 94 q 483 114 431 94 q 576 174 535 134 l 576 351 l 399 333 q 267 293 307 323 q 228 210 228 264 q 265 125 228 155 q 376 94 301 94 m 339 866 l 523 1122 l 695 1122 l 489 866 l 339 866 z "},"ă":{"ha":833,"x_min":72,"x_max":728,"o":"m 383 767 q 578 739 503 767 q 690 646 653 711 q 728 468 728 581 l 728 0 l 599 0 l 588 81 l 579 81 q 472 12 537 37 q 335 -12 408 -12 q 192 14 251 -12 q 103 87 133 40 q 72 198 72 134 q 148 354 72 299 q 388 424 223 409 l 576 442 l 576 478 q 553 583 576 545 q 484 635 531 620 q 362 651 438 651 q 248 642 309 651 q 130 615 186 633 l 130 730 q 253 758 185 748 q 383 767 321 767 m 376 94 q 483 114 431 94 q 576 174 535 134 l 576 351 l 399 333 q 267 293 307 323 q 228 210 228 264 q 265 125 228 155 q 376 94 301 94 m 415 872 q 281 901 336 872 q 195 982 225 930 q 162 1105 165 1035 l 260 1105 q 415 956 272 956 q 568 1105 556 956 l 666 1105 q 596 935 660 997 q 415 872 531 872 z "},"ắ":{"ha":833,"x_min":72,"x_max":728,"o":"m 383 767 q 578 739 503 767 q 690 646 653 711 q 728 468 728 581 l 728 0 l 599 0 l 588 81 l 579 81 q 472 12 537 37 q 335 -12 408 -12 q 192 14 251 -12 q 103 87 133 40 q 72 198 72 134 q 148 354 72 299 q 388 424 223 409 l 576 442 l 576 478 q 553 583 576 545 q 484 635 531 620 q 362 651 438 651 q 248 642 309 651 q 130 615 186 633 l 130 730 q 253 758 185 748 q 383 767 321 767 m 376 94 q 483 114 431 94 q 576 174 535 134 l 576 351 l 399 333 q 267 293 307 323 q 228 210 228 264 q 265 125 228 155 q 376 94 301 94 m 354 1109 l 503 1297 l 645 1297 l 472 1109 l 354 1109 m 415 874 q 230 934 295 874 q 155 1092 164 994 l 254 1092 q 301 992 262 1028 q 415 955 340 955 q 528 991 490 955 q 574 1092 566 1028 l 673 1092 q 599 934 664 993 q 415 874 534 874 z "},"ặ":{"ha":833,"x_min":72,"x_max":728,"o":"m 383 767 q 578 739 503 767 q 690 646 653 711 q 728 468 728 581 l 728 0 l 599 0 l 588 81 l 579 81 q 472 12 537 37 q 335 -12 408 -12 q 192 14 251 -12 q 103 87 133 40 q 72 198 72 134 q 148 354 72 299 q 388 424 223 409 l 576 442 l 576 478 q 553 583 576 545 q 484 635 531 620 q 362 651 438 651 q 248 642 309 651 q 130 615 186 633 l 130 730 q 253 758 185 748 q 383 767 321 767 m 376 94 q 483 114 431 94 q 576 174 535 134 l 576 351 l 399 333 q 267 293 307 323 q 228 210 228 264 q 265 125 228 155 q 376 94 301 94 m 424 -267 q 358 -245 381 -267 q 335 -187 335 -224 q 358 -128 335 -149 q 424 -106 381 -106 q 491 -128 467 -106 q 514 -187 514 -149 q 491 -245 514 -224 q 424 -267 468 -267 m 415 872 q 281 901 336 872 q 195 982 225 930 q 162 1105 165 1035 l 260 1105 q 415 956 272 956 q 568 1105 556 956 l 666 1105 q 596 935 660 997 q 415 872 531 872 z "},"ằ":{"ha":833,"x_min":72,"x_max":728,"o":"m 383 767 q 578 739 503 767 q 690 646 653 711 q 728 468 728 581 l 728 0 l 599 0 l 588 81 l 579 81 q 472 12 537 37 q 335 -12 408 -12 q 192 14 251 -12 q 103 87 133 40 q 72 198 72 134 q 148 354 72 299 q 388 424 223 409 l 576 442 l 576 478 q 553 583 576 545 q 484 635 531 620 q 362 651 438 651 q 248 642 309 651 q 130 615 186 633 l 130 730 q 253 758 185 748 q 383 767 321 767 m 376 94 q 483 114 431 94 q 576 174 535 134 l 576 351 l 399 333 q 267 293 307 323 q 228 210 228 264 q 265 125 228 155 q 376 94 301 94 m 356 1109 l 183 1297 l 324 1297 l 474 1109 l 356 1109 m 415 874 q 230 934 295 874 q 155 1092 164 994 l 254 1092 q 301 992 262 1028 q 415 955 340 955 q 528 991 490 955 q 574 1092 566 1028 l 673 1092 q 599 934 664 993 q 415 874 534 874 z "},"ẳ":{"ha":833,"x_min":72,"x_max":728,"o":"m 383 767 q 578 739 503 767 q 690 646 653 711 q 728 468 728 581 l 728 0 l 599 0 l 588 81 l 579 81 q 472 12 537 37 q 335 -12 408 -12 q 192 14 251 -12 q 103 87 133 40 q 72 198 72 134 q 148 354 72 299 q 388 424 223 409 l 576 442 l 576 478 q 553 583 576 545 q 484 635 531 620 q 362 651 438 651 q 248 642 309 651 q 130 615 186 633 l 130 730 q 253 758 185 748 q 383 767 321 767 m 376 94 q 483 114 431 94 q 576 174 535 134 l 576 351 l 399 333 q 267 293 307 323 q 228 210 228 264 q 265 125 228 155 q 376 94 301 94 m 370 1109 q 382 1141 371 1128 q 408 1161 393 1153 q 447 1178 423 1169 q 486 1197 474 1189 q 498 1217 498 1204 q 412 1247 498 1247 q 339 1242 372 1247 q 265 1226 306 1238 l 265 1283 q 421 1304 334 1304 q 543 1283 503 1304 q 583 1224 583 1262 q 565 1181 583 1196 q 510 1151 546 1167 q 471 1131 483 1140 q 457 1109 458 1122 l 370 1109 m 415 874 q 230 934 295 874 q 155 1092 164 994 l 254 1092 q 301 992 262 1028 q 415 955 340 955 q 528 991 490 955 q 574 1092 566 1028 l 673 1092 q 599 934 664 993 q 415 874 534 874 z "},"ẵ":{"ha":833,"x_min":72,"x_max":728,"o":"m 383 767 q 578 739 503 767 q 690 646 653 711 q 728 468 728 581 l 728 0 l 599 0 l 588 81 l 579 81 q 472 12 537 37 q 335 -12 408 -12 q 192 14 251 -12 q 103 87 133 40 q 72 198 72 134 q 148 354 72 299 q 388 424 223 409 l 576 442 l 576 478 q 553 583 576 545 q 484 635 531 620 q 362 651 438 651 q 248 642 309 651 q 130 615 186 633 l 130 730 q 253 758 185 748 q 383 767 321 767 m 376 94 q 483 114 431 94 q 576 174 535 134 l 576 351 l 399 333 q 267 293 307 323 q 228 210 228 264 q 265 125 228 155 q 376 94 301 94 m 536 1142 q 473 1149 503 1142 q 402 1168 444 1156 q 339 1185 363 1180 q 289 1190 315 1190 q 214 1180 247 1190 q 149 1146 181 1169 l 149 1228 q 211 1261 176 1251 q 292 1272 246 1272 q 355 1265 325 1272 q 426 1246 384 1258 q 488 1228 463 1234 q 539 1223 513 1223 q 613 1234 581 1223 q 678 1268 646 1244 l 678 1185 q 617 1153 651 1163 q 536 1142 582 1142 m 415 874 q 230 934 295 874 q 155 1092 164 994 l 254 1092 q 301 992 262 1028 q 415 955 340 955 q 528 991 490 955 q 574 1092 566 1028 l 673 1092 q 599 934 664 993 q 415 874 534 874 z "},"â":{"ha":833,"x_min":72,"x_max":728,"o":"m 383 767 q 578 739 503 767 q 690 646 653 711 q 728 468 728 581 l 728 0 l 599 0 l 588 81 l 579 81 q 472 12 537 37 q 335 -12 408 -12 q 192 14 251 -12 q 103 87 133 40 q 72 198 72 134 q 148 354 72 299 q 388 424 223 409 l 576 442 l 576 478 q 553 583 576 545 q 484 635 531 620 q 362 651 438 651 q 248 642 309 651 q 130 615 186 633 l 130 730 q 253 758 185 748 q 383 767 321 767 m 376 94 q 483 114 431 94 q 576 174 535 134 l 576 351 l 399 333 q 267 293 307 323 q 228 210 228 264 q 265 125 228 155 q 376 94 301 94 m 666 866 l 542 866 l 414 1045 l 285 866 l 162 866 l 350 1122 l 478 1122 l 666 866 z "},"ấ":{"ha":833,"x_min":72,"x_max":867,"o":"m 383 767 q 578 739 503 767 q 690 646 653 711 q 728 468 728 581 l 728 0 l 599 0 l 588 81 l 579 81 q 472 12 537 37 q 335 -12 408 -12 q 192 14 251 -12 q 103 87 133 40 q 72 198 72 134 q 148 354 72 299 q 388 424 223 409 l 576 442 l 576 478 q 553 583 576 545 q 484 635 531 620 q 362 651 438 651 q 248 642 309 651 q 130 615 186 633 l 130 730 q 253 758 185 748 q 383 767 321 767 m 376 94 q 483 114 431 94 q 576 174 535 134 l 576 351 l 399 333 q 267 293 307 323 q 228 210 228 264 q 265 125 228 155 q 376 94 301 94 m 726 1297 l 867 1297 l 694 1109 l 576 1109 l 726 1297 m 350 1122 l 478 1122 l 666 866 l 542 866 l 414 1045 l 285 866 l 162 866 l 350 1122 z "},"ậ":{"ha":833,"x_min":72,"x_max":728,"o":"m 383 767 q 578 739 503 767 q 690 646 653 711 q 728 468 728 581 l 728 0 l 599 0 l 588 81 l 579 81 q 472 12 537 37 q 335 -12 408 -12 q 192 14 251 -12 q 103 87 133 40 q 72 198 72 134 q 148 354 72 299 q 388 424 223 409 l 576 442 l 576 478 q 553 583 576 545 q 484 635 531 620 q 362 651 438 651 q 248 642 309 651 q 130 615 186 633 l 130 730 q 253 758 185 748 q 383 767 321 767 m 376 94 q 483 114 431 94 q 576 174 535 134 l 576 351 l 399 333 q 267 293 307 323 q 228 210 228 264 q 265 125 228 155 q 376 94 301 94 m 424 -267 q 358 -245 381 -267 q 335 -187 335 -224 q 358 -128 335 -149 q 424 -106 381 -106 q 491 -128 467 -106 q 514 -187 514 -149 q 491 -245 514 -224 q 424 -267 468 -267 m 666 866 l 542 866 l 414 1045 l 285 866 l 162 866 l 350 1122 l 478 1122 l 666 866 z "},"ầ":{"ha":833,"x_min":72,"x_max":728,"o":"m 383 767 q 578 739 503 767 q 690 646 653 711 q 728 468 728 581 l 728 0 l 599 0 l 588 81 l 579 81 q 472 12 537 37 q 335 -12 408 -12 q 192 14 251 -12 q 103 87 133 40 q 72 198 72 134 q 148 354 72 299 q 388 424 223 409 l 576 442 l 576 478 q 553 583 576 545 q 484 635 531 620 q 362 651 438 651 q 248 642 309 651 q 130 615 186 633 l 130 730 q 253 758 185 748 q 383 767 321 767 m 376 94 q 483 114 431 94 q 576 174 535 134 l 576 351 l 399 333 q 267 293 307 323 q 228 210 228 264 q 265 125 228 155 q 376 94 301 94 m 715 1109 l 599 1109 l 425 1297 l 566 1297 l 715 1109 m 350 1122 l 478 1122 l 666 866 l 542 866 l 414 1045 l 285 866 l 162 866 l 350 1122 z "},"ẩ":{"ha":833,"x_min":72,"x_max":778,"o":"m 383 767 q 578 739 503 767 q 690 646 653 711 q 728 468 728 581 l 728 0 l 599 0 l 588 81 l 579 81 q 472 12 537 37 q 335 -12 408 -12 q 192 14 251 -12 q 103 87 133 40 q 72 198 72 134 q 148 354 72 299 q 388 424 223 409 l 576 442 l 576 478 q 553 583 576 545 q 484 635 531 620 q 362 651 438 651 q 248 642 309 651 q 130 615 186 633 l 130 730 q 253 758 185 748 q 383 767 321 767 m 376 94 q 483 114 431 94 q 576 174 535 134 l 576 351 l 399 333 q 267 293 307 323 q 228 210 228 264 q 265 125 228 155 q 376 94 301 94 m 626 1304 q 778 1224 778 1304 q 762 1186 778 1199 q 715 1159 746 1172 q 674 1136 688 1146 q 658 1109 660 1126 l 580 1109 q 601 1153 582 1138 q 655 1183 621 1169 q 688 1199 677 1192 q 698 1217 698 1206 q 680 1240 698 1232 q 617 1247 661 1247 q 546 1243 579 1247 q 478 1228 513 1238 l 478 1283 q 546 1299 507 1293 q 626 1304 585 1304 m 350 1122 l 478 1122 l 666 866 l 542 866 l 414 1045 l 285 866 l 162 866 l 350 1122 z "},"ẫ":{"ha":833,"x_min":72,"x_max":728,"o":"m 383 767 q 578 739 503 767 q 690 646 653 711 q 728 468 728 581 l 728 0 l 599 0 l 588 81 l 579 81 q 472 12 537 37 q 335 -12 408 -12 q 192 14 251 -12 q 103 87 133 40 q 72 198 72 134 q 148 354 72 299 q 388 424 223 409 l 576 442 l 576 478 q 553 583 576 545 q 484 635 531 620 q 362 651 438 651 q 248 642 309 651 q 130 615 186 633 l 130 730 q 253 758 185 748 q 383 767 321 767 m 376 94 q 483 114 431 94 q 576 174 535 134 l 576 351 l 399 333 q 267 293 307 323 q 228 210 228 264 q 265 125 228 155 q 376 94 301 94 m 531 1142 q 472 1149 499 1142 q 403 1168 444 1156 q 342 1185 365 1180 q 294 1190 319 1190 q 223 1180 254 1190 q 160 1146 191 1169 l 160 1228 q 297 1272 211 1272 q 356 1265 328 1272 q 425 1246 384 1258 q 485 1228 461 1234 q 534 1223 509 1223 q 605 1234 574 1223 q 668 1267 637 1244 l 668 1185 q 531 1142 617 1142 m 682 867 l 551 867 l 414 1035 l 277 867 l 146 867 l 346 1101 l 482 1101 l 682 867 z "},"ȁ":{"ha":833,"x_min":72,"x_max":728,"o":"m 383 767 q 578 739 503 767 q 690 646 653 711 q 728 468 728 581 l 728 0 l 599 0 l 588 81 l 579 81 q 472 12 537 37 q 335 -12 408 -12 q 192 14 251 -12 q 103 87 133 40 q 72 198 72 134 q 148 354 72 299 q 388 424 223 409 l 576 442 l 576 478 q 553 583 576 545 q 484 635 531 620 q 362 651 438 651 q 248 642 309 651 q 130 615 186 633 l 130 730 q 253 758 185 748 q 383 767 321 767 m 376 94 q 483 114 431 94 q 576 174 535 134 l 576 351 l 399 333 q 267 293 307 323 q 228 210 228 264 q 265 125 228 155 q 376 94 301 94 m 221 866 l 90 1122 l 215 1122 l 337 866 l 221 866 m 491 866 l 360 1122 l 485 1122 l 607 866 l 491 866 z "},"ä":{"ha":833,"x_min":72,"x_max":728,"o":"m 383 767 q 578 739 503 767 q 690 646 653 711 q 728 468 728 581 l 728 0 l 599 0 l 588 81 l 579 81 q 472 12 537 37 q 335 -12 408 -12 q 192 14 251 -12 q 103 87 133 40 q 72 198 72 134 q 148 354 72 299 q 388 424 223 409 l 576 442 l 576 478 q 553 583 576 545 q 484 635 531 620 q 362 651 438 651 q 248 642 309 651 q 130 615 186 633 l 130 730 q 253 758 185 748 q 383 767 321 767 m 376 94 q 483 114 431 94 q 576 174 535 134 l 576 351 l 399 333 q 267 293 307 323 q 228 210 228 264 q 265 125 228 155 q 376 94 301 94 m 235 904 q 168 926 191 904 q 145 986 145 947 q 168 1047 145 1025 q 235 1069 191 1069 q 301 1047 278 1069 q 324 986 324 1025 q 301 926 324 947 q 235 904 278 904 m 593 904 q 526 926 549 904 q 503 986 503 947 q 526 1047 503 1025 q 593 1069 549 1069 q 660 1047 637 1069 q 683 986 683 1025 q 660 926 683 947 q 593 904 637 904 z "},"ạ":{"ha":833,"x_min":72,"x_max":728,"o":"m 383 767 q 578 739 503 767 q 690 646 653 711 q 728 468 728 581 l 728 0 l 599 0 l 588 81 l 579 81 q 472 12 537 37 q 335 -12 408 -12 q 192 14 251 -12 q 103 87 133 40 q 72 198 72 134 q 148 354 72 299 q 388 424 223 409 l 576 442 l 576 478 q 553 583 576 545 q 484 635 531 620 q 362 651 438 651 q 248 642 309 651 q 130 615 186 633 l 130 730 q 253 758 185 748 q 383 767 321 767 m 376 94 q 483 114 431 94 q 576 174 535 134 l 576 351 l 399 333 q 267 293 307 323 q 228 210 228 264 q 265 125 228 155 q 376 94 301 94 m 424 -267 q 358 -245 381 -267 q 335 -187 335 -224 q 358 -128 335 -149 q 424 -106 381 -106 q 491 -128 467 -106 q 514 -187 514 -149 q 491 -245 514 -224 q 424 -267 468 -267 z "},"à":{"ha":833,"x_min":72,"x_max":728,"o":"m 383 767 q 578 739 503 767 q 690 646 653 711 q 728 468 728 581 l 728 0 l 599 0 l 588 81 l 579 81 q 472 12 537 37 q 335 -12 408 -12 q 192 14 251 -12 q 103 87 133 40 q 72 198 72 134 q 148 354 72 299 q 388 424 223 409 l 576 442 l 576 478 q 553 583 576 545 q 484 635 531 620 q 362 651 438 651 q 248 642 309 651 q 130 615 186 633 l 130 730 q 253 758 185 748 q 383 767 321 767 m 376 94 q 483 114 431 94 q 576 174 535 134 l 576 351 l 399 333 q 267 293 307 323 q 228 210 228 264 q 265 125 228 155 q 376 94 301 94 m 339 866 l 133 1122 l 305 1122 l 489 866 l 339 866 z "},"ả":{"ha":833,"x_min":72,"x_max":728,"o":"m 383 767 q 578 739 503 767 q 690 646 653 711 q 728 468 728 581 l 728 0 l 599 0 l 588 81 l 579 81 q 472 12 537 37 q 335 -12 408 -12 q 192 14 251 -12 q 103 87 133 40 q 72 198 72 134 q 148 354 72 299 q 388 424 223 409 l 576 442 l 576 478 q 553 583 576 545 q 484 635 531 620 q 362 651 438 651 q 248 642 309 651 q 130 615 186 633 l 130 730 q 253 758 185 748 q 383 767 321 767 m 376 94 q 483 114 431 94 q 576 174 535 134 l 576 351 l 399 333 q 267 293 307 323 q 228 210 228 264 q 265 125 228 155 q 376 94 301 94 m 372 866 q 384 913 373 893 q 410 944 395 932 q 447 970 424 956 q 481 995 470 985 q 492 1022 492 1006 q 471 1055 492 1044 q 405 1065 451 1065 q 283 1048 340 1065 l 283 1113 q 344 1126 308 1122 q 411 1131 379 1131 q 536 1105 496 1131 q 577 1030 577 1080 q 561 978 577 997 q 515 940 546 960 q 473 906 488 922 q 457 866 459 891 l 372 866 z "},"ȃ":{"ha":833,"x_min":72,"x_max":728,"o":"m 383 767 q 578 739 503 767 q 690 646 653 711 q 728 468 728 581 l 728 0 l 599 0 l 588 81 l 579 81 q 472 12 537 37 q 335 -12 408 -12 q 192 14 251 -12 q 103 87 133 40 q 72 198 72 134 q 148 354 72 299 q 388 424 223 409 l 576 442 l 576 478 q 553 583 576 545 q 484 635 531 620 q 362 651 438 651 q 248 642 309 651 q 130 615 186 633 l 130 730 q 253 758 185 748 q 383 767 321 767 m 376 94 q 483 114 431 94 q 576 174 535 134 l 576 351 l 399 333 q 267 293 307 323 q 228 210 228 264 q 265 125 228 155 q 376 94 301 94 m 162 885 q 231 1056 167 993 q 413 1118 295 1118 q 547 1089 492 1118 q 633 1008 603 1060 q 666 885 663 956 l 568 885 q 524 995 562 956 q 413 1034 486 1034 q 260 885 272 1034 l 162 885 z "},"ā":{"ha":833,"x_min":72,"x_max":728,"o":"m 383 767 q 578 739 503 767 q 690 646 653 711 q 728 468 728 581 l 728 0 l 599 0 l 588 81 l 579 81 q 472 12 537 37 q 335 -12 408 -12 q 192 14 251 -12 q 103 87 133 40 q 72 198 72 134 q 148 354 72 299 q 388 424 223 409 l 576 442 l 576 478 q 553 583 576 545 q 484 635 531 620 q 362 651 438 651 q 248 642 309 651 q 130 615 186 633 l 130 730 q 253 758 185 748 q 383 767 321 767 m 376 94 q 483 114 431 94 q 576 174 535 134 l 576 351 l 399 333 q 267 293 307 323 q 228 210 228 264 q 265 125 228 155 q 376 94 301 94 m 167 941 l 167 1034 l 660 1034 l 660 941 l 167 941 z "},"ą":{"ha":833,"x_min":72,"x_max":783,"o":"m 678 -227 q 783 -201 730 -227 l 783 -268 q 661 -294 726 -294 q 536 -258 580 -294 q 492 -161 492 -222 q 599 1 492 -62 l 588 81 l 579 81 q 472 12 537 37 q 335 -12 408 -12 q 192 14 251 -12 q 103 87 133 40 q 72 198 72 134 q 148 354 72 299 q 388 424 223 409 l 576 442 l 576 478 q 553 583 576 545 q 484 635 531 620 q 362 651 438 651 q 248 642 309 651 q 130 615 186 633 l 130 730 q 253 758 185 748 q 383 767 321 767 q 578 739 503 767 q 690 646 653 711 q 728 468 728 581 l 728 0 q 617 -71 650 -35 q 585 -151 585 -106 q 609 -207 585 -186 q 678 -227 634 -227 m 376 94 q 483 114 431 94 q 576 174 535 134 l 576 351 l 399 333 q 267 293 307 323 q 228 210 228 264 q 265 125 228 155 q 376 94 301 94 z "},"å":{"ha":833,"x_min":72,"x_max":728,"o":"m 383 767 q 578 739 503 767 q 690 646 653 711 q 728 468 728 581 l 728 0 l 599 0 l 588 81 l 579 81 q 472 12 537 37 q 335 -12 408 -12 q 192 14 251 -12 q 103 87 133 40 q 72 198 72 134 q 148 354 72 299 q 388 424 223 409 l 576 442 l 576 478 q 553 583 576 545 q 484 635 531 620 q 362 651 438 651 q 248 642 309 651 q 130 615 186 633 l 130 730 q 253 758 185 748 q 383 767 321 767 m 376 94 q 483 114 431 94 q 576 174 535 134 l 576 351 l 399 333 q 267 293 307 323 q 228 210 228 264 q 265 125 228 155 q 376 94 301 94 m 414 863 q 342 880 374 863 q 292 930 310 898 q 274 1000 274 961 q 292 1071 274 1040 q 342 1120 310 1102 q 414 1138 374 1138 q 485 1120 453 1138 q 535 1071 517 1102 q 553 1000 553 1040 q 535 930 553 961 q 485 880 517 898 q 414 863 453 863 m 414 922 q 469 943 448 922 q 490 1000 490 965 q 469 1057 490 1036 q 414 1078 448 1078 q 359 1057 380 1078 q 338 1000 338 1036 q 359 943 338 965 q 414 922 380 922 z "},"ǻ":{"ha":833,"x_min":72,"x_max":728,"o":"m 383 767 q 578 739 503 767 q 690 646 653 711 q 728 468 728 581 l 728 0 l 599 0 l 588 81 l 579 81 q 472 12 537 37 q 335 -12 408 -12 q 192 14 251 -12 q 103 87 133 40 q 72 198 72 134 q 148 354 72 299 q 388 424 223 409 l 576 442 l 576 478 q 553 583 576 545 q 484 635 531 620 q 362 651 438 651 q 248 642 309 651 q 130 615 186 633 l 130 730 q 253 758 185 748 q 383 767 321 767 m 376 94 q 483 114 431 94 q 576 174 535 134 l 576 351 l 399 333 q 267 293 307 323 q 228 210 228 264 q 265 125 228 155 q 376 94 301 94 m 530 1079 q 553 1000 553 1045 q 535 930 553 961 q 485 880 517 898 q 414 863 453 863 q 342 880 374 863 q 292 930 310 898 q 274 1000 274 961 q 292 1071 274 1040 q 342 1120 310 1102 q 414 1138 374 1138 q 467 1128 441 1138 l 557 1236 l 671 1236 l 530 1079 m 414 922 q 469 943 448 922 q 490 1000 490 965 q 469 1057 490 1036 q 414 1078 448 1078 q 359 1057 380 1078 q 338 1000 338 1036 q 359 943 338 965 q 414 922 380 922 z "},"ã":{"ha":833,"x_min":72,"x_max":728,"o":"m 383 767 q 578 739 503 767 q 690 646 653 711 q 728 468 728 581 l 728 0 l 599 0 l 588 81 l 579 81 q 472 12 537 37 q 335 -12 408 -12 q 192 14 251 -12 q 103 87 133 40 q 72 198 72 134 q 148 354 72 299 q 388 424 223 409 l 576 442 l 576 478 q 553 583 576 545 q 484 635 531 620 q 362 651 438 651 q 248 642 309 651 q 130 615 186 633 l 130 730 q 253 758 185 748 q 383 767 321 767 m 376 94 q 483 114 431 94 q 576 174 535 134 l 576 351 l 399 333 q 267 293 307 323 q 228 210 228 264 q 265 125 228 155 q 376 94 301 94 m 526 921 q 469 929 496 921 q 403 952 442 937 q 345 973 368 966 q 299 979 322 979 q 229 966 260 979 q 167 925 198 953 l 167 1024 q 226 1061 193 1049 q 302 1073 259 1073 q 359 1065 332 1073 q 425 1042 386 1057 q 483 1021 460 1028 q 529 1015 506 1015 q 599 1027 567 1015 q 660 1069 630 1040 l 660 969 q 602 933 635 944 q 526 921 569 921 z "},"æ":{"ha":1330,"x_min":72,"x_max":1270,"o":"m 1270 332 l 728 332 q 764 200 733 250 q 856 126 794 149 q 1014 102 917 102 q 1228 132 1112 102 l 1228 17 q 992 -14 1107 -14 q 651 115 751 -14 q 347 -12 520 -12 q 197 14 258 -12 q 103 87 135 40 q 72 199 72 135 q 153 365 72 305 q 402 425 233 425 l 576 425 l 576 478 q 553 583 576 545 q 484 635 531 620 q 362 651 438 651 q 248 642 309 651 q 130 615 186 633 l 130 730 q 251 758 186 748 q 378 767 316 767 q 562 740 490 767 q 670 649 634 713 q 782 737 715 707 q 935 767 849 767 q 1117 722 1042 767 q 1231 588 1192 676 q 1270 374 1270 500 l 1270 332 m 928 665 q 782 607 833 665 q 728 425 731 548 l 1125 425 q 1073 606 1122 547 q 928 665 1024 665 m 377 94 q 605 198 509 94 q 578 333 583 258 l 410 333 q 270 300 313 333 q 228 210 228 267 q 265 125 228 155 q 377 94 303 94 z "},"ǽ":{"ha":1330,"x_min":72,"x_max":1270,"o":"m 1270 332 l 728 332 q 764 200 733 250 q 856 126 794 149 q 1014 102 917 102 q 1228 132 1112 102 l 1228 17 q 992 -14 1107 -14 q 651 115 751 -14 q 347 -12 520 -12 q 197 14 258 -12 q 103 87 135 40 q 72 199 72 135 q 153 365 72 305 q 402 425 233 425 l 576 425 l 576 478 q 553 583 576 545 q 484 635 531 620 q 362 651 438 651 q 248 642 309 651 q 130 615 186 633 l 130 730 q 251 758 186 748 q 378 767 316 767 q 562 740 490 767 q 670 649 634 713 q 782 737 715 707 q 935 767 849 767 q 1117 722 1042 767 q 1231 588 1192 676 q 1270 374 1270 500 l 1270 332 m 928 665 q 782 607 833 665 q 728 425 731 548 l 1125 425 q 1073 606 1122 547 q 928 665 1024 665 m 377 94 q 605 198 509 94 q 578 333 583 258 l 410 333 q 270 300 313 333 q 228 210 228 267 q 265 125 228 155 q 377 94 303 94 m 581 866 l 765 1122 l 937 1122 l 731 866 l 581 866 z "},"b":{"ha":924,"x_min":115,"x_max":851,"o":"m 410 -14 q 115 26 249 -14 l 115 1122 l 269 1122 l 269 676 l 276 676 q 383 744 322 720 q 520 767 445 767 q 690 727 615 767 q 808 604 765 688 q 851 394 851 521 q 740 90 851 193 q 410 -14 628 -14 m 424 106 q 630 174 562 106 q 697 382 697 242 q 638 580 697 519 q 472 641 578 641 q 361 621 414 641 q 269 560 308 601 l 269 126 q 424 106 338 106 z "},"c":{"ha":726,"x_min":72,"x_max":686,"o":"m 472 -14 q 175 85 277 -14 q 72 376 72 183 q 180 669 72 570 q 496 767 288 767 q 686 744 599 767 l 686 621 q 597 638 638 632 q 509 643 555 643 q 298 579 367 643 q 230 378 230 515 q 295 176 230 241 q 488 110 360 110 q 578 118 532 110 q 686 144 625 126 l 686 21 q 472 -14 588 -14 z "},"ć":{"ha":726,"x_min":72,"x_max":700,"o":"m 472 -14 q 175 85 277 -14 q 72 376 72 183 q 180 669 72 570 q 496 767 288 767 q 686 744 599 767 l 686 621 q 597 638 638 632 q 509 643 555 643 q 298 579 367 643 q 230 378 230 515 q 295 176 230 241 q 488 110 360 110 q 578 118 532 110 q 686 144 625 126 l 686 21 q 472 -14 588 -14 m 344 866 l 528 1122 l 700 1122 l 494 866 l 344 866 z "},"č":{"ha":726,"x_min":72,"x_max":686,"o":"m 472 -14 q 175 85 277 -14 q 72 376 72 183 q 180 669 72 570 q 496 767 288 767 q 686 744 599 767 l 686 621 q 597 638 638 632 q 509 643 555 643 q 298 579 367 643 q 230 378 230 515 q 295 176 230 241 q 488 110 360 110 q 578 118 532 110 q 686 144 625 126 l 686 21 q 472 -14 588 -14 m 551 1122 l 674 1122 l 483 866 l 355 866 l 164 1122 l 287 1122 l 419 942 l 551 1122 z "},"ç":{"ha":726,"x_min":72,"x_max":686,"o":"m 509 643 q 298 579 367 643 q 230 378 230 515 q 295 176 230 241 q 488 110 360 110 q 578 118 532 110 q 686 144 625 126 l 686 21 q 472 -14 588 -14 l 467 -14 l 467 -67 q 557 -103 526 -74 q 588 -181 588 -132 q 546 -264 588 -235 q 428 -294 504 -294 q 356 -287 392 -294 q 294 -268 321 -281 l 294 -203 q 357 -223 324 -217 q 422 -230 391 -230 q 483 -217 463 -230 q 503 -174 503 -203 q 483 -133 503 -146 q 422 -119 463 -119 l 389 -119 l 389 -9 q 153 108 234 11 q 72 376 72 206 q 180 669 72 570 q 496 767 288 767 q 686 744 599 767 l 686 621 q 597 638 638 632 q 509 643 555 643 z "},"ḉ":{"ha":726,"x_min":72,"x_max":700,"o":"m 700 1122 l 494 866 l 344 866 l 528 1122 l 700 1122 m 72 376 q 180 669 72 570 q 496 767 288 767 q 686 744 599 767 l 686 621 q 597 638 638 632 q 509 643 555 643 q 298 579 367 643 q 230 378 230 515 q 295 176 230 241 q 488 110 360 110 q 578 118 532 110 q 686 144 625 126 l 686 21 q 472 -14 588 -14 l 467 -14 l 467 -67 q 557 -103 526 -74 q 588 -181 588 -132 q 546 -264 588 -235 q 428 -294 504 -294 q 356 -287 392 -294 q 294 -268 321 -281 l 294 -203 q 357 -223 324 -217 q 422 -230 391 -230 q 483 -217 463 -230 q 503 -174 503 -203 q 483 -133 503 -146 q 422 -119 463 -119 l 389 -119 l 389 -9 q 153 108 234 11 q 72 376 72 206 z "},"ĉ":{"ha":726,"x_min":72,"x_max":686,"o":"m 472 -14 q 175 85 277 -14 q 72 376 72 183 q 180 669 72 570 q 496 767 288 767 q 686 744 599 767 l 686 621 q 597 638 638 632 q 509 643 555 643 q 298 579 367 643 q 230 378 230 515 q 295 176 230 241 q 488 110 360 110 q 578 118 532 110 q 686 144 625 126 l 686 21 q 472 -14 588 -14 m 671 866 l 547 866 l 419 1045 l 290 866 l 167 866 l 355 1122 l 483 1122 l 671 866 z "},"ċ":{"ha":726,"x_min":72,"x_max":686,"o":"m 472 -14 q 175 85 277 -14 q 72 376 72 183 q 180 669 72 570 q 496 767 288 767 q 686 744 599 767 l 686 621 q 597 638 638 632 q 509 643 555 643 q 298 579 367 643 q 230 378 230 515 q 295 176 230 241 q 488 110 360 110 q 578 118 532 110 q 686 144 625 126 l 686 21 q 472 -14 588 -14 m 419 903 q 344 924 369 903 q 319 986 319 946 q 344 1049 319 1027 q 419 1071 369 1071 q 493 1049 468 1071 q 519 986 519 1027 q 493 924 519 946 q 419 903 468 903 z "},"d":{"ha":924,"x_min":72,"x_max":809,"o":"m 417 -12 q 239 27 316 -12 q 117 151 161 67 q 72 362 72 235 q 182 664 72 560 q 499 768 292 768 q 655 755 572 768 l 655 1122 l 809 1122 l 809 0 l 679 0 l 670 85 l 662 85 q 554 13 617 39 q 417 -12 492 -12 m 454 114 q 565 135 513 114 q 655 202 617 156 l 655 631 q 507 648 586 648 q 295 581 365 648 q 226 374 226 513 q 454 114 226 114 z "},"ð":{"ha":906,"x_min":72,"x_max":835,"o":"m 654 910 q 787 668 739 797 q 835 413 835 539 q 789 176 835 271 q 657 33 742 81 q 454 -14 572 -14 q 251 30 337 -14 q 119 161 165 74 q 72 378 72 249 q 118 591 72 505 q 246 720 164 678 q 439 763 328 763 q 604 723 537 763 q 501 886 562 810 l 156 833 l 141 924 l 426 968 q 233 1122 340 1053 l 432 1122 q 584 993 510 1070 l 799 1026 l 814 935 l 654 910 m 454 108 q 621 174 563 108 q 680 377 680 240 q 622 581 680 517 q 453 646 563 646 q 285 582 343 646 q 226 378 226 517 q 285 173 226 238 q 454 108 344 108 z "},"ď":{"ha":924,"x_min":72,"x_max":1001,"o":"m 417 -12 q 239 27 316 -12 q 117 151 161 67 q 72 362 72 235 q 182 664 72 560 q 499 768 292 768 q 655 755 572 768 l 655 1122 l 809 1122 l 809 0 l 679 0 l 670 85 l 662 85 q 554 13 617 39 q 417 -12 492 -12 m 454 114 q 565 135 513 114 q 655 202 617 156 l 655 631 q 507 648 586 648 q 295 581 365 648 q 226 374 226 513 q 454 114 226 114 m 878 819 q 895 1122 895 945 l 1001 1122 q 991 964 1001 1043 q 962 819 981 885 l 878 819 z "},"đ":{"ha":924,"x_min":72,"x_max":916,"o":"m 916 894 l 809 894 l 809 0 l 679 0 l 670 85 l 662 85 q 554 13 617 39 q 417 -12 492 -12 q 239 27 316 -12 q 117 151 161 67 q 72 362 72 235 q 182 664 72 560 q 499 768 292 768 q 655 755 572 768 l 655 894 l 359 894 l 359 990 l 655 990 l 655 1122 l 809 1122 l 809 990 l 916 990 l 916 894 m 655 631 q 507 648 586 648 q 295 581 365 648 q 226 374 226 513 q 454 114 226 114 q 565 135 513 114 q 655 202 617 156 l 655 631 z "},"ḍ":{"ha":924,"x_min":72,"x_max":809,"o":"m 417 -12 q 239 27 316 -12 q 117 151 161 67 q 72 362 72 235 q 182 664 72 560 q 499 768 292 768 q 655 755 572 768 l 655 1122 l 809 1122 l 809 0 l 679 0 l 670 85 l 662 85 q 554 13 617 39 q 417 -12 492 -12 m 454 114 q 565 135 513 114 q 655 202 617 156 l 655 631 q 507 648 586 648 q 295 581 365 648 q 226 374 226 513 q 454 114 226 114 m 465 -267 q 399 -245 422 -267 q 376 -187 376 -224 q 399 -128 376 -149 q 465 -106 422 -106 q 532 -128 508 -106 q 555 -187 555 -149 q 532 -245 555 -224 q 465 -267 509 -267 z "},"ḏ":{"ha":924,"x_min":72,"x_max":809,"o":"m 417 -12 q 239 27 316 -12 q 117 151 161 67 q 72 362 72 235 q 182 664 72 560 q 499 768 292 768 q 655 755 572 768 l 655 1122 l 809 1122 l 809 0 l 679 0 l 670 85 l 662 85 q 554 13 617 39 q 417 -12 492 -12 m 454 114 q 565 135 513 114 q 655 202 617 156 l 655 631 q 507 648 586 648 q 295 581 365 648 q 226 374 226 513 q 454 114 226 114 m 234 -233 l 234 -140 l 697 -140 l 697 -233 l 234 -233 z "},"ǳ":{"ha":1687,"x_min":72,"x_max":1642,"o":"m 417 -12 q 239 27 316 -12 q 117 151 161 67 q 72 362 72 235 q 182 664 72 560 q 499 768 292 768 q 655 755 572 768 l 655 1122 l 809 1122 l 809 0 l 679 0 l 670 85 l 662 85 q 554 13 617 39 q 417 -12 492 -12 m 454 114 q 565 135 513 114 q 655 202 617 156 l 655 631 q 507 648 586 648 q 295 581 365 648 q 226 374 226 513 q 454 114 226 114 m 1185 124 l 1642 124 l 1642 0 l 977 0 l 977 98 l 1426 631 l 986 631 l 986 756 l 1633 756 l 1633 658 l 1185 124 z "},"ǆ":{"ha":1687,"x_min":72,"x_max":1642,"o":"m 417 -12 q 239 27 316 -12 q 117 151 161 67 q 72 362 72 235 q 182 664 72 560 q 499 768 292 768 q 655 755 572 768 l 655 1122 l 809 1122 l 809 0 l 679 0 l 670 85 l 662 85 q 554 13 617 39 q 417 -12 492 -12 m 454 114 q 565 135 513 114 q 655 202 617 156 l 655 631 q 507 648 586 648 q 295 581 365 648 q 226 374 226 513 q 454 114 226 114 m 1185 124 l 1642 124 l 1642 0 l 977 0 l 977 98 l 1426 631 l 986 631 l 986 756 l 1633 756 l 1633 658 l 1185 124 m 1442 1122 l 1565 1122 l 1374 866 l 1246 866 l 1055 1122 l 1178 1122 l 1310 942 l 1442 1122 z "},"e":{"ha":833,"x_min":72,"x_max":774,"o":"m 774 332 l 226 332 q 261 200 230 250 q 355 126 292 149 q 515 102 417 102 q 731 132 613 102 l 731 17 q 494 -14 608 -14 q 177 82 283 -14 q 72 376 72 177 q 115 589 72 501 q 237 722 157 676 q 431 767 317 767 q 685 666 597 767 q 774 372 774 564 l 774 332 m 428 665 q 280 607 331 665 q 225 425 228 548 l 628 425 q 576 607 626 548 q 428 665 526 665 z "},"é":{"ha":833,"x_min":72,"x_max":774,"o":"m 774 332 l 226 332 q 261 200 230 250 q 355 126 292 149 q 515 102 417 102 q 731 132 613 102 l 731 17 q 494 -14 608 -14 q 177 82 283 -14 q 72 376 72 177 q 115 589 72 501 q 237 722 157 676 q 431 767 317 767 q 685 666 597 767 q 774 372 774 564 l 774 332 m 428 665 q 280 607 331 665 q 225 425 228 548 l 628 425 q 576 607 626 548 q 428 665 526 665 m 356 866 l 540 1122 l 713 1122 l 506 866 l 356 866 z "},"ĕ":{"ha":833,"x_min":72,"x_max":774,"o":"m 774 332 l 226 332 q 261 200 230 250 q 355 126 292 149 q 515 102 417 102 q 731 132 613 102 l 731 17 q 494 -14 608 -14 q 177 82 283 -14 q 72 376 72 177 q 115 589 72 501 q 237 722 157 676 q 431 767 317 767 q 685 666 597 767 q 774 372 774 564 l 774 332 m 428 665 q 280 607 331 665 q 225 425 228 548 l 628 425 q 576 607 626 548 q 428 665 526 665 m 432 872 q 298 901 353 872 q 213 982 242 930 q 179 1105 183 1035 l 277 1105 q 432 956 290 956 q 585 1105 573 956 l 683 1105 q 613 935 678 997 q 432 872 549 872 z "},"ě":{"ha":833,"x_min":72,"x_max":774,"o":"m 774 332 l 226 332 q 261 200 230 250 q 355 126 292 149 q 515 102 417 102 q 731 132 613 102 l 731 17 q 494 -14 608 -14 q 177 82 283 -14 q 72 376 72 177 q 115 589 72 501 q 237 722 157 676 q 431 767 317 767 q 685 666 597 767 q 774 372 774 564 l 774 332 m 428 665 q 280 607 331 665 q 225 425 228 548 l 628 425 q 576 607 626 548 q 428 665 526 665 m 563 1122 l 686 1122 l 495 866 l 367 866 l 176 1122 l 299 1122 l 431 942 l 563 1122 z "},"ḝ":{"ha":833,"x_min":72,"x_max":774,"o":"m 432 872 q 298 901 353 872 q 213 982 242 930 q 179 1105 183 1035 l 277 1105 q 432 956 290 956 q 585 1105 573 956 l 683 1105 q 613 935 678 997 q 432 872 549 872 m 774 332 l 226 332 q 261 200 230 250 q 355 126 292 149 q 515 102 417 102 q 731 132 613 102 l 731 17 q 494 -14 608 -14 l 475 -14 l 475 -67 q 565 -103 534 -74 q 595 -181 595 -132 q 553 -264 595 -235 q 435 -294 512 -294 q 364 -287 399 -294 q 302 -268 328 -281 l 302 -203 q 365 -223 331 -217 q 430 -230 399 -230 q 490 -217 470 -230 q 510 -174 510 -203 q 490 -133 510 -146 q 429 -119 470 -119 l 397 -119 l 397 -8 q 153 107 234 12 q 72 376 72 201 q 115 589 72 501 q 237 722 157 676 q 431 767 317 767 q 685 666 597 767 q 774 372 774 564 l 774 332 m 428 665 q 280 607 331 665 q 225 425 228 548 l 628 425 q 576 607 626 548 q 428 665 526 665 z "},"ê":{"ha":833,"x_min":72,"x_max":774,"o":"m 774 332 l 226 332 q 261 200 230 250 q 355 126 292 149 q 515 102 417 102 q 731 132 613 102 l 731 17 q 494 -14 608 -14 q 177 82 283 -14 q 72 376 72 177 q 115 589 72 501 q 237 722 157 676 q 431 767 317 767 q 685 666 597 767 q 774 372 774 564 l 774 332 m 428 665 q 280 607 331 665 q 225 425 228 548 l 628 425 q 576 607 626 548 q 428 665 526 665 m 683 866 l 560 866 l 431 1045 l 303 866 l 179 866 l 367 1122 l 495 1122 l 683 866 z "},"ế":{"ha":833,"x_min":72,"x_max":885,"o":"m 774 332 l 226 332 q 261 200 230 250 q 355 126 292 149 q 515 102 417 102 q 731 132 613 102 l 731 17 q 494 -14 608 -14 q 177 82 283 -14 q 72 376 72 177 q 115 589 72 501 q 237 722 157 676 q 431 767 317 767 q 685 666 597 767 q 774 372 774 564 l 774 332 m 428 665 q 280 607 331 665 q 225 425 228 548 l 628 425 q 576 607 626 548 q 428 665 526 665 m 743 1297 l 885 1297 l 711 1109 l 594 1109 l 743 1297 m 367 1122 l 495 1122 l 683 866 l 560 866 l 431 1045 l 303 866 l 179 866 l 367 1122 z "},"ệ":{"ha":833,"x_min":72,"x_max":774,"o":"m 774 332 l 226 332 q 261 200 230 250 q 355 126 292 149 q 515 102 417 102 q 731 132 613 102 l 731 17 q 494 -14 608 -14 q 177 82 283 -14 q 72 376 72 177 q 115 589 72 501 q 237 722 157 676 q 431 767 317 767 q 685 666 597 767 q 774 372 774 564 l 774 332 m 428 665 q 280 607 331 665 q 225 425 228 548 l 628 425 q 576 607 626 548 q 428 665 526 665 m 431 -267 q 365 -245 388 -267 q 342 -187 342 -224 q 365 -128 342 -149 q 431 -106 388 -106 q 498 -128 474 -106 q 521 -187 521 -149 q 498 -245 521 -224 q 431 -267 475 -267 m 683 866 l 560 866 l 431 1045 l 303 866 l 179 866 l 367 1122 l 495 1122 l 683 866 z "},"ề":{"ha":833,"x_min":72,"x_max":774,"o":"m 774 332 l 226 332 q 261 200 230 250 q 355 126 292 149 q 515 102 417 102 q 731 132 613 102 l 731 17 q 494 -14 608 -14 q 177 82 283 -14 q 72 376 72 177 q 115 589 72 501 q 237 722 157 676 q 431 767 317 767 q 685 666 597 767 q 774 372 774 564 l 774 332 m 428 665 q 280 607 331 665 q 225 425 228 548 l 628 425 q 576 607 626 548 q 428 665 526 665 m 733 1109 l 616 1109 l 442 1297 l 583 1297 l 733 1109 m 367 1122 l 495 1122 l 683 866 l 560 866 l 431 1045 l 303 866 l 179 866 l 367 1122 z "},"ể":{"ha":833,"x_min":72,"x_max":796,"o":"m 774 332 l 226 332 q 261 200 230 250 q 355 126 292 149 q 515 102 417 102 q 731 132 613 102 l 731 17 q 494 -14 608 -14 q 177 82 283 -14 q 72 376 72 177 q 115 589 72 501 q 237 722 157 676 q 431 767 317 767 q 685 666 597 767 q 774 372 774 564 l 774 332 m 428 665 q 280 607 331 665 q 225 425 228 548 l 628 425 q 576 607 626 548 q 428 665 526 665 m 644 1304 q 796 1224 796 1304 q 780 1186 796 1199 q 733 1159 763 1172 q 691 1136 705 1146 q 676 1109 678 1126 l 597 1109 q 619 1153 599 1138 q 672 1183 638 1169 q 705 1199 694 1192 q 715 1217 715 1206 q 697 1240 715 1232 q 635 1247 678 1247 q 564 1243 597 1247 q 496 1228 531 1238 l 496 1283 q 564 1299 524 1293 q 644 1304 603 1304 m 367 1122 l 495 1122 l 683 866 l 560 866 l 431 1045 l 303 866 l 179 866 l 367 1122 z "},"ễ":{"ha":833,"x_min":72,"x_max":774,"o":"m 774 332 l 226 332 q 261 200 230 250 q 355 126 292 149 q 515 102 417 102 q 731 132 613 102 l 731 17 q 494 -14 608 -14 q 177 82 283 -14 q 72 376 72 177 q 115 589 72 501 q 237 722 157 676 q 431 767 317 767 q 685 666 597 767 q 774 372 774 564 l 774 332 m 428 665 q 280 607 331 665 q 225 425 228 548 l 628 425 q 576 607 626 548 q 428 665 526 665 m 549 1142 q 489 1149 517 1142 q 420 1168 461 1156 q 359 1185 382 1180 q 311 1190 336 1190 q 240 1180 272 1190 q 177 1146 208 1169 l 177 1228 q 314 1272 228 1272 q 374 1265 346 1272 q 442 1246 401 1258 q 502 1228 478 1234 q 551 1223 526 1223 q 623 1234 591 1223 q 685 1267 654 1244 l 685 1185 q 549 1142 634 1142 m 699 867 l 568 867 l 431 1035 l 294 867 l 163 867 l 363 1101 l 499 1101 l 699 867 z "},"ȅ":{"ha":833,"x_min":72,"x_max":774,"o":"m 774 332 l 226 332 q 261 200 230 250 q 355 126 292 149 q 515 102 417 102 q 731 132 613 102 l 731 17 q 494 -14 608 -14 q 177 82 283 -14 q 72 376 72 177 q 115 589 72 501 q 237 722 157 676 q 431 767 317 767 q 685 666 597 767 q 774 372 774 564 l 774 332 m 428 665 q 280 607 331 665 q 225 425 228 548 l 628 425 q 576 607 626 548 q 428 665 526 665 m 238 866 l 108 1122 l 233 1122 l 354 866 l 238 866 m 508 866 l 378 1122 l 503 1122 l 624 866 l 508 866 z "},"ë":{"ha":833,"x_min":72,"x_max":774,"o":"m 774 332 l 226 332 q 261 200 230 250 q 355 126 292 149 q 515 102 417 102 q 731 132 613 102 l 731 17 q 494 -14 608 -14 q 177 82 283 -14 q 72 376 72 177 q 115 589 72 501 q 237 722 157 676 q 431 767 317 767 q 685 666 597 767 q 774 372 774 564 l 774 332 m 428 665 q 280 607 331 665 q 225 425 228 548 l 628 425 q 576 607 626 548 q 428 665 526 665 m 252 904 q 185 926 208 904 q 163 986 163 947 q 185 1047 163 1025 q 252 1069 208 1069 q 319 1047 296 1069 q 342 986 342 1025 q 319 926 342 947 q 252 904 296 904 m 610 904 q 544 926 567 904 q 521 986 521 947 q 544 1047 521 1025 q 610 1069 567 1069 q 677 1047 654 1069 q 700 986 700 1025 q 677 926 700 947 q 610 904 654 904 z "},"ė":{"ha":833,"x_min":72,"x_max":774,"o":"m 774 332 l 226 332 q 261 200 230 250 q 355 126 292 149 q 515 102 417 102 q 731 132 613 102 l 731 17 q 494 -14 608 -14 q 177 82 283 -14 q 72 376 72 177 q 115 589 72 501 q 237 722 157 676 q 431 767 317 767 q 685 666 597 767 q 774 372 774 564 l 774 332 m 428 665 q 280 607 331 665 q 225 425 228 548 l 628 425 q 576 607 626 548 q 428 665 526 665 m 431 903 q 357 924 382 903 q 331 986 331 946 q 357 1049 331 1027 q 431 1071 382 1071 q 506 1049 481 1071 q 531 986 531 1027 q 506 924 531 946 q 431 903 481 903 z "},"ẹ":{"ha":833,"x_min":72,"x_max":774,"o":"m 774 332 l 226 332 q 261 200 230 250 q 355 126 292 149 q 515 102 417 102 q 731 132 613 102 l 731 17 q 494 -14 608 -14 q 177 82 283 -14 q 72 376 72 177 q 115 589 72 501 q 237 722 157 676 q 431 767 317 767 q 685 666 597 767 q 774 372 774 564 l 774 332 m 428 665 q 280 607 331 665 q 225 425 228 548 l 628 425 q 576 607 626 548 q 428 665 526 665 m 431 -267 q 365 -245 388 -267 q 342 -187 342 -224 q 365 -128 342 -149 q 431 -106 388 -106 q 498 -128 474 -106 q 521 -187 521 -149 q 498 -245 521 -224 q 431 -267 475 -267 z "},"è":{"ha":833,"x_min":72,"x_max":774,"o":"m 774 332 l 226 332 q 261 200 230 250 q 355 126 292 149 q 515 102 417 102 q 731 132 613 102 l 731 17 q 494 -14 608 -14 q 177 82 283 -14 q 72 376 72 177 q 115 589 72 501 q 237 722 157 676 q 431 767 317 767 q 685 666 597 767 q 774 372 774 564 l 774 332 m 428 665 q 280 607 331 665 q 225 425 228 548 l 628 425 q 576 607 626 548 q 428 665 526 665 m 356 866 l 150 1122 l 322 1122 l 506 866 l 356 866 z "},"ẻ":{"ha":833,"x_min":72,"x_max":774,"o":"m 774 332 l 226 332 q 261 200 230 250 q 355 126 292 149 q 515 102 417 102 q 731 132 613 102 l 731 17 q 494 -14 608 -14 q 177 82 283 -14 q 72 376 72 177 q 115 589 72 501 q 237 722 157 676 q 431 767 317 767 q 685 666 597 767 q 774 372 774 564 l 774 332 m 428 665 q 280 607 331 665 q 225 425 228 548 l 628 425 q 576 607 626 548 q 428 665 526 665 m 390 866 q 401 913 390 893 q 427 944 413 932 q 464 970 442 956 q 498 995 488 985 q 509 1022 509 1006 q 489 1055 509 1044 q 422 1065 468 1065 q 301 1048 358 1065 l 301 1113 q 361 1126 326 1122 q 428 1131 397 1131 q 554 1105 513 1131 q 594 1030 594 1080 q 579 978 594 997 q 532 940 563 960 q 491 906 505 922 q 474 866 476 891 l 390 866 z "},"ȇ":{"ha":833,"x_min":72,"x_max":774,"o":"m 774 332 l 226 332 q 261 200 230 250 q 355 126 292 149 q 515 102 417 102 q 731 132 613 102 l 731 17 q 494 -14 608 -14 q 177 82 283 -14 q 72 376 72 177 q 115 589 72 501 q 237 722 157 676 q 431 767 317 767 q 685 666 597 767 q 774 372 774 564 l 774 332 m 428 665 q 280 607 331 665 q 225 425 228 548 l 628 425 q 576 607 626 548 q 428 665 526 665 m 179 885 q 249 1056 185 993 q 431 1118 313 1118 q 565 1089 509 1118 q 650 1008 620 1060 q 683 885 680 956 l 585 885 q 541 995 579 956 q 431 1034 503 1034 q 277 885 290 1034 l 179 885 z "},"ē":{"ha":833,"x_min":72,"x_max":774,"o":"m 774 332 l 226 332 q 261 200 230 250 q 355 126 292 149 q 515 102 417 102 q 731 132 613 102 l 731 17 q 494 -14 608 -14 q 177 82 283 -14 q 72 376 72 177 q 115 589 72 501 q 237 722 157 676 q 431 767 317 767 q 685 666 597 767 q 774 372 774 564 l 774 332 m 428 665 q 280 607 331 665 q 225 425 228 548 l 628 425 q 576 607 626 548 q 428 665 526 665 m 185 941 l 185 1034 l 678 1034 l 678 941 l 185 941 z "},"ḗ":{"ha":833,"x_min":72,"x_max":774,"o":"m 774 332 l 226 332 q 261 200 230 250 q 355 126 292 149 q 515 102 417 102 q 731 132 613 102 l 731 17 q 494 -14 608 -14 q 177 82 283 -14 q 72 376 72 177 q 115 589 72 501 q 237 722 157 676 q 431 767 317 767 q 685 666 597 767 q 774 372 774 564 l 774 332 m 428 665 q 280 607 331 665 q 225 425 228 548 l 628 425 q 576 607 626 548 q 428 665 526 665 m 185 941 l 185 1034 l 678 1034 l 678 941 l 185 941 m 358 1155 l 508 1356 l 676 1356 l 502 1155 l 358 1155 z "},"ḕ":{"ha":833,"x_min":72,"x_max":774,"o":"m 774 332 l 226 332 q 261 200 230 250 q 355 126 292 149 q 515 102 417 102 q 731 132 613 102 l 731 17 q 494 -14 608 -14 q 177 82 283 -14 q 72 376 72 177 q 115 589 72 501 q 237 722 157 676 q 431 767 317 767 q 685 666 597 767 q 774 372 774 564 l 774 332 m 428 665 q 280 607 331 665 q 225 425 228 548 l 628 425 q 576 607 626 548 q 428 665 526 665 m 185 941 l 185 1034 l 678 1034 l 678 941 l 185 941 m 359 1155 l 185 1356 l 354 1356 l 503 1155 l 359 1155 z "},"ę":{"ha":833,"x_min":72,"x_max":774,"o":"m 774 332 l 226 332 q 261 200 230 250 q 355 126 292 149 q 515 102 417 102 q 731 132 613 102 l 731 17 q 532 -150 532 -42 q 557 -206 532 -185 q 626 -227 581 -227 q 731 -201 677 -227 l 731 -268 q 608 -294 674 -294 q 483 -258 527 -294 q 439 -161 439 -222 q 461 -80 439 -117 q 526 -13 483 -42 q 494 -14 515 -14 q 177 82 283 -14 q 72 376 72 177 q 115 589 72 501 q 237 722 157 676 q 431 767 317 767 q 685 666 597 767 q 774 372 774 564 l 774 332 m 428 663 q 280 604 331 663 q 225 422 228 545 l 628 422 q 575 604 626 545 q 428 663 525 663 z "},"ẽ":{"ha":833,"x_min":72,"x_max":774,"o":"m 774 332 l 226 332 q 261 200 230 250 q 355 126 292 149 q 515 102 417 102 q 731 132 613 102 l 731 17 q 494 -14 608 -14 q 177 82 283 -14 q 72 376 72 177 q 115 589 72 501 q 237 722 157 676 q 431 767 317 767 q 685 666 597 767 q 774 372 774 564 l 774 332 m 428 665 q 280 607 331 665 q 225 425 228 548 l 628 425 q 576 607 626 548 q 428 665 526 665 m 543 921 q 486 929 513 921 q 420 952 459 937 q 362 973 385 966 q 316 979 339 979 q 247 966 278 979 q 185 925 215 953 l 185 1024 q 243 1061 210 1049 q 319 1073 276 1073 q 376 1065 349 1073 q 442 1042 403 1057 q 500 1021 477 1028 q 547 1015 524 1015 q 616 1027 585 1015 q 678 1069 647 1040 l 678 969 q 619 933 652 944 q 543 921 586 921 z "},"ə":{"ha":833,"x_min":60,"x_max":761,"o":"m 340 769 q 656 674 551 769 q 761 379 761 578 q 719 167 761 254 q 596 34 676 79 q 403 -12 516 -12 q 148 90 236 -12 q 60 383 60 192 l 60 424 l 608 424 q 572 556 603 506 q 478 630 541 606 q 318 653 416 653 q 103 624 221 653 l 103 738 q 340 769 226 769 m 405 90 q 553 149 502 90 q 608 331 605 208 l 205 331 q 258 149 208 208 q 405 90 308 90 z "},"f":{"ha":592,"x_min":23,"x_max":624,"o":"m 524 1013 q 375 969 422 1013 q 328 828 328 926 l 328 756 l 590 756 l 590 631 l 328 631 l 328 0 l 174 0 l 174 631 l 23 631 l 23 756 l 174 756 l 174 821 q 259 1055 174 974 q 504 1136 344 1136 q 624 1127 559 1136 l 624 1004 q 524 1013 573 1013 z "},"g":{"ha":924,"x_min":72,"x_max":809,"o":"m 398 -319 q 259 -310 331 -319 q 124 -281 188 -301 l 124 -158 q 389 -199 264 -199 q 542 -176 484 -199 q 627 -104 600 -153 q 655 28 655 -54 l 655 85 l 647 85 q 540 17 602 41 q 403 -6 478 -6 q 234 34 309 -6 q 116 156 159 74 q 72 362 72 239 q 184 664 72 560 q 514 767 296 767 q 666 757 590 767 q 809 727 743 747 l 809 56 q 764 -159 809 -76 q 629 -281 719 -242 q 398 -319 538 -319 m 451 120 q 562 140 509 120 q 655 201 615 160 l 655 629 q 500 647 585 647 q 295 580 364 647 q 226 375 226 513 q 286 181 226 241 q 451 120 347 120 z "},"ǵ":{"ha":924,"x_min":72,"x_max":809,"o":"m 398 -319 q 259 -310 331 -319 q 124 -281 188 -301 l 124 -158 q 389 -199 264 -199 q 542 -176 484 -199 q 627 -104 600 -153 q 655 28 655 -54 l 655 85 l 647 85 q 540 17 602 41 q 403 -6 478 -6 q 234 34 309 -6 q 116 156 159 74 q 72 362 72 239 q 184 664 72 560 q 514 767 296 767 q 666 757 590 767 q 809 727 743 747 l 809 56 q 764 -159 809 -76 q 629 -281 719 -242 q 398 -319 538 -319 m 451 120 q 562 140 509 120 q 655 201 615 160 l 655 629 q 500 647 585 647 q 295 580 364 647 q 226 375 226 513 q 286 181 226 241 q 451 120 347 120 m 403 866 l 587 1122 l 759 1122 l 553 866 l 403 866 z "},"ğ":{"ha":924,"x_min":72,"x_max":809,"o":"m 398 -319 q 259 -310 331 -319 q 124 -281 188 -301 l 124 -158 q 389 -199 264 -199 q 542 -176 484 -199 q 627 -104 600 -153 q 655 28 655 -54 l 655 85 l 647 85 q 540 17 602 41 q 403 -6 478 -6 q 234 34 309 -6 q 116 156 159 74 q 72 362 72 239 q 184 664 72 560 q 514 767 296 767 q 666 757 590 767 q 809 727 743 747 l 809 56 q 764 -159 809 -76 q 629 -281 719 -242 q 398 -319 538 -319 m 451 120 q 562 140 509 120 q 655 201 615 160 l 655 629 q 500 647 585 647 q 295 580 364 647 q 226 375 226 513 q 286 181 226 241 q 451 120 347 120 m 478 872 q 344 901 400 872 q 259 982 289 930 q 226 1105 229 1035 l 324 1105 q 478 956 336 956 q 632 1105 619 956 l 730 1105 q 660 935 724 997 q 478 872 595 872 z "},"ǧ":{"ha":924,"x_min":72,"x_max":809,"o":"m 398 -319 q 259 -310 331 -319 q 124 -281 188 -301 l 124 -158 q 389 -199 264 -199 q 542 -176 484 -199 q 627 -104 600 -153 q 655 28 655 -54 l 655 85 l 647 85 q 540 17 602 41 q 403 -6 478 -6 q 234 34 309 -6 q 116 156 159 74 q 72 362 72 239 q 184 664 72 560 q 514 767 296 767 q 666 757 590 767 q 809 727 743 747 l 809 56 q 764 -159 809 -76 q 629 -281 719 -242 q 398 -319 538 -319 m 451 120 q 562 140 509 120 q 655 201 615 160 l 655 629 q 500 647 585 647 q 295 580 364 647 q 226 375 226 513 q 286 181 226 241 q 451 120 347 120 m 610 1122 l 733 1122 l 542 866 l 414 866 l 223 1122 l 346 1122 l 478 942 l 610 1122 z "},"ĝ":{"ha":924,"x_min":72,"x_max":809,"o":"m 398 -319 q 259 -310 331 -319 q 124 -281 188 -301 l 124 -158 q 389 -199 264 -199 q 542 -176 484 -199 q 627 -104 600 -153 q 655 28 655 -54 l 655 85 l 647 85 q 540 17 602 41 q 403 -6 478 -6 q 234 34 309 -6 q 116 156 159 74 q 72 362 72 239 q 184 664 72 560 q 514 767 296 767 q 666 757 590 767 q 809 727 743 747 l 809 56 q 764 -159 809 -76 q 629 -281 719 -242 q 398 -319 538 -319 m 451 120 q 562 140 509 120 q 655 201 615 160 l 655 629 q 500 647 585 647 q 295 580 364 647 q 226 375 226 513 q 286 181 226 241 q 451 120 347 120 m 730 866 l 606 866 l 478 1045 l 349 866 l 226 866 l 414 1122 l 542 1122 l 730 866 z "},"ģ":{"ha":924,"x_min":72,"x_max":809,"o":"m 398 -319 q 259 -310 331 -319 q 124 -281 188 -301 l 124 -158 q 389 -199 264 -199 q 542 -176 484 -199 q 627 -104 600 -153 q 655 28 655 -54 l 655 85 l 647 85 q 540 17 602 41 q 403 -6 478 -6 q 234 34 309 -6 q 116 156 159 74 q 72 362 72 239 q 184 664 72 560 q 514 767 296 767 q 666 757 590 767 q 809 727 743 747 l 809 56 q 764 -159 809 -76 q 629 -281 719 -242 q 398 -319 538 -319 m 451 120 q 562 140 509 120 q 655 201 615 160 l 655 629 q 500 647 585 647 q 295 580 364 647 q 226 375 226 513 q 286 181 226 241 q 451 120 347 120 m 492 1030 q 551 1011 532 1028 q 571 967 571 995 q 548 921 571 938 q 479 904 525 904 q 385 989 385 904 q 397 1060 385 1022 q 429 1129 408 1098 l 524 1129 q 492 1030 497 1071 z "},"ġ":{"ha":924,"x_min":72,"x_max":809,"o":"m 398 -319 q 259 -310 331 -319 q 124 -281 188 -301 l 124 -158 q 389 -199 264 -199 q 542 -176 484 -199 q 627 -104 600 -153 q 655 28 655 -54 l 655 85 l 647 85 q 540 17 602 41 q 403 -6 478 -6 q 234 34 309 -6 q 116 156 159 74 q 72 362 72 239 q 184 664 72 560 q 514 767 296 767 q 666 757 590 767 q 809 727 743 747 l 809 56 q 764 -159 809 -76 q 629 -281 719 -242 q 398 -319 538 -319 m 451 120 q 562 140 509 120 q 655 201 615 160 l 655 629 q 500 647 585 647 q 295 580 364 647 q 226 375 226 513 q 286 181 226 241 q 451 120 347 120 m 478 903 q 403 924 428 903 q 378 986 378 946 q 403 1049 378 1027 q 478 1071 428 1071 q 552 1049 527 1071 q 578 986 578 1027 q 552 924 578 946 q 478 903 527 903 z "},"ḡ":{"ha":924,"x_min":72,"x_max":809,"o":"m 398 -319 q 259 -310 331 -319 q 124 -281 188 -301 l 124 -158 q 389 -199 264 -199 q 542 -176 484 -199 q 627 -104 600 -153 q 655 28 655 -54 l 655 85 l 647 85 q 540 17 602 41 q 403 -6 478 -6 q 234 34 309 -6 q 116 156 159 74 q 72 362 72 239 q 184 664 72 560 q 514 767 296 767 q 666 757 590 767 q 809 727 743 747 l 809 56 q 764 -159 809 -76 q 629 -281 719 -242 q 398 -319 538 -319 m 451 120 q 562 140 509 120 q 655 201 615 160 l 655 629 q 500 647 585 647 q 295 580 364 647 q 226 375 226 513 q 286 181 226 241 q 451 120 347 120 m 231 941 l 231 1034 l 724 1034 l 724 941 l 231 941 z "},"h":{"ha":923,"x_min":115,"x_max":818,"o":"m 115 1122 l 269 1122 l 269 675 l 276 675 q 395 744 328 720 q 536 767 463 767 q 742 693 667 767 q 818 465 818 619 l 818 0 l 664 0 l 664 457 q 620 594 664 553 q 492 635 576 635 q 370 611 429 635 q 269 543 312 588 l 269 0 l 115 0 l 115 1122 z "},"ħ":{"ha":923,"x_min":7,"x_max":818,"o":"m 536 767 q 742 693 667 767 q 818 465 818 619 l 818 0 l 664 0 l 664 457 q 620 594 664 553 q 492 635 576 635 q 370 611 429 635 q 269 543 312 588 l 269 0 l 115 0 l 115 892 l 7 892 l 7 988 l 115 988 l 115 1122 l 269 1122 l 269 988 l 564 988 l 564 892 l 269 892 l 269 675 l 276 675 q 395 744 328 720 q 536 767 463 767 z "},"ḫ":{"ha":923,"x_min":115,"x_max":818,"o":"m 115 1122 l 269 1122 l 269 675 l 276 675 q 395 744 328 720 q 536 767 463 767 q 742 693 667 767 q 818 465 818 619 l 818 0 l 664 0 l 664 457 q 620 594 664 553 q 492 635 576 635 q 370 611 429 635 q 269 543 312 588 l 269 0 l 115 0 l 115 1122 m 467 -300 q 331 -275 388 -300 q 245 -207 275 -251 q 215 -105 216 -162 l 313 -105 q 354 -186 316 -158 q 467 -215 392 -215 q 621 -105 614 -215 l 719 -105 q 689 -207 717 -163 q 603 -276 660 -251 q 467 -300 547 -300 z "},"ĥ":{"ha":923,"x_min":115,"x_max":818,"o":"m 115 1122 l 269 1122 l 269 675 l 276 675 q 395 744 328 720 q 536 767 463 767 q 742 693 667 767 q 818 465 818 619 l 818 0 l 664 0 l 664 457 q 620 594 664 553 q 492 635 576 635 q 370 611 429 635 q 269 543 312 588 l 269 0 l 115 0 l 115 1122 m 745 1181 l 608 1181 l 467 1319 l 326 1181 l 188 1181 l 399 1381 l 535 1381 l 745 1181 z "},"ḥ":{"ha":923,"x_min":115,"x_max":818,"o":"m 115 1122 l 269 1122 l 269 675 l 276 675 q 395 744 328 720 q 536 767 463 767 q 742 693 667 767 q 818 465 818 619 l 818 0 l 664 0 l 664 457 q 620 594 664 553 q 492 635 576 635 q 370 611 429 635 q 269 543 312 588 l 269 0 l 115 0 l 115 1122 m 467 -267 q 400 -245 423 -267 q 377 -187 377 -224 q 400 -128 377 -149 q 467 -106 424 -106 q 533 -128 510 -106 q 556 -187 556 -149 q 533 -245 556 -224 q 467 -267 510 -267 z "},"i":{"ha":383,"x_min":92,"x_max":292,"o":"m 115 0 l 115 756 l 269 756 l 269 0 l 115 0 m 192 903 q 117 924 142 903 q 92 986 92 946 q 117 1049 92 1027 q 192 1071 142 1071 q 266 1049 241 1071 q 292 986 292 1027 q 266 924 292 946 q 192 903 241 903 z "},"ı":{"ha":383,"x_min":115,"x_max":269,"o":"m 115 0 l 115 756 l 269 756 l 269 0 l 115 0 z "},"í":{"ha":383,"x_min":115,"x_max":473,"o":"m 115 0 l 115 756 l 269 756 l 269 0 l 115 0 m 117 866 l 301 1122 l 473 1122 l 267 866 l 117 866 z "},"ĭ":{"ha":383,"x_min":-60,"x_max":444,"o":"m 115 0 l 115 756 l 269 756 l 269 0 l 115 0 m 192 872 q 58 901 114 872 q -27 982 3 930 q -60 1105 -57 1035 l 38 1105 q 192 956 50 956 q 346 1105 333 956 l 444 1105 q 374 935 438 997 q 192 872 309 872 z "},"î":{"ha":383,"x_min":-60,"x_max":444,"o":"m 115 0 l 115 756 l 269 756 l 269 0 l 115 0 m 444 866 l 320 866 l 192 1045 l 63 866 l -60 866 l 128 1122 l 256 1122 l 444 866 z "},"ȉ":{"ha":383,"x_min":-132,"x_max":385,"o":"m 115 0 l 115 756 l 269 756 l 269 0 l 115 0 m -1 866 l -132 1122 l -7 1122 l 115 866 l -1 866 m 269 866 l 138 1122 l 263 1122 l 385 866 l 269 866 z "},"ï":{"ha":383,"x_min":-77,"x_max":460,"o":"m 115 0 l 115 756 l 269 756 l 269 0 l 115 0 m 13 904 q -54 926 -31 904 q -77 986 -77 947 q -54 1047 -77 1025 q 13 1069 -31 1069 q 79 1047 56 1069 q 102 986 102 1025 q 79 926 102 947 q 13 904 56 904 m 371 904 q 304 926 327 904 q 281 986 281 947 q 304 1047 281 1025 q 371 1069 327 1069 q 438 1047 415 1069 q 460 986 460 1025 q 438 926 460 947 q 371 904 415 904 z "},"ḯ":{"ha":383,"x_min":-77,"x_max":460,"o":"m 115 0 l 115 756 l 269 756 l 269 0 l 115 0 m 13 904 q -54 926 -31 904 q -77 986 -77 947 q -54 1047 -77 1025 q 13 1069 -31 1069 q 79 1047 56 1069 q 102 986 102 1025 q 79 926 102 947 q 13 904 56 904 m 371 904 q 304 926 327 904 q 281 986 281 947 q 304 1047 281 1025 q 371 1069 327 1069 q 438 1047 415 1069 q 460 986 460 1025 q 438 926 460 947 q 371 904 415 904 m 119 1155 l 268 1356 l 436 1356 l 263 1155 l 119 1155 z "},"ị":{"ha":383,"x_min":92,"x_max":292,"o":"m 115 0 l 115 756 l 269 756 l 269 0 l 115 0 m 192 903 q 117 924 142 903 q 92 986 92 946 q 117 1049 92 1027 q 192 1071 142 1071 q 266 1049 241 1071 q 292 986 292 1027 q 266 924 292 946 q 192 903 241 903 m 192 -267 q 125 -245 148 -267 q 102 -187 102 -224 q 125 -128 102 -149 q 192 -106 149 -106 q 258 -128 235 -106 q 281 -187 281 -149 q 258 -245 281 -224 q 192 -267 235 -267 z "},"ì":{"ha":383,"x_min":-90,"x_max":269,"o":"m 115 0 l 115 756 l 269 756 l 269 0 l 115 0 m 117 866 l -90 1122 l 83 1122 l 267 866 l 117 866 z "},"ỉ":{"ha":383,"x_min":61,"x_max":355,"o":"m 115 0 l 115 756 l 269 756 l 269 0 l 115 0 m 150 866 q 162 913 151 893 q 188 944 173 932 q 224 970 202 956 q 259 995 248 985 q 269 1022 269 1006 q 249 1055 269 1044 q 183 1065 228 1065 q 61 1048 118 1065 l 61 1113 q 122 1126 86 1122 q 189 1131 157 1131 q 314 1105 274 1131 q 355 1030 355 1080 q 339 978 355 997 q 292 940 324 960 q 251 906 265 922 q 235 866 237 891 l 150 866 z "},"ȋ":{"ha":383,"x_min":-60,"x_max":444,"o":"m 115 0 l 115 756 l 269 756 l 269 0 l 115 0 m -60 885 q 9 1056 -55 993 q 191 1118 73 1118 q 325 1089 269 1118 q 410 1008 381 1060 q 444 885 440 956 l 346 885 q 302 995 340 956 q 191 1034 264 1034 q 38 885 50 1034 l -60 885 z "},"ī":{"ha":383,"x_min":-55,"x_max":438,"o":"m 115 0 l 115 756 l 269 756 l 269 0 l 115 0 m -55 941 l -55 1034 l 438 1034 l 438 941 l -55 941 z "},"į":{"ha":383,"x_min":33,"x_max":324,"o":"m 192 903 q 117 924 142 903 q 92 986 92 946 q 117 1049 92 1027 q 192 1071 142 1071 q 266 1049 241 1071 q 292 986 292 1027 q 266 924 292 946 q 192 903 241 903 m 219 -227 q 324 -201 271 -227 l 324 -268 q 202 -294 267 -294 q 77 -258 121 -294 q 33 -161 33 -222 q 58 -73 33 -113 q 138 0 83 -33 l 115 0 l 115 756 l 269 756 l 269 0 q 158 -71 191 -35 q 126 -151 126 -106 q 150 -207 126 -186 q 219 -227 175 -227 z "},"ĩ":{"ha":383,"x_min":-55,"x_max":438,"o":"m 115 0 l 115 756 l 269 756 l 269 0 l 115 0 m 303 921 q 247 929 274 921 q 181 952 219 937 q 123 973 146 966 q 76 979 99 979 q 7 966 38 979 q -55 925 -24 953 l -55 1024 q 4 1061 -29 1049 q 80 1073 37 1073 q 137 1065 110 1073 q 203 1042 164 1057 q 261 1021 238 1028 q 307 1015 284 1015 q 376 1027 345 1015 q 438 1069 408 1040 l 438 969 q 380 933 413 944 q 303 921 347 921 z "},"j":{"ha":383,"x_min":-15,"x_max":289,"o":"m -15 -257 q 84 -85 53 -174 q 115 119 115 3 l 115 756 l 269 756 l 269 125 q 225 -113 269 -6 q 83 -324 182 -219 l -15 -257 m 189 908 q 114 929 140 908 q 89 991 89 951 q 114 1054 89 1032 q 189 1076 140 1076 q 264 1054 238 1076 q 289 991 289 1032 q 264 929 289 951 q 189 908 238 908 z "},"ȷ":{"ha":383,"x_min":-15,"x_max":269,"o":"m -15 -257 q 84 -85 53 -174 q 115 119 115 3 l 115 756 l 269 756 l 269 125 q 225 -113 269 -6 q 83 -324 182 -219 l -15 -257 z "},"ĵ":{"ha":383,"x_min":-63,"x_max":441,"o":"m -15 -257 q 84 -85 53 -174 q 115 119 115 3 l 115 756 l 269 756 l 269 125 q 225 -113 269 -6 q 83 -324 182 -219 l -15 -257 m 441 871 l 317 871 l 189 1050 l 60 871 l -63 871 l 125 1127 l 253 1127 l 441 871 z "},"k":{"ha":852,"x_min":115,"x_max":865,"o":"m 692 0 l 418 324 l 269 324 l 269 0 l 115 0 l 115 1122 l 269 1122 l 269 451 l 418 451 l 672 756 l 842 756 l 543 390 l 865 0 l 692 0 z "},"ķ":{"ha":852,"x_min":115,"x_max":865,"o":"m 692 0 l 418 324 l 269 324 l 269 0 l 115 0 l 115 1122 l 269 1122 l 269 451 l 418 451 l 672 756 l 842 756 l 543 390 l 865 0 l 692 0 m 445 -106 q 540 -191 540 -106 q 528 -261 540 -224 q 495 -331 516 -299 l 401 -331 q 433 -232 426 -276 q 373 -214 392 -230 q 353 -169 353 -197 q 376 -123 353 -140 q 445 -106 399 -106 z "},"ĸ":{"ha":852,"x_min":115,"x_max":865,"o":"m 692 0 l 418 324 l 269 324 l 269 0 l 115 0 l 115 756 l 269 756 l 269 451 l 418 451 l 672 756 l 842 756 l 543 390 l 865 0 l 692 0 z "},"l":{"ha":383,"x_min":115,"x_max":269,"o":"m 115 0 l 115 1122 l 269 1122 l 269 0 l 115 0 z "},"ĺ":{"ha":383,"x_min":115,"x_max":436,"o":"m 115 0 l 115 1122 l 269 1122 l 269 0 l 115 0 m 119 1181 l 268 1381 l 436 1381 l 263 1181 l 119 1181 z "},"ľ":{"ha":383,"x_min":115,"x_max":461,"o":"m 115 0 l 115 1122 l 269 1122 l 269 0 l 115 0 m 338 819 q 355 1122 355 945 l 461 1122 q 451 964 461 1043 q 422 819 441 885 l 338 819 z "},"ļ":{"ha":383,"x_min":98,"x_max":284,"o":"m 115 0 l 115 1122 l 269 1122 l 269 0 l 115 0 m 190 -106 q 284 -191 284 -106 q 272 -261 284 -224 q 240 -331 260 -299 l 145 -331 q 177 -232 171 -276 q 117 -214 137 -230 q 98 -169 98 -197 q 121 -123 98 -140 q 190 -106 144 -106 z "},"ŀ":{"ha":504,"x_min":115,"x_max":537,"o":"m 115 0 l 115 1122 l 269 1122 l 269 0 l 115 0 m 436 467 q 361 489 387 467 q 336 551 336 510 q 361 613 336 591 q 436 635 387 635 q 511 613 485 635 q 537 551 537 591 q 511 489 537 510 q 436 467 485 467 z "},"ḷ":{"ha":383,"x_min":101,"x_max":281,"o":"m 115 0 l 115 1122 l 269 1122 l 269 0 l 115 0 m 191 -267 q 124 -245 147 -267 q 101 -187 101 -224 q 125 -128 101 -149 q 191 -106 148 -106 q 257 -128 234 -106 q 281 -187 281 -149 q 258 -245 281 -224 q 191 -267 235 -267 z "},"ǉ":{"ha":767,"x_min":115,"x_max":672,"o":"m 115 0 l 115 1122 l 269 1122 l 269 0 l 115 0 m 369 -257 q 467 -85 437 -174 q 498 119 498 3 l 498 756 l 652 756 l 652 125 q 609 -113 652 -6 q 467 -324 565 -219 l 369 -257 m 572 908 q 498 929 523 908 q 472 991 472 951 q 498 1054 472 1032 q 572 1076 523 1076 q 647 1054 622 1076 q 672 991 672 1032 q 647 929 672 951 q 572 908 622 908 z "},"ḻ":{"ha":383,"x_min":-40,"x_max":422,"o":"m 115 0 l 115 1122 l 269 1122 l 269 0 l 115 0 m -40 -233 l -40 -140 l 422 -140 l 422 -233 l -40 -233 z "},"ł":{"ha":405,"x_min":-4,"x_max":410,"o":"m 410 565 l 280 485 l 280 0 l 126 0 l 126 391 l 44 341 l -4 426 l 126 506 l 126 1122 l 280 1122 l 280 601 l 362 651 l 410 565 z "},"m":{"ha":1344,"x_min":115,"x_max":1240,"o":"m 973 767 q 1169 694 1098 767 q 1240 465 1240 620 l 1240 0 l 1085 0 l 1085 457 q 1046 594 1085 552 q 935 635 1007 635 q 835 615 883 635 q 750 551 786 594 q 756 466 756 513 l 756 0 l 605 0 l 605 457 q 568 594 605 553 q 460 635 531 635 q 355 612 406 635 q 269 542 305 588 l 269 0 l 115 0 l 115 756 l 242 756 l 252 673 l 261 673 q 369 743 307 719 q 501 767 431 767 q 627 741 573 767 q 713 660 681 715 q 838 742 770 716 q 973 767 905 767 z "},"ṃ":{"ha":1344,"x_min":115,"x_max":1240,"o":"m 973 767 q 1169 694 1098 767 q 1240 465 1240 620 l 1240 0 l 1085 0 l 1085 457 q 1046 594 1085 552 q 935 635 1007 635 q 835 615 883 635 q 750 551 786 594 q 756 466 756 513 l 756 0 l 605 0 l 605 457 q 568 594 605 553 q 460 635 531 635 q 355 612 406 635 q 269 542 305 588 l 269 0 l 115 0 l 115 756 l 242 756 l 252 673 l 261 673 q 369 743 307 719 q 501 767 431 767 q 627 741 573 767 q 713 660 681 715 q 838 742 770 716 q 973 767 905 767 m 681 -267 q 615 -245 638 -267 q 592 -187 592 -224 q 615 -128 592 -149 q 681 -106 638 -106 q 748 -128 724 -106 q 771 -187 771 -149 q 748 -245 771 -224 q 681 -267 725 -267 z "},"n":{"ha":923,"x_min":115,"x_max":818,"o":"m 115 756 l 242 756 l 252 673 l 261 673 q 384 743 315 718 q 529 767 453 767 q 741 693 665 767 q 818 461 818 619 l 818 0 l 664 0 l 664 455 q 620 593 664 551 q 492 635 576 635 q 372 613 431 635 q 269 544 313 590 l 269 0 l 115 0 l 115 756 z "},"ń":{"ha":923,"x_min":115,"x_max":818,"o":"m 115 756 l 242 756 l 252 673 l 261 673 q 384 743 315 718 q 529 767 453 767 q 741 693 665 767 q 818 461 818 619 l 818 0 l 664 0 l 664 455 q 620 593 664 551 q 492 635 576 635 q 372 613 431 635 q 269 544 313 590 l 269 0 l 115 0 l 115 756 m 392 866 l 576 1122 l 748 1122 l 542 866 l 392 866 z "},"ŉ":{"ha":923,"x_min":10,"x_max":818,"o":"m 115 756 l 242 756 l 252 673 l 261 673 q 384 743 315 718 q 529 767 453 767 q 741 693 665 767 q 818 461 818 619 l 818 0 l 664 0 l 664 455 q 620 593 664 551 q 492 635 576 635 q 372 613 431 635 q 269 544 313 590 l 269 0 l 115 0 l 115 756 m 101 1129 q 197 1044 197 1129 q 184 974 197 1012 q 151 904 172 936 l 58 904 q 89 1003 84 960 q 29 1022 49 1006 q 10 1066 10 1038 q 33 1112 10 1095 q 101 1129 56 1129 z "},"ň":{"ha":923,"x_min":115,"x_max":818,"o":"m 115 756 l 242 756 l 252 673 l 261 673 q 384 743 315 718 q 529 767 453 767 q 741 693 665 767 q 818 461 818 619 l 818 0 l 664 0 l 664 455 q 620 593 664 551 q 492 635 576 635 q 372 613 431 635 q 269 544 313 590 l 269 0 l 115 0 l 115 756 m 599 1122 l 722 1122 l 531 866 l 403 866 l 212 1122 l 335 1122 l 467 942 l 599 1122 z "},"ņ":{"ha":923,"x_min":115,"x_max":818,"o":"m 115 756 l 242 756 l 252 673 l 261 673 q 384 743 315 718 q 529 767 453 767 q 741 693 665 767 q 818 461 818 619 l 818 0 l 664 0 l 664 455 q 620 593 664 551 q 492 635 576 635 q 372 613 431 635 q 269 544 313 590 l 269 0 l 115 0 l 115 756 m 465 -106 q 560 -191 560 -106 q 548 -261 560 -224 q 515 -331 536 -299 l 421 -331 q 453 -232 447 -276 q 393 -214 413 -230 q 374 -169 374 -197 q 397 -123 374 -140 q 465 -106 419 -106 z "},"ṅ":{"ha":923,"x_min":115,"x_max":818,"o":"m 115 756 l 242 756 l 252 673 l 261 673 q 384 743 315 718 q 529 767 453 767 q 741 693 665 767 q 818 461 818 619 l 818 0 l 664 0 l 664 455 q 620 593 664 551 q 492 635 576 635 q 372 613 431 635 q 269 544 313 590 l 269 0 l 115 0 l 115 756 m 467 903 q 392 924 417 903 q 367 986 367 946 q 392 1049 367 1027 q 467 1071 417 1071 q 541 1049 516 1071 q 567 986 567 1027 q 541 924 567 946 q 467 903 516 903 z "},"ṇ":{"ha":923,"x_min":115,"x_max":818,"o":"m 115 756 l 242 756 l 252 673 l 261 673 q 384 743 315 718 q 529 767 453 767 q 741 693 665 767 q 818 461 818 619 l 818 0 l 664 0 l 664 455 q 620 593 664 551 q 492 635 576 635 q 372 613 431 635 q 269 544 313 590 l 269 0 l 115 0 l 115 756 m 467 -267 q 400 -245 423 -267 q 377 -187 377 -224 q 400 -128 377 -149 q 467 -106 424 -106 q 533 -128 510 -106 q 556 -187 556 -149 q 533 -245 556 -224 q 467 -267 510 -267 z "},"ŋ":{"ha":923,"x_min":115,"x_max":818,"o":"m 535 -257 q 633 -85 603 -174 q 664 119 664 3 l 664 457 q 620 594 664 553 q 492 635 576 635 q 370 612 429 635 q 269 543 312 588 l 269 0 l 115 0 l 115 756 l 242 756 l 252 673 l 261 673 q 382 743 313 719 q 530 767 451 767 q 741 694 665 767 q 818 465 818 620 l 818 108 q 771 -120 813 -19 q 633 -324 729 -222 l 535 -257 z "},"ǌ":{"ha":1306,"x_min":115,"x_max":1212,"o":"m 115 756 l 242 756 l 252 673 l 261 673 q 384 743 315 718 q 529 767 453 767 q 741 693 665 767 q 818 461 818 619 l 818 0 l 664 0 l 664 455 q 620 593 664 551 q 492 635 576 635 q 372 613 431 635 q 269 544 313 590 l 269 0 l 115 0 l 115 756 m 908 -257 q 1007 -85 976 -174 q 1038 119 1038 3 l 1038 756 l 1192 756 l 1192 125 q 1148 -113 1192 -6 q 1006 -324 1105 -219 l 908 -257 m 1112 908 q 1037 929 1063 908 q 1012 991 1012 951 q 1037 1054 1012 1032 q 1112 1076 1063 1076 q 1186 1054 1161 1076 q 1212 991 1212 1032 q 1186 929 1212 951 q 1112 908 1161 908 z "},"ṉ":{"ha":923,"x_min":115,"x_max":818,"o":"m 115 756 l 242 756 l 252 673 l 261 673 q 384 743 315 718 q 529 767 453 767 q 741 693 665 767 q 818 461 818 619 l 818 0 l 664 0 l 664 455 q 620 593 664 551 q 492 635 576 635 q 372 613 431 635 q 269 544 313 590 l 269 0 l 115 0 l 115 756 m 235 -233 l 235 -140 l 698 -140 l 698 -233 l 235 -233 z "},"ñ":{"ha":923,"x_min":115,"x_max":818,"o":"m 115 756 l 242 756 l 252 673 l 261 673 q 384 743 315 718 q 529 767 453 767 q 741 693 665 767 q 818 461 818 619 l 818 0 l 664 0 l 664 455 q 620 593 664 551 q 492 635 576 635 q 372 613 431 635 q 269 544 313 590 l 269 0 l 115 0 l 115 756 m 578 921 q 522 929 549 921 q 456 952 494 937 q 398 973 421 966 q 351 979 374 979 q 282 966 313 979 q 220 925 251 953 l 220 1024 q 279 1061 246 1049 q 355 1073 312 1073 q 412 1065 385 1073 q 478 1042 439 1057 q 536 1021 513 1028 q 582 1015 559 1015 q 651 1027 620 1015 q 713 1069 683 1040 l 713 969 q 655 933 688 944 q 578 921 622 921 z "},"o":{"ha":906,"x_min":72,"x_max":834,"o":"m 453 -14 q 252 30 338 -14 q 119 161 166 74 q 72 378 72 249 q 118 593 72 506 q 250 724 165 680 q 453 767 335 767 q 734 669 634 767 q 834 378 834 571 q 787 163 834 251 q 654 31 740 75 q 453 -14 568 -14 m 453 108 q 680 377 680 108 q 622 581 680 517 q 453 645 563 645 q 285 581 344 645 q 226 378 226 517 q 453 108 226 108 z "},"ó":{"ha":906,"x_min":72,"x_max":834,"o":"m 453 -14 q 252 30 338 -14 q 119 161 166 74 q 72 378 72 249 q 118 593 72 506 q 250 724 165 680 q 453 767 335 767 q 734 669 634 767 q 834 378 834 571 q 787 163 834 251 q 654 31 740 75 q 453 -14 568 -14 m 453 108 q 680 377 680 108 q 622 581 680 517 q 453 645 563 645 q 285 581 344 645 q 226 378 226 517 q 453 108 226 108 m 378 866 l 563 1122 l 735 1122 l 528 866 l 378 866 z "},"ŏ":{"ha":906,"x_min":72,"x_max":834,"o":"m 453 -14 q 252 30 338 -14 q 119 161 166 74 q 72 378 72 249 q 118 593 72 506 q 250 724 165 680 q 453 767 335 767 q 734 669 634 767 q 834 378 834 571 q 787 163 834 251 q 654 31 740 75 q 453 -14 568 -14 m 453 108 q 680 377 680 108 q 622 581 680 517 q 453 645 563 645 q 285 581 344 645 q 226 378 226 517 q 453 108 226 108 m 454 872 q 320 901 376 872 q 235 982 265 930 q 201 1105 205 1035 l 299 1105 q 454 956 312 956 q 608 1105 595 956 l 706 1105 q 635 935 700 997 q 454 872 571 872 z "},"ô":{"ha":906,"x_min":72,"x_max":834,"o":"m 453 -14 q 252 30 338 -14 q 119 161 166 74 q 72 378 72 249 q 118 593 72 506 q 250 724 165 680 q 453 767 335 767 q 734 669 634 767 q 834 378 834 571 q 787 163 834 251 q 654 31 740 75 q 453 -14 568 -14 m 453 108 q 680 377 680 108 q 622 581 680 517 q 453 645 563 645 q 285 581 344 645 q 226 378 226 517 q 453 108 226 108 m 706 866 l 582 866 l 453 1045 l 325 866 l 201 866 l 390 1122 l 517 1122 l 706 866 z "},"ố":{"ha":906,"x_min":72,"x_max":907,"o":"m 453 -14 q 252 30 338 -14 q 119 161 166 74 q 72 378 72 249 q 118 593 72 506 q 250 724 165 680 q 453 767 335 767 q 734 669 634 767 q 834 378 834 571 q 787 163 834 251 q 654 31 740 75 q 453 -14 568 -14 m 453 108 q 680 377 680 108 q 622 581 680 517 q 453 645 563 645 q 285 581 344 645 q 226 378 226 517 q 453 108 226 108 m 765 1297 l 907 1297 l 733 1109 l 616 1109 l 765 1297 m 390 1122 l 517 1122 l 706 866 l 582 866 l 453 1045 l 325 866 l 201 866 l 390 1122 z "},"ộ":{"ha":906,"x_min":72,"x_max":834,"o":"m 453 -14 q 252 30 338 -14 q 119 161 166 74 q 72 378 72 249 q 118 593 72 506 q 250 724 165 680 q 453 767 335 767 q 734 669 634 767 q 834 378 834 571 q 787 163 834 251 q 654 31 740 75 q 453 -14 568 -14 m 453 108 q 680 377 680 108 q 622 581 680 517 q 453 645 563 645 q 285 581 344 645 q 226 378 226 517 q 453 108 226 108 m 453 -267 q 387 -245 410 -267 q 364 -187 364 -224 q 387 -128 364 -149 q 453 -106 410 -106 q 520 -128 497 -106 q 543 -187 543 -149 q 520 -245 543 -224 q 453 -267 497 -267 m 706 866 l 582 866 l 453 1045 l 325 866 l 201 866 l 390 1122 l 517 1122 l 706 866 z "},"ồ":{"ha":906,"x_min":72,"x_max":834,"o":"m 453 -14 q 252 30 338 -14 q 119 161 166 74 q 72 378 72 249 q 118 593 72 506 q 250 724 165 680 q 453 767 335 767 q 734 669 634 767 q 834 378 834 571 q 787 163 834 251 q 654 31 740 75 q 453 -14 568 -14 m 453 108 q 680 377 680 108 q 622 581 680 517 q 453 645 563 645 q 285 581 344 645 q 226 378 226 517 q 453 108 226 108 m 755 1109 l 638 1109 l 465 1297 l 606 1297 l 755 1109 m 390 1122 l 517 1122 l 706 866 l 582 866 l 453 1045 l 325 866 l 201 866 l 390 1122 z "},"ổ":{"ha":906,"x_min":72,"x_max":834,"o":"m 453 -14 q 252 30 338 -14 q 119 161 166 74 q 72 378 72 249 q 118 593 72 506 q 250 724 165 680 q 453 767 335 767 q 734 669 634 767 q 834 378 834 571 q 787 163 834 251 q 654 31 740 75 q 453 -14 568 -14 m 453 108 q 680 377 680 108 q 622 581 680 517 q 453 645 563 645 q 285 581 344 645 q 226 378 226 517 q 453 108 226 108 m 666 1304 q 818 1224 818 1304 q 802 1186 818 1199 q 755 1159 785 1172 q 714 1136 727 1146 q 698 1109 700 1126 l 619 1109 q 641 1153 622 1138 q 694 1183 660 1169 q 727 1199 717 1192 q 738 1217 738 1206 q 719 1240 738 1232 q 657 1247 701 1247 q 586 1243 619 1247 q 518 1228 553 1238 l 518 1283 q 586 1299 547 1293 q 666 1304 625 1304 m 390 1122 l 517 1122 l 706 866 l 582 866 l 453 1045 l 325 866 l 201 866 l 390 1122 z "},"ỗ":{"ha":906,"x_min":72,"x_max":834,"o":"m 453 -14 q 252 30 338 -14 q 119 161 166 74 q 72 378 72 249 q 118 593 72 506 q 250 724 165 680 q 453 767 335 767 q 734 669 634 767 q 834 378 834 571 q 787 163 834 251 q 654 31 740 75 q 453 -14 568 -14 m 453 108 q 680 377 680 108 q 622 581 680 517 q 453 645 563 645 q 285 581 344 645 q 226 378 226 517 q 453 108 226 108 m 571 1142 q 511 1149 539 1142 q 442 1168 483 1156 q 381 1185 404 1180 q 333 1190 358 1190 q 262 1180 294 1190 q 199 1146 231 1169 l 199 1228 q 336 1272 251 1272 q 396 1265 368 1272 q 465 1246 424 1258 q 525 1228 501 1234 q 574 1223 549 1223 q 645 1234 613 1223 q 708 1267 676 1244 l 708 1185 q 571 1142 656 1142 m 722 867 l 590 867 l 453 1035 l 317 867 l 185 867 l 385 1101 l 522 1101 l 722 867 z "},"ȍ":{"ha":906,"x_min":72,"x_max":834,"o":"m 453 -14 q 252 30 338 -14 q 119 161 166 74 q 72 378 72 249 q 118 593 72 506 q 250 724 165 680 q 453 767 335 767 q 734 669 634 767 q 834 378 834 571 q 787 163 834 251 q 654 31 740 75 q 453 -14 568 -14 m 453 108 q 680 377 680 108 q 622 581 680 517 q 453 645 563 645 q 285 581 344 645 q 226 378 226 517 q 453 108 226 108 m 260 866 l 130 1122 l 255 1122 l 376 866 l 260 866 m 531 866 l 400 1122 l 525 1122 l 647 866 l 531 866 z "},"ö":{"ha":906,"x_min":72,"x_max":834,"o":"m 453 -14 q 252 30 338 -14 q 119 161 166 74 q 72 378 72 249 q 118 593 72 506 q 250 724 165 680 q 453 767 335 767 q 734 669 634 767 q 834 378 834 571 q 787 163 834 251 q 654 31 740 75 q 453 -14 568 -14 m 453 108 q 680 377 680 108 q 622 581 680 517 q 453 645 563 645 q 285 581 344 645 q 226 378 226 517 q 453 108 226 108 m 274 904 q 208 926 231 904 q 185 986 185 947 q 208 1047 185 1025 q 274 1069 231 1069 q 341 1047 318 1069 q 364 986 364 1025 q 341 926 364 947 q 274 904 318 904 m 633 904 q 566 926 589 904 q 543 986 543 947 q 566 1047 543 1025 q 633 1069 589 1069 q 699 1047 676 1069 q 722 986 722 1025 q 699 926 722 947 q 633 904 676 904 z "},"ȫ":{"ha":906,"x_min":72,"x_max":834,"o":"m 453 -14 q 252 30 338 -14 q 119 161 166 74 q 72 378 72 249 q 118 593 72 506 q 250 724 165 680 q 453 767 335 767 q 734 669 634 767 q 834 378 834 571 q 787 163 834 251 q 654 31 740 75 q 453 -14 568 -14 m 453 108 q 680 377 680 108 q 622 581 680 517 q 453 645 563 645 q 285 581 344 645 q 226 378 226 517 q 453 108 226 108 m 274 904 q 208 926 231 904 q 185 986 185 947 q 208 1047 185 1025 q 274 1069 231 1069 q 341 1047 318 1069 q 364 986 364 1025 q 341 926 364 947 q 274 904 318 904 m 633 904 q 566 926 589 904 q 543 986 543 947 q 566 1047 543 1025 q 633 1069 589 1069 q 699 1047 676 1069 q 722 986 722 1025 q 699 926 722 947 q 633 904 676 904 m 207 1204 l 207 1297 l 700 1297 l 700 1204 l 207 1204 z "},"ȱ":{"ha":906,"x_min":72,"x_max":834,"o":"m 453 -14 q 252 30 338 -14 q 119 161 166 74 q 72 378 72 249 q 118 593 72 506 q 250 724 165 680 q 453 767 335 767 q 734 669 634 767 q 834 378 834 571 q 787 163 834 251 q 654 31 740 75 q 453 -14 568 -14 m 453 108 q 680 377 680 108 q 622 581 680 517 q 453 645 563 645 q 285 581 344 645 q 226 378 226 517 q 453 108 226 108 m 453 903 q 379 924 404 903 q 353 986 353 946 q 379 1049 353 1027 q 453 1071 404 1071 q 528 1049 503 1071 q 553 986 553 1027 q 528 924 553 946 q 453 903 503 903 m 207 1167 l 207 1260 l 700 1260 l 700 1167 l 207 1167 z "},"ọ":{"ha":906,"x_min":72,"x_max":834,"o":"m 453 -14 q 252 30 338 -14 q 119 161 166 74 q 72 378 72 249 q 118 593 72 506 q 250 724 165 680 q 453 767 335 767 q 734 669 634 767 q 834 378 834 571 q 787 163 834 251 q 654 31 740 75 q 453 -14 568 -14 m 453 108 q 680 377 680 108 q 622 581 680 517 q 453 645 563 645 q 285 581 344 645 q 226 378 226 517 q 453 108 226 108 m 453 -267 q 387 -245 410 -267 q 364 -187 364 -224 q 387 -128 364 -149 q 453 -106 410 -106 q 520 -128 497 -106 q 543 -187 543 -149 q 520 -245 543 -224 q 453 -267 497 -267 z "},"ò":{"ha":906,"x_min":72,"x_max":834,"o":"m 453 -14 q 252 30 338 -14 q 119 161 166 74 q 72 378 72 249 q 118 593 72 506 q 250 724 165 680 q 453 767 335 767 q 734 669 634 767 q 834 378 834 571 q 787 163 834 251 q 654 31 740 75 q 453 -14 568 -14 m 453 108 q 680 377 680 108 q 622 581 680 517 q 453 645 563 645 q 285 581 344 645 q 226 378 226 517 q 453 108 226 108 m 378 866 l 172 1122 l 344 1122 l 528 866 l 378 866 z "},"ỏ":{"ha":906,"x_min":72,"x_max":834,"o":"m 453 -14 q 252 30 338 -14 q 119 161 166 74 q 72 378 72 249 q 118 593 72 506 q 250 724 165 680 q 453 767 335 767 q 734 669 634 767 q 834 378 834 571 q 787 163 834 251 q 654 31 740 75 q 453 -14 568 -14 m 453 108 q 680 377 680 108 q 622 581 680 517 q 453 645 563 645 q 285 581 344 645 q 226 378 226 517 q 453 108 226 108 m 412 866 q 424 913 413 893 q 449 944 435 932 q 486 970 464 956 q 520 995 510 985 q 531 1022 531 1006 q 511 1055 531 1044 q 444 1065 490 1065 q 323 1048 380 1065 l 323 1113 q 383 1126 348 1122 q 451 1131 419 1131 q 576 1105 535 1131 q 617 1030 617 1080 q 601 978 617 997 q 554 940 585 960 q 513 906 527 922 q 497 866 499 891 l 412 866 z "},"ơ":{"ha":906,"x_min":72,"x_max":860,"o":"m 717 684 q 834 378 834 586 q 787 163 834 251 q 654 31 740 75 q 453 -14 568 -14 q 252 30 338 -14 q 119 161 166 74 q 72 378 72 249 q 119 593 72 506 q 252 724 165 680 q 458 767 338 767 q 554 763 491 767 q 610 759 589 759 q 720 786 683 759 q 757 872 757 813 q 754 917 757 895 q 743 969 751 939 l 845 969 q 857 918 853 942 q 860 867 860 895 q 823 747 860 793 q 717 684 786 700 m 453 108 q 680 377 680 108 q 622 581 680 517 q 453 645 563 645 q 285 581 344 645 q 226 378 226 517 q 453 108 226 108 z "},"ớ":{"ha":906,"x_min":72,"x_max":860,"o":"m 717 684 q 834 378 834 586 q 787 163 834 251 q 654 31 740 75 q 453 -14 568 -14 q 252 30 338 -14 q 119 161 166 74 q 72 378 72 249 q 119 593 72 506 q 252 724 165 680 q 458 767 338 767 q 554 763 491 767 q 610 759 589 759 q 720 786 683 759 q 757 872 757 813 q 754 917 757 895 q 743 969 751 939 l 845 969 q 857 918 853 942 q 860 867 860 895 q 823 747 860 793 q 717 684 786 700 m 453 108 q 680 377 680 108 q 622 581 680 517 q 453 645 563 645 q 285 581 344 645 q 226 378 226 517 q 453 108 226 108 m 376 866 l 560 1122 l 732 1122 l 526 866 l 376 866 z "},"ợ":{"ha":906,"x_min":72,"x_max":860,"o":"m 717 684 q 834 378 834 586 q 787 163 834 251 q 654 31 740 75 q 453 -14 568 -14 q 252 30 338 -14 q 119 161 166 74 q 72 378 72 249 q 119 593 72 506 q 252 724 165 680 q 458 767 338 767 q 554 763 491 767 q 610 759 589 759 q 720 786 683 759 q 757 872 757 813 q 754 917 757 895 q 743 969 751 939 l 845 969 q 857 918 853 942 q 860 867 860 895 q 823 747 860 793 q 717 684 786 700 m 453 108 q 680 377 680 108 q 622 581 680 517 q 453 645 563 645 q 285 581 344 645 q 226 378 226 517 q 453 108 226 108 m 451 -267 q 384 -245 407 -267 q 361 -187 361 -224 q 384 -128 361 -149 q 451 -106 408 -106 q 517 -128 494 -106 q 540 -187 540 -149 q 517 -245 540 -224 q 451 -267 494 -267 z "},"ờ":{"ha":906,"x_min":72,"x_max":860,"o":"m 717 684 q 834 378 834 586 q 787 163 834 251 q 654 31 740 75 q 453 -14 568 -14 q 252 30 338 -14 q 119 161 166 74 q 72 378 72 249 q 119 593 72 506 q 252 724 165 680 q 458 767 338 767 q 554 763 491 767 q 610 759 589 759 q 720 786 683 759 q 757 872 757 813 q 754 917 757 895 q 743 969 751 939 l 845 969 q 857 918 853 942 q 860 867 860 895 q 823 747 860 793 q 717 684 786 700 m 453 108 q 680 377 680 108 q 622 581 680 517 q 453 645 563 645 q 285 581 344 645 q 226 378 226 517 q 453 108 226 108 m 376 866 l 169 1122 l 342 1122 l 526 866 l 376 866 z "},"ở":{"ha":906,"x_min":72,"x_max":860,"o":"m 717 684 q 834 378 834 586 q 787 163 834 251 q 654 31 740 75 q 453 -14 568 -14 q 252 30 338 -14 q 119 161 166 74 q 72 378 72 249 q 119 593 72 506 q 252 724 165 680 q 458 767 338 767 q 554 763 491 767 q 610 759 589 759 q 720 786 683 759 q 757 872 757 813 q 754 917 757 895 q 743 969 751 939 l 845 969 q 857 918 853 942 q 860 867 860 895 q 823 747 860 793 q 717 684 786 700 m 453 108 q 680 377 680 108 q 622 581 680 517 q 453 645 563 645 q 285 581 344 645 q 226 378 226 517 q 453 108 226 108 m 409 866 q 421 913 410 893 q 447 944 432 932 q 483 970 461 956 q 518 995 507 985 q 528 1022 528 1006 q 508 1055 528 1044 q 442 1065 488 1065 q 320 1048 377 1065 l 320 1113 q 381 1126 345 1122 q 448 1131 416 1131 q 573 1105 533 1131 q 614 1030 614 1080 q 598 978 614 997 q 551 940 583 960 q 510 906 524 922 q 494 866 496 891 l 409 866 z "},"ỡ":{"ha":906,"x_min":72,"x_max":860,"o":"m 560 921 q 504 929 531 921 q 440 952 478 937 q 383 973 405 966 q 338 979 361 979 q 270 966 301 979 q 210 925 240 953 l 210 1024 q 267 1061 235 1049 q 341 1073 299 1073 q 397 1065 371 1073 q 462 1042 424 1057 q 517 1022 494 1028 q 563 1015 540 1015 q 631 1027 601 1015 q 692 1069 662 1040 l 692 969 q 634 933 666 944 q 560 921 602 921 m 717 684 q 834 378 834 586 q 787 163 834 251 q 654 31 740 75 q 453 -14 568 -14 q 252 30 338 -14 q 119 161 166 74 q 72 378 72 249 q 119 593 72 506 q 252 724 165 680 q 458 767 338 767 q 554 763 491 767 q 610 759 589 759 q 720 786 683 759 q 757 872 757 813 q 754 917 757 895 q 743 969 751 939 l 845 969 q 857 918 853 942 q 860 867 860 895 q 823 747 860 793 q 717 684 786 700 m 453 108 q 680 377 680 108 q 622 581 680 517 q 453 645 563 645 q 285 581 344 645 q 226 378 226 517 q 453 108 226 108 z "},"ő":{"ha":906,"x_min":72,"x_max":834,"o":"m 453 -14 q 252 30 338 -14 q 119 161 166 74 q 72 378 72 249 q 118 593 72 506 q 250 724 165 680 q 453 767 335 767 q 734 669 634 767 q 834 378 834 571 q 787 163 834 251 q 654 31 740 75 q 453 -14 568 -14 m 453 108 q 680 377 680 108 q 622 581 680 517 q 453 645 563 645 q 285 581 344 645 q 226 378 226 517 q 453 108 226 108 m 262 866 l 383 1122 l 507 1122 l 376 866 l 262 866 m 531 866 l 652 1122 l 776 1122 l 645 866 l 531 866 z "},"ȏ":{"ha":906,"x_min":72,"x_max":834,"o":"m 453 -14 q 252 30 338 -14 q 119 161 166 74 q 72 378 72 249 q 118 593 72 506 q 250 724 165 680 q 453 767 335 767 q 734 669 634 767 q 834 378 834 571 q 787 163 834 251 q 654 31 740 75 q 453 -14 568 -14 m 453 108 q 680 377 680 108 q 622 581 680 517 q 453 645 563 645 q 285 581 344 645 q 226 378 226 517 q 453 108 226 108 m 201 885 q 271 1056 207 993 q 453 1118 335 1118 q 587 1089 531 1118 q 672 1008 642 1060 q 706 885 702 956 l 608 885 q 564 995 601 956 q 453 1034 526 1034 q 299 885 312 1034 l 201 885 z "},"ō":{"ha":906,"x_min":72,"x_max":834,"o":"m 453 -14 q 252 30 338 -14 q 119 161 166 74 q 72 378 72 249 q 118 593 72 506 q 250 724 165 680 q 453 767 335 767 q 734 669 634 767 q 834 378 834 571 q 787 163 834 251 q 654 31 740 75 q 453 -14 568 -14 m 453 108 q 680 377 680 108 q 622 581 680 517 q 453 645 563 645 q 285 581 344 645 q 226 378 226 517 q 453 108 226 108 m 207 941 l 207 1034 l 700 1034 l 700 941 l 207 941 z "},"ṓ":{"ha":906,"x_min":72,"x_max":834,"o":"m 453 -14 q 252 30 338 -14 q 119 161 166 74 q 72 378 72 249 q 118 593 72 506 q 250 724 165 680 q 453 767 335 767 q 734 669 634 767 q 834 378 834 571 q 787 163 834 251 q 654 31 740 75 q 453 -14 568 -14 m 453 108 q 680 377 680 108 q 622 581 680 517 q 453 645 563 645 q 285 581 344 645 q 226 378 226 517 q 453 108 226 108 m 207 941 l 207 1034 l 700 1034 l 700 941 l 207 941 m 381 1155 l 530 1356 l 698 1356 l 524 1155 l 381 1155 z "},"ṑ":{"ha":906,"x_min":72,"x_max":834,"o":"m 453 -14 q 252 30 338 -14 q 119 161 166 74 q 72 378 72 249 q 118 593 72 506 q 250 724 165 680 q 453 767 335 767 q 734 669 634 767 q 834 378 834 571 q 787 163 834 251 q 654 31 740 75 q 453 -14 568 -14 m 453 108 q 680 377 680 108 q 622 581 680 517 q 453 645 563 645 q 285 581 344 645 q 226 378 226 517 q 453 108 226 108 m 207 941 l 207 1034 l 700 1034 l 700 941 l 207 941 m 381 1155 l 208 1356 l 376 1356 l 526 1155 l 381 1155 z "},"ǫ":{"ha":906,"x_min":72,"x_max":834,"o":"m 590 5 q 451 -64 490 -24 q 412 -149 412 -103 q 436 -207 412 -186 q 506 -227 461 -227 q 602 -206 553 -227 l 610 -269 q 488 -294 553 -294 q 363 -258 408 -294 q 319 -161 319 -223 q 410 -12 319 -69 q 230 42 306 -4 q 114 173 155 88 q 72 378 72 257 q 118 593 72 506 q 250 724 165 680 q 453 767 335 767 q 734 669 634 767 q 834 378 834 571 q 770 133 834 227 q 590 5 706 38 m 226 378 q 453 108 226 108 q 680 377 680 108 q 622 581 680 517 q 453 645 563 645 q 285 581 344 645 q 226 378 226 517 z "},"ø":{"ha":906,"x_min":72,"x_max":834,"o":"m 735 669 q 834 378 834 568 q 787 163 834 251 q 654 31 740 75 q 453 -14 568 -14 q 238 38 326 -14 l 183 -31 l 120 21 l 173 88 q 72 378 72 188 q 118 593 72 506 q 250 724 165 680 q 453 767 335 767 q 669 718 582 767 l 724 787 l 787 735 l 735 669 m 453 646 q 284 582 342 646 q 225 378 225 518 q 265 198 225 264 l 590 611 q 453 646 537 646 m 453 108 q 681 377 681 108 q 641 557 681 492 l 317 144 q 453 108 369 108 z "},"ǿ":{"ha":906,"x_min":72,"x_max":834,"o":"m 735 669 q 834 378 834 568 q 787 163 834 251 q 654 31 740 75 q 453 -14 568 -14 q 238 38 326 -14 l 183 -31 l 120 21 l 173 88 q 72 378 72 188 q 118 593 72 506 q 250 724 165 680 q 453 767 335 767 q 669 718 582 767 l 724 787 l 787 735 l 735 669 m 453 646 q 284 582 342 646 q 225 378 225 518 q 265 198 225 264 l 590 611 q 453 646 537 646 m 453 108 q 681 377 681 108 q 641 557 681 492 l 317 144 q 453 108 369 108 m 372 866 l 556 1122 l 728 1122 l 522 866 l 372 866 z "},"õ":{"ha":906,"x_min":72,"x_max":834,"o":"m 453 -14 q 252 30 338 -14 q 119 161 166 74 q 72 378 72 249 q 118 593 72 506 q 250 724 165 680 q 453 767 335 767 q 734 669 634 767 q 834 378 834 571 q 787 163 834 251 q 654 31 740 75 q 453 -14 568 -14 m 453 108 q 680 377 680 108 q 622 581 680 517 q 453 645 563 645 q 285 581 344 645 q 226 378 226 517 q 453 108 226 108 m 565 921 q 508 929 535 921 q 442 952 481 937 q 384 973 408 966 q 338 979 361 979 q 269 966 300 979 q 207 925 238 953 l 207 1024 q 266 1061 233 1049 q 342 1073 299 1073 q 399 1065 372 1073 q 465 1042 426 1057 q 523 1021 499 1028 q 569 1015 546 1015 q 638 1027 607 1015 q 700 1069 669 1040 l 700 969 q 641 933 674 944 q 565 921 608 921 z "},"ṍ":{"ha":906,"x_min":72,"x_max":834,"o":"m 453 -14 q 252 30 338 -14 q 119 161 166 74 q 72 378 72 249 q 118 593 72 506 q 250 724 165 680 q 453 767 335 767 q 734 669 634 767 q 834 378 834 571 q 787 163 834 251 q 654 31 740 75 q 453 -14 568 -14 m 453 108 q 680 377 680 108 q 622 581 680 517 q 453 645 563 645 q 285 581 344 645 q 226 378 226 517 q 453 108 226 108 m 565 921 q 508 929 535 921 q 442 952 481 937 q 384 973 408 966 q 338 979 361 979 q 269 966 300 979 q 207 925 238 953 l 207 1024 q 266 1061 233 1049 q 342 1073 299 1073 q 399 1065 372 1073 q 465 1042 426 1057 q 523 1021 499 1028 q 569 1015 546 1015 q 638 1027 607 1015 q 700 1069 669 1040 l 700 969 q 641 933 674 944 q 565 921 608 921 m 381 1155 l 530 1356 l 698 1356 l 524 1155 l 381 1155 z "},"ṏ":{"ha":906,"x_min":72,"x_max":834,"o":"m 453 -14 q 252 30 338 -14 q 119 161 166 74 q 72 378 72 249 q 118 593 72 506 q 250 724 165 680 q 453 767 335 767 q 734 669 634 767 q 834 378 834 571 q 787 163 834 251 q 654 31 740 75 q 453 -14 568 -14 m 453 108 q 680 377 680 108 q 622 581 680 517 q 453 645 563 645 q 285 581 344 645 q 226 378 226 517 q 453 108 226 108 m 565 921 q 508 929 535 921 q 442 952 481 937 q 384 973 408 966 q 338 979 361 979 q 269 966 300 979 q 207 925 238 953 l 207 1024 q 266 1061 233 1049 q 342 1073 299 1073 q 399 1065 372 1073 q 465 1042 426 1057 q 523 1021 499 1028 q 569 1015 546 1015 q 638 1027 607 1015 q 700 1069 669 1040 l 700 969 q 641 933 674 944 q 565 921 608 921 m 274 1167 q 208 1189 231 1167 q 185 1249 185 1210 q 208 1310 185 1288 q 274 1333 231 1333 q 341 1310 318 1333 q 364 1249 364 1288 q 341 1189 364 1210 q 274 1167 318 1167 m 633 1167 q 566 1189 589 1167 q 543 1249 543 1210 q 566 1310 543 1288 q 633 1333 589 1333 q 699 1310 676 1333 q 722 1249 722 1288 q 699 1189 722 1210 q 633 1167 676 1167 z "},"ȭ":{"ha":906,"x_min":72,"x_max":834,"o":"m 453 -14 q 252 30 338 -14 q 119 161 166 74 q 72 378 72 249 q 118 593 72 506 q 250 724 165 680 q 453 767 335 767 q 734 669 634 767 q 834 378 834 571 q 787 163 834 251 q 654 31 740 75 q 453 -14 568 -14 m 453 108 q 680 377 680 108 q 622 581 680 517 q 453 645 563 645 q 285 581 344 645 q 226 378 226 517 q 453 108 226 108 m 565 921 q 508 929 535 921 q 442 952 481 937 q 384 973 408 966 q 338 979 361 979 q 269 966 300 979 q 207 925 238 953 l 207 1024 q 266 1061 233 1049 q 342 1073 299 1073 q 399 1065 372 1073 q 465 1042 426 1057 q 523 1021 499 1028 q 569 1015 546 1015 q 638 1027 607 1015 q 700 1069 669 1040 l 700 969 q 641 933 674 944 q 565 921 608 921 m 207 1204 l 207 1297 l 700 1297 l 700 1204 l 207 1204 z "},"œ":{"ha":1433,"x_min":72,"x_max":1373,"o":"m 1373 332 l 831 332 q 866 200 835 250 q 959 126 897 149 q 1117 102 1020 102 q 1330 132 1214 102 l 1330 17 q 1095 -14 1209 -14 q 881 23 967 -14 q 747 135 794 60 q 626 24 702 62 q 446 -14 549 -14 q 249 30 333 -14 q 119 161 165 74 q 72 378 72 249 q 118 592 72 505 q 248 724 164 680 q 446 767 332 767 q 632 730 555 767 q 752 617 709 692 q 868 728 795 690 q 1038 767 942 767 q 1220 722 1145 767 q 1334 588 1295 676 q 1373 374 1373 500 l 1373 332 m 1031 665 q 885 607 935 665 q 831 425 834 548 l 1228 425 q 1175 607 1225 548 q 1031 665 1126 665 m 451 108 q 676 377 676 108 q 618 581 676 517 q 451 645 560 645 q 226 378 226 645 q 451 108 226 108 z "},"p":{"ha":924,"x_min":115,"x_max":851,"o":"m 115 756 l 244 756 l 254 670 l 262 670 q 369 742 307 716 q 506 767 432 767 q 684 728 607 767 q 807 606 762 690 q 851 392 851 522 q 742 90 851 194 q 424 -14 632 -14 q 269 -1 356 -14 l 269 -306 l 115 -306 l 115 756 m 417 107 q 628 174 559 107 q 697 381 697 242 q 469 641 697 641 q 359 619 411 641 q 269 552 307 598 l 269 124 q 417 107 333 107 z "},"þ":{"ha":924,"x_min":115,"x_max":851,"o":"m 115 1122 l 269 1122 l 269 674 l 276 674 q 383 743 322 719 q 518 767 444 767 q 689 727 614 767 q 808 603 764 688 q 851 392 851 519 q 742 90 851 194 q 424 -14 632 -14 q 269 -1 356 -14 l 269 -306 l 115 -306 l 115 1122 m 417 107 q 628 174 559 107 q 697 381 697 242 q 637 580 697 518 q 472 641 577 641 q 360 619 413 641 q 269 553 307 598 l 269 124 q 417 107 333 107 z "},"q":{"ha":924,"x_min":72,"x_max":809,"o":"m 655 78 l 647 78 q 540 10 602 33 q 403 -14 478 -14 q 234 26 308 -14 q 116 149 159 66 q 72 359 72 233 q 184 664 72 560 q 514 767 295 767 q 666 757 590 767 q 809 727 743 747 l 809 -306 l 655 -306 l 655 78 m 451 113 q 562 132 509 113 q 655 194 615 152 l 655 629 q 499 647 585 647 q 295 580 363 647 q 226 372 226 512 q 286 174 226 235 q 451 113 346 113 z "},"r":{"ha":590,"x_min":115,"x_max":580,"o":"m 115 756 l 242 756 l 253 659 l 263 659 q 368 736 303 708 q 504 764 433 764 q 580 757 544 764 l 580 619 q 497 625 546 625 q 372 601 435 625 q 269 531 309 578 l 269 0 l 115 0 l 115 756 z "},"ŕ":{"ha":590,"x_min":115,"x_max":628,"o":"m 115 756 l 242 756 l 253 659 l 263 659 q 368 736 303 708 q 504 764 433 764 q 580 757 544 764 l 580 619 q 497 625 546 625 q 372 601 435 625 q 269 531 309 578 l 269 0 l 115 0 l 115 756 m 272 866 l 456 1122 l 628 1122 l 422 866 l 272 866 z "},"ř":{"ha":590,"x_min":92,"x_max":602,"o":"m 115 756 l 242 756 l 253 659 l 263 659 q 368 736 303 708 q 504 764 433 764 q 580 757 544 764 l 580 619 q 497 625 546 625 q 372 601 435 625 q 269 531 309 578 l 269 0 l 115 0 l 115 756 m 479 1122 l 602 1122 l 411 866 l 283 866 l 92 1122 l 215 1122 l 347 942 l 479 1122 z "},"ŗ":{"ha":590,"x_min":99,"x_max":580,"o":"m 115 756 l 242 756 l 253 659 l 263 659 q 368 736 303 708 q 504 764 433 764 q 580 757 544 764 l 580 619 q 497 625 546 625 q 372 601 435 625 q 269 531 309 578 l 269 0 l 115 0 l 115 756 m 190 -106 q 285 -191 285 -106 q 273 -261 285 -224 q 240 -331 261 -299 l 146 -331 q 178 -232 172 -276 q 118 -214 138 -230 q 99 -169 99 -197 q 122 -123 99 -140 q 190 -106 144 -106 z "},"ȑ":{"ha":590,"x_min":24,"x_max":580,"o":"m 115 756 l 242 756 l 253 659 l 263 659 q 368 736 303 708 q 504 764 433 764 q 580 757 544 764 l 580 619 q 497 625 546 625 q 372 601 435 625 q 269 531 309 578 l 269 0 l 115 0 l 115 756 m 154 866 l 24 1122 l 149 1122 l 270 866 l 154 866 m 424 866 l 294 1122 l 419 1122 l 540 866 l 424 866 z "},"ṛ":{"ha":590,"x_min":102,"x_max":580,"o":"m 115 756 l 242 756 l 253 659 l 263 659 q 368 736 303 708 q 504 764 433 764 q 580 757 544 764 l 580 619 q 497 625 546 625 q 372 601 435 625 q 269 531 309 578 l 269 0 l 115 0 l 115 756 m 192 -267 q 125 -245 148 -267 q 102 -187 102 -224 q 125 -128 102 -149 q 192 -106 149 -106 q 258 -128 235 -106 q 281 -187 281 -149 q 258 -245 281 -224 q 192 -267 235 -267 z "},"ȓ":{"ha":590,"x_min":95,"x_max":599,"o":"m 115 756 l 242 756 l 253 659 l 263 659 q 368 736 303 708 q 504 764 433 764 q 580 757 544 764 l 580 619 q 497 625 546 625 q 372 601 435 625 q 269 531 309 578 l 269 0 l 115 0 l 115 756 m 95 885 q 165 1056 101 993 q 347 1118 228 1118 q 481 1089 425 1118 q 566 1008 536 1060 q 599 885 596 956 l 501 885 q 457 995 495 956 q 347 1034 419 1034 q 193 885 206 1034 l 95 885 z "},"ṟ":{"ha":590,"x_min":-40,"x_max":580,"o":"m 115 756 l 242 756 l 253 659 l 263 659 q 368 736 303 708 q 504 764 433 764 q 580 757 544 764 l 580 619 q 497 625 546 625 q 372 601 435 625 q 269 531 309 578 l 269 0 l 115 0 l 115 756 m -40 -233 l -40 -140 l 423 -140 l 423 -233 l -40 -233 z "},"s":{"ha":746,"x_min":73,"x_max":690,"o":"m 345 -14 q 87 19 203 -14 l 87 131 q 346 97 211 97 q 496 125 450 97 q 542 207 542 153 q 531 255 542 236 q 496 287 521 274 q 427 307 471 300 l 293 328 q 125 399 176 347 q 73 538 73 451 q 161 706 73 644 q 429 767 249 767 q 543 760 486 767 q 647 739 599 753 l 647 628 q 430 657 542 657 q 268 627 315 657 q 221 544 221 597 q 245 480 221 505 q 332 444 269 456 l 466 424 q 636 357 582 406 q 690 216 690 308 q 652 93 690 144 q 536 14 613 42 q 345 -14 458 -14 z "},"ś":{"ha":746,"x_min":73,"x_max":690,"o":"m 345 -14 q 87 19 203 -14 l 87 131 q 346 97 211 97 q 496 125 450 97 q 542 207 542 153 q 531 255 542 236 q 496 287 521 274 q 427 307 471 300 l 293 328 q 125 399 176 347 q 73 538 73 451 q 161 706 73 644 q 429 767 249 767 q 543 760 486 767 q 647 739 599 753 l 647 628 q 430 657 542 657 q 268 627 315 657 q 221 544 221 597 q 245 480 221 505 q 332 444 269 456 l 466 424 q 636 357 582 406 q 690 216 690 308 q 652 93 690 144 q 536 14 613 42 q 345 -14 458 -14 m 303 866 l 488 1122 l 660 1122 l 453 866 l 303 866 z "},"ṥ":{"ha":746,"x_min":73,"x_max":690,"o":"m 345 -14 q 87 19 203 -14 l 87 131 q 346 97 211 97 q 496 125 450 97 q 542 207 542 153 q 531 255 542 236 q 496 287 521 274 q 427 307 471 300 l 293 328 q 125 399 176 347 q 73 538 73 451 q 161 706 73 644 q 429 767 249 767 q 543 760 486 767 q 647 739 599 753 l 647 628 q 430 657 542 657 q 268 627 315 657 q 221 544 221 597 q 245 480 221 505 q 332 444 269 456 l 466 424 q 636 357 582 406 q 690 216 690 308 q 652 93 690 144 q 536 14 613 42 q 345 -14 458 -14 m 297 1094 q 234 1112 255 1094 q 213 1160 213 1130 q 234 1208 213 1190 q 297 1226 255 1226 q 359 1208 338 1226 q 381 1160 381 1190 q 359 1112 381 1130 q 297 1094 338 1094 m 303 866 l 488 1122 l 660 1122 l 453 866 l 303 866 z "},"š":{"ha":746,"x_min":73,"x_max":690,"o":"m 345 -14 q 87 19 203 -14 l 87 131 q 346 97 211 97 q 496 125 450 97 q 542 207 542 153 q 531 255 542 236 q 496 287 521 274 q 427 307 471 300 l 293 328 q 125 399 176 347 q 73 538 73 451 q 161 706 73 644 q 429 767 249 767 q 543 760 486 767 q 647 739 599 753 l 647 628 q 430 657 542 657 q 268 627 315 657 q 221 544 221 597 q 245 480 221 505 q 332 444 269 456 l 466 424 q 636 357 582 406 q 690 216 690 308 q 652 93 690 144 q 536 14 613 42 q 345 -14 458 -14 m 510 1122 l 633 1122 l 442 866 l 315 866 l 124 1122 l 247 1122 l 378 942 l 510 1122 z "},"ṧ":{"ha":746,"x_min":73,"x_max":690,"o":"m 345 -14 q 87 19 203 -14 l 87 131 q 346 97 211 97 q 496 125 450 97 q 542 207 542 153 q 531 255 542 236 q 496 287 521 274 q 427 307 471 300 l 293 328 q 125 399 176 347 q 73 538 73 451 q 161 706 73 644 q 429 767 249 767 q 543 760 486 767 q 647 739 599 753 l 647 628 q 430 657 542 657 q 268 627 315 657 q 221 544 221 597 q 245 480 221 505 q 332 444 269 456 l 466 424 q 636 357 582 406 q 690 216 690 308 q 652 93 690 144 q 536 14 613 42 q 345 -14 458 -14 m 378 1132 q 316 1150 337 1132 q 294 1197 294 1167 q 316 1245 294 1228 q 378 1263 337 1263 q 441 1245 420 1263 q 463 1197 463 1228 q 441 1150 463 1167 q 378 1132 420 1132 m 510 1122 l 633 1122 l 442 866 l 315 866 l 124 1122 l 247 1122 l 378 942 l 510 1122 z "},"ş":{"ha":746,"x_min":73,"x_max":690,"o":"m 690 216 q 622 62 690 121 q 422 -10 554 3 l 422 -67 q 512 -103 481 -74 q 542 -181 542 -132 q 501 -264 542 -235 q 383 -294 459 -294 q 311 -287 347 -294 q 249 -268 276 -281 l 249 -203 q 312 -223 278 -217 q 377 -230 346 -230 q 438 -217 417 -230 q 458 -174 458 -203 q 438 -133 458 -146 q 376 -119 417 -119 l 344 -119 l 344 -14 q 87 19 201 -14 l 87 131 q 346 97 211 97 q 496 125 450 97 q 542 207 542 153 q 531 255 542 236 q 496 287 521 274 q 427 307 471 300 l 293 328 q 125 399 176 347 q 73 538 73 451 q 161 706 73 644 q 429 767 249 767 q 543 760 486 767 q 647 739 599 753 l 647 628 q 430 657 542 657 q 268 627 315 657 q 221 544 221 597 q 245 480 221 505 q 332 444 269 456 l 466 424 q 636 357 582 406 q 690 216 690 308 z "},"ŝ":{"ha":746,"x_min":73,"x_max":690,"o":"m 345 -14 q 87 19 203 -14 l 87 131 q 346 97 211 97 q 496 125 450 97 q 542 207 542 153 q 531 255 542 236 q 496 287 521 274 q 427 307 471 300 l 293 328 q 125 399 176 347 q 73 538 73 451 q 161 706 73 644 q 429 767 249 767 q 543 760 486 767 q 647 739 599 753 l 647 628 q 430 657 542 657 q 268 627 315 657 q 221 544 221 597 q 245 480 221 505 q 332 444 269 456 l 466 424 q 636 357 582 406 q 690 216 690 308 q 652 93 690 144 q 536 14 613 42 q 345 -14 458 -14 m 631 866 l 507 866 l 378 1045 l 250 866 l 126 866 l 315 1122 l 442 1122 l 631 866 z "}}}
